<?xml version="1.0" encoding="utf-8"?>
<!-- Generator: Adobe Illustrator 25.2.3, SVG Export Plug-In . SVG Version: 6.00 Build 0)  -->
<svg version="1.1" id="Layer_1" xmlns="http://www.w3.org/2000/svg" xmlns:xlink="http://www.w3.org/1999/xlink" x="0px" y="0px"
	 viewBox="0 0 468.7 113.6" style="enable-background:new 0 0 468.7 113.6;" xml:space="preserve">
<style type="text/css">
	.st0{fill:#FFFFFF;}
	.st1{fill:#502C85;}
	.st2{fill:none;stroke:#502C85;stroke-miterlimit:10;}
</style>
<g>
	<path class="st0" d="M58.5,40c-3.3-1.6-7.3-2.3-12.9-2.3c-16,0-25.4,11.4-25.4,29.1c0,19.5,11.2,31.4,28.9,31.4
		c2.9,0,8.1-0.3,12.2-4.2c2.7-2.6,4.3-5.1,6.6-9.1c0.3-0.1,1.4,0.4,1.4,0.8C67.9,91,63.8,98.1,61.7,99c-2.8,0.9-8.4,2.1-14.5,2.1
		c-21.6,0-34.4-12.2-34.4-33.5c0-11.1,4.8-21.7,15.8-27.6c5.4-2.9,12-4.8,20.7-4.8c7.9,0,14,1.6,18.6,2c-0.7,2.9-1.7,10.3-1.8,14.3
		c-0.2,0.3-1.8,0.6-1.8,0.2C63.2,43.4,61.7,41.5,58.5,40z"/>
	<path class="st0" d="M113.5,78.8c0,7-3,14.1-9.2,18c-2.5,1.7-6.7,3.7-10.7,3.7c-14.2,0-18.8-11.4-18.8-21c0-7.7,3.4-12.9,8.5-16.3
		c3.4-2.3,8-4,12.5-4C107.2,59.3,113.5,68,113.5,78.8z M86.5,63.7c-2.5,1.6-5.6,5.5-5.6,13.5c0,11.4,6.2,20.3,15.3,20.3
		c2.1,0,5.1-0.6,7-2.5c3.2-3.2,4.1-7.2,4.1-12.9c0-11.4-5.5-20-15.2-20C90.5,62.1,87.8,62.7,86.5,63.7z"/>
	<path class="st0" d="M122.7,97.3c1.5-0.6,1.8-2.3,1.9-4c0.3-3.8,0.2-10.2,0.2-17c0-5.8-0.2-8.5-0.3-9.1c-0.2-1.4-0.9-1.7-4.9-2.8
		c-0.1-0.2,0-1.2,0.3-1.3c3.3-0.5,8.1-2.2,10.5-3.8c0.1,0,0.3,0.2,0.3,0.4c-0.2,2.1-0.3,4.3-0.4,6c0,0.3,0.2,0.6,0.4,0.4
		c6.6-5.2,11.3-6.8,14.3-6.8c4,0,6.8,1.9,8.8,5.1c1.8,2.8,2.4,6.7,2.4,11.7c0,5.5,0.1,14.1,0.1,18.6c0,1.5,0.3,2.2,1.5,2.6
		c1.4,0.5,2.7,0.7,4.4,0.9c0.2,0.2,0.1,1.3-0.2,1.5c-1.4,0-3.9-0.3-8.5-0.3s-7.7,0.2-9.4,0.3c-0.2-0.2-0.2-1.3,0-1.5
		c1.9-0.2,3.7-0.5,4.3-0.7c1.6-0.5,2-1.6,2.1-2.9c0.2-4.7,0.2-17.8-0.2-21.2c-0.2-1.6-0.8-5-2.8-6.9c-1.4-1.5-3.3-2.6-6.8-2.6
		s-6.6,1.3-9.2,4c-0.8,0.8-1.1,1.7-1.1,4.4c0,8,0,16.4,0.2,20.9c0.1,2.8,0.5,3.7,1.6,4.2c0.9,0.4,3,0.7,4.7,0.9
		c0.1,0.2,0.1,1.3-0.1,1.6c-1.1,0-3.6-0.3-9.1-0.3c-5.6,0-7.3,0.3-8.7,0.3c-0.3-0.2-0.2-1.3,0-1.5C120.4,97.9,121.7,97.7,122.7,97.3
		z"/>
	<path class="st0" d="M176.9,60.1c0,0.1,0.2,0.6,0.4,0.6c5.3,0,9-0.2,9.9-0.3c-0.3,1-0.7,3.1-0.8,4.1c-1.8,0-7.8-0.2-9.2-0.1
		c-0.1,0-0.4,0.7-0.4,0.9c0.1,9.2-0.1,23.1,0.2,28.5c0.1,2,1,3.2,2.9,3.7c1.3,0.3,2,0.5,4.6,0.7c0.1,0.2,0,1.3-0.2,1.5
		c-2.2,0-6.2-0.3-10.2-0.3c-2.2,0-6.7,0.3-8.9,0.3c-0.2-0.1-0.3-1.3,0-1.5c1.6-0.2,2.8-0.4,3.6-0.6c1.7-0.5,2.2-1.6,2.2-3.9
		c0.1-4.6,0.2-16.1,0.3-28.5c0-0.2-0.2-0.8-0.4-0.8l-5.2-0.2c0-0.5,0.4-1.5,0.7-1.9c1.6-0.2,3.9-1,4.6-1.4c0.1-0.1,0.3-0.4,0.3-0.6
		c0-13,2.2-21,10.8-27.3c3-2.2,6.9-3.8,8.9-3.8c3.6,0,6.6,1.9,7.3,3.7v0.6c-0.2,0.9-2.2,4-2.9,4.5c-0.1,0.1-0.4,0.2-0.6,0.1
		c-1.5-1.3-4.9-4.2-8.8-4.2c-1.8,0-3.3,0.6-4.8,1.9c-4.1,3.9-4.3,14.6-4.4,22.5V60.1z"/>
	<path class="st0" d="M221.5,91.4c0.1,0.5-0.1,1.5-0.2,1.7c-5,5.2-10.7,7.4-15.2,7.4c-5,0-8.9-1.8-11.6-4.9
		c-3.8-4.3-5.1-10.1-5.1-15.3c0-8.3,3.1-14.4,8.5-17.8c2.5-1.7,7.7-3.2,10-3.2c9.2,0,12.2,9.1,12.9,13.8c0.1,0.3,0.3,0.6,1.3,0.7
		c0.1,0.3-0.2,1.2-0.4,1.3c-4.4,1.4-18.1,2.1-26.4,2.3c-0.4,0-0.6,0.6-0.6,1.1c0,4.3,1.5,8.9,3.8,11.7c3.1,4,7.1,5.4,11.5,5.4
		c3.9,0,7.3-0.8,11.2-4.4C221.3,91.2,221.5,91.3,221.5,91.4z M195.1,74.4c0,0.3,0.2,0.6,0.3,0.6c3,0.2,16.5-0.2,18.9-0.7
		c0.2-0.1,0.6-0.4,0.6-0.8c-0.6-4.9-3.8-11.6-10.1-11.6C199.9,61.9,195.7,66.2,195.1,74.4z"/>
	<path class="st0" d="M249.1,67.5c-1.5-1.5-3.8-2.3-5.4-2.3c-2.3,0-4.2,2.3-5.7,5.1c-0.5,1-1,3-1,4.8c0,6,0.1,16.7,0.3,19
		c0.1,1.8,0.6,2.8,1.9,3.2c1.9,0.6,3.7,0.8,5.5,0.9c0.2,0.3,0.1,1.3-0.2,1.5c-1,0-6-0.3-9.3-0.3c-2.6,0-7.8,0.2-9.4,0.3
		c-0.2-0.2-0.2-1.3,0-1.5c1.1-0.1,2.8-0.5,3.8-0.8c0.9-0.3,1.5-0.8,1.7-2.4c0.3-1.6,0.4-10.8,0.4-18.7c0-4.1,0-7.2-0.2-8.5
		c-0.1-0.9-0.5-2.7-5.2-3.8c0-0.2,0.1-1.1,0.3-1.2c2.4-0.2,7.9-2,10.1-3.4c0.1,0,0.4,0.2,0.4,0.3C237,61.5,237,66,237,68
		c0,0.1,0.3,0.2,0.4,0.1c1.7-2.3,3.8-5,6.2-6.8c1.6-1.2,3.1-2,5-2c1.6,0,3.2,0.7,4,1.9c0.1,0.2,0.1,1,0,1.4c-0.2,1-1.8,3.7-2.7,4.6
		L249.1,67.5z"/>
	<path class="st0" d="M286.7,91.4c0.1,0.5-0.1,1.5-0.2,1.7c-5,5.2-10.7,7.4-15.2,7.4c-5,0-8.9-1.8-11.6-4.9
		c-3.8-4.3-5.1-10.1-5.1-15.3c0-8.3,3.1-14.4,8.5-17.8c2.5-1.7,7.7-3.2,10-3.2c9.2,0,12.2,9.1,12.9,13.8c0.1,0.3,0.3,0.6,1.3,0.7
		c0.1,0.3-0.2,1.2-0.4,1.3c-4.4,1.4-18.1,2.1-26.4,2.3c-0.4,0-0.6,0.6-0.6,1.1c0,4.3,1.5,8.9,3.8,11.7c3.1,4,7.1,5.4,11.5,5.4
		c3.9,0,7.3-0.8,11.2-4.4C286.5,91.2,286.7,91.3,286.7,91.4z M260.3,74.4c0,0.3,0.2,0.6,0.3,0.6c3,0.2,16.5-0.2,18.9-0.7
		c0.2-0.1,0.6-0.4,0.6-0.8c-0.6-4.9-3.8-11.6-10.1-11.6C265.1,61.9,260.9,66.2,260.3,74.4z"/>
	<path class="st0" d="M294.6,97.3c1.5-0.6,1.8-2.3,1.9-4c0.3-3.8,0.2-10.2,0.2-17c0-5.8-0.2-8.5-0.3-9.1c-0.2-1.4-0.9-1.7-4.9-2.8
		c-0.1-0.2,0-1.2,0.3-1.3c3.3-0.5,8.1-2.2,10.5-3.8c0.1,0,0.3,0.2,0.3,0.4c-0.2,2.1-0.3,4.3-0.4,6c0,0.3,0.2,0.6,0.4,0.4
		c6.6-5.2,11.3-6.8,14.3-6.8c4,0,6.8,1.9,8.8,5.1c1.8,2.8,2.4,6.7,2.4,11.7c0,5.5,0.1,14.1,0.1,18.6c0,1.5,0.3,2.2,1.5,2.6
		c1.4,0.5,2.7,0.7,4.4,0.9c0.2,0.2,0.1,1.3-0.2,1.5c-1.4,0-3.9-0.3-8.5-0.3s-7.7,0.2-9.4,0.3c-0.2-0.2-0.2-1.3,0-1.5
		c1.9-0.2,3.7-0.5,4.3-0.7c1.6-0.5,2-1.6,2.1-2.9c0.2-4.7,0.2-17.8-0.2-21.2c-0.2-1.6-0.8-5-2.8-6.9c-1.4-1.5-3.3-2.6-6.8-2.6
		s-6.6,1.3-9.2,4c-0.8,0.8-1.1,1.7-1.1,4.4c0,8,0,16.4,0.2,20.9c0.1,2.8,0.5,3.7,1.6,4.2c0.9,0.4,3,0.7,4.7,0.9
		c0.1,0.2,0.1,1.3-0.1,1.6c-1.1,0-3.7-0.3-9.1-0.3c-5.6,0-7.3,0.3-8.7,0.3c-0.3-0.2-0.2-1.3,0-1.5C292.2,97.9,293.6,97.7,294.6,97.3
		z"/>
	<path class="st0" d="M356.2,100.5c-6.2,0-10.2-2.4-13.3-6.7c-2.5-3.5-3.9-8.2-3.9-13c0-7.2,3.1-13.6,9.8-17.6c3.5-2,8.7-4,12.2-4
		c3.5,0,5.5,0.5,7.3,1.3c0.8,0.4,2.5,1.4,2.8,2.4c0,0.2-0.1,0.8-0.2,1.1c-0.6,1.1-1.9,2.5-2.6,2.8c-0.3,0.1-0.7,0.1-0.9,0
		c-1.8-1.8-5.3-4.5-10.5-4.5c-8,0-12,7.6-12,14.5c0,5.6,1.3,10.3,3.9,13.2c3.2,3.9,6.8,5.4,11.6,5.4c3.3,0,7.9-1.5,11.2-5
		c0.1,0,0.3,0.1,0.3,0.3c0,0.4-0.1,1.4-0.3,1.8C366.2,98.9,360.1,100.5,356.2,100.5z"/>
	<path class="st0" d="M408.7,91.4c0.1,0.5-0.1,1.5-0.2,1.7c-5,5.2-10.7,7.4-15.2,7.4c-5,0-8.9-1.8-11.6-4.9
		c-3.8-4.3-5.1-10.1-5.1-15.3c0-8.3,3.1-14.4,8.5-17.8c2.5-1.7,7.7-3.2,10-3.2c9.2,0,12.2,9.1,12.9,13.8c0.1,0.3,0.3,0.6,1.3,0.7
		c0.1,0.3-0.2,1.2-0.4,1.3c-4.4,1.4-18.1,2.1-26.4,2.3c-0.4,0-0.6,0.6-0.6,1.1c0,4.3,1.5,8.9,3.8,11.7c3.1,4,7.1,5.4,11.5,5.4
		c3.9,0,7.3-0.8,11.2-4.4C408.5,91.2,408.7,91.3,408.7,91.4z M382.4,74.4c0,0.3,0.2,0.6,0.3,0.6c3,0.2,16.5-0.2,18.9-0.7
		c0.2-0.1,0.6-0.4,0.6-0.8c-0.6-4.9-3.8-11.6-10.1-11.6C387.1,61.9,383,66.2,382.4,74.4z"/>
	<path class="st0" d="M437.1,69.6c-0.1,0.3-1.4,0.4-1.6,0.1c-0.5-4.8-1.4-6.7-3.3-7.6c-1.5-0.7-2.9-0.9-4.6-0.9
		c-3.2,0-6.5,2.2-6.5,6.6c0,3.5,1.2,5.9,8.3,9.5c8.2,4.2,10,7.2,10,11.7c0,6.5-5.8,11.6-14,11.6c-2.9,0-6.9-0.7-9.4-1.8
		c-0.8-2-1.5-8.2-1.5-10.1c0.1-0.3,1.3-0.6,1.6-0.4c1.3,5.9,3.8,8.2,6.2,9.4c1.4,0.7,2.9,0.9,4.4,0.9c4.1,0,7.2-2.6,7.2-6.5
		c0-4.1-1.8-6.2-7.5-9.2C418.2,78.4,416,75,416,70.1c0-5.7,4.7-10.8,13.3-10.8c2.1,0,4,0.3,5.5,0.5c1.1,0.2,2.9,0.4,3.4,0.4
		C437.4,63.6,437.3,66,437.1,69.6z"/>
</g>
<g>
	<path class="st1" d="M102.9,33.7c0.2,1.1,0.6,2,0.6,2.5c0,0.6-1.1,1.3-1.8,1.3c-0.4,0-1.1-1.6-1.6-3.6c-2.9,0.4-6.5-0.1-10-1.1
		c-2.1,4.5-4.8,7.9-9.1,7.9c-3.9,0-6.4-3-6.4-5.5c0-0.4,0.2-0.7,0.5-0.7c0.2,0,0.3,0.1,0.4,0.6c0.3,1.6,2,3.2,4.3,3.2
		c3.6,0,6-2.7,7.8-6.5c-4.4-1.9-7.9-4.8-7.9-8.3c0-2.7,2-5.3,5.7-5.3c2.2,0,4.3,0.9,6.2,2.3c2-6.1,4.2-11.5,8.4-11.5
		c0.4,0,1.3-0.5,1.9-0.5c0.6,0,1.3,0.6,1.3,1.9c0,1.3-0.7,10-0.7,18.1c0,1,0,3,0.1,3.8c1.6-0.5,2.8-1.4,3.4-2.8c0,0,0.2-0.6,0.5-0.6
		c0.3,0,0.6,0.1,0.6,0.4c0,0.2-0.1,0.4-0.1,0.4C106.7,31.7,104.7,33.3,102.9,33.7z M88.4,30.3c1-2.4,1.8-5,2.7-7.6
		c-2.2-1.8-4.5-3-6.7-3c-1.6,0-2.8,1.6-2.8,2.7C81.6,25.4,84.6,28.3,88.4,30.3z M93.1,24.5c-0.7,2.3-1.5,4.7-2.3,6.8
		c3.1,1.2,6.4,1.7,9.1,1.3C98.6,30.8,96.1,27.4,93.1,24.5z M93.8,22.2c3,2.7,5.3,6,6.2,7.7c0-10.3,0.5-17.9,0.5-19
		c0-0.6-0.2-0.7-0.6-0.7C97.1,10.8,95.5,16.1,93.8,22.2z"/>
	<path class="st1" d="M109.4,21.2c0,1.4-0.7,3.1-0.7,9c0.1-0.5,2.5-9.6,6.3-9.6c1.6,0,2.9,1.3,2.9,2.9c0,1.2-1.1,5.1-1.1,8.1
		c0,1.2,0.4,2,1.1,2c1.1,0,2.7-3.8,2.7-3.8s0.1-0.4,0.4-0.4c0.3,0,0.6,0.2,0.6,0.5c0,0.2-0.1,0.6-0.1,0.6s-0.8,2.3-1.8,3.7
		c-0.6,0.7-1.4,1-2.4,1c-1.7,0-3.4-1.7-3.4-4.9c0-3.4,1.1-5.9,1.1-7.5c0-0.6-0.2-0.8-0.6-0.8c-1.6,0-5.3,7.8-5.3,11.7
		c0,1,0.1,1.2,0.1,1.6c0,0.3-0.6,0.4-1,0.4c-1.1,0-2.1-2.2-2.1-6.5c0-4.3,0.4-6.4,0.7-7.2c0.2-0.8,1-1.3,1.6-1.3
		C109.3,20.5,109.4,20.8,109.4,21.2z"/>
	<path class="st1" d="M123.9,21.2c0,1.4-0.7,3.1-0.7,9c0.1-0.5,2.5-9.6,6.3-9.6c1.6,0,2.9,1.3,2.9,2.9c0,1.2-1.1,5.1-1.1,8.1
		c0,1.2,0.4,2,1.1,2c1.1,0,2.7-3.8,2.7-3.8s0.1-0.4,0.4-0.4c0.3,0,0.6,0.2,0.6,0.5c0,0.2-0.1,0.6-0.1,0.6s-0.8,2.3-1.8,3.7
		c-0.6,0.7-1.4,1-2.4,1c-1.7,0-3.4-1.7-3.4-4.9c0-3.4,1.1-5.9,1.1-7.5c0-0.6-0.2-0.8-0.6-0.8c-1.6,0-5.3,7.8-5.3,11.7
		c0,1,0.1,1.2,0.1,1.6c0,0.3-0.6,0.4-1,0.4c-1.1,0-2.1-2.2-2.1-6.5c0-4.3,0.4-6.4,0.7-7.2c0.2-0.8,1-1.3,1.6-1.3
		C123.7,20.5,123.9,20.8,123.9,21.2z"/>
	<path class="st1" d="M138.9,22.9c0,2.9-1.2,6.7-1.2,8.7c0,1.9,0.6,2.5,1.5,2.5c1.2,0,3.6-3.1,3.6-5.5c0-4.1,0.8-8.2,1.9-8.2
		c0.6,0,1.2,0.4,1.2,1.1c0,0.7-0.4,3.6-0.4,7.2s0.8,4.8,1.6,4.8c1.1,0,2.7-3.8,2.7-3.8s0.1-0.4,0.4-0.4c0.3,0,0.6,0.2,0.6,0.5
		c0,0.2-0.1,0.6-0.1,0.6s-0.8,2.3-1.8,3.7c-0.6,0.7-1.7,1.2-2.6,1.2c-2,0-3.2-3.1-3.2-3.1s-1.6,3.5-4.4,3.5c-1.7,0-3.6-1.1-3.6-4.5
		c0-3.1,1.2-4.4,1.2-8.1c0-1-0.2-0.9-0.2-1.3c0-0.4,0.6-0.6,1.1-0.6C138,21,138.9,21.6,138.9,22.9z"/>
	<path class="st1" d="M163.3,29.6c0,0,0.1-0.4,0.4-0.4c0.3,0,0.6,0.2,0.6,0.5c0,0.2-0.1,0.6-0.1,0.6s-0.8,2.3-1.8,3.7
		c-0.6,0.7-1.2,1-2.1,1c-1.8,0-2.9-1.8-2.9-3c-0.5,1.4-1.7,3.4-3.8,3.4c-1.7,0-4.2-1.4-4.2-5.4c0-5.4,3.3-9.4,6.7-9.4
		c2.6,0,3.1,2.2,3.1,2.2s1.4,0.4,1.4,1.6s-0.3,2.7-1,5.8c0,1.9,0.3,3.2,0.8,3.2C161.6,33.5,163.3,29.6,163.3,29.6z M152.4,30.5
		c0,2.4,0.7,3.4,1.6,3.4c1,0,2.8-2.4,3.3-5.5c0.3-2,0.8-3.7,0.8-4.9c-0.2-0.9-0.9-1.5-1.6-1.5C154.4,22,152.4,26.5,152.4,30.5z"/>
	<path class="st1" d="M166.9,14.7c0,2-1,7.7-1.8,11.8c0,5.4,1.4,7.5,2.3,7.5c1.1,0,2.7-4.3,2.7-4.3s0.1-0.4,0.4-0.4
		c0.3,0,0.6,0.2,0.6,0.5c0,0.2-0.1,0.6-0.1,0.6s-0.8,2.7-1.8,4c-0.6,0.7-1.4,1-2.4,1c-1.8,0-3.8-2.8-3.8-9.2s0.7-13.6,1.9-13.6
		C166.1,12.5,166.9,13.1,166.9,14.7z"/>
</g>
<line class="st2" x1="74.8" y1="46.8" x2="169.2" y2="46.8"/>
<line class="st2" x1="199.8" y1="46.8" x2="442.8" y2="46.8"/>
<g>
	<path class="st1" d="M210.2,36.1c-0.5,0-1.4,0-2.5,0c-1.2,0-2.1,0-2.5,0c-0.1-0.1,0-0.4,0-0.5c0.5,0,0.9-0.1,1.2-0.2
		c0.5-0.1,0.6-0.4,0.6-1.2c0-1.3,0.1-4.8,0.1-7.5c0-0.1-0.1-0.1-0.1-0.1c-0.3,0-1.5,0-2.1,0c-0.3,0-0.5,0.1-0.7,0.5
		c-0.2,0.3-0.4,0.9-0.6,1.5c-0.1,0-0.5,0-0.5-0.1c0.1-0.7,0.3-2,0.3-2.7c0,0,0.1-0.1,0.2-0.1c0.3,0.1,0.7,0.2,1.3,0.2h6.1
		c0.8,0,1.1,0,1.6-0.2c0,0,0.1,0,0.2,0.1c-0.2,0.6-0.3,1.9-0.4,2.8c0,0.1-0.5,0.1-0.5,0c0-0.6-0.1-1.2-0.3-1.5
		c-0.1-0.3-0.3-0.5-0.6-0.5c-0.8,0-1.9,0-2.3,0c0,0-0.1,0.1-0.1,0.1c0,2.4,0,7,0,7.8c0,0.6,0.2,0.8,0.6,0.9c0.3,0.1,0.5,0.1,1.1,0.2
		C210.3,35.7,210.3,36,210.2,36.1z"/>
	<path class="st1" d="M218.7,25.8c0.4,0,1.2,0,2.1,0c1.1,0,1.6,0,2.1,0c0,0.1,0,0.4,0,0.5c-0.3,0-0.6,0.1-0.8,0.1
		c-0.3,0.1-0.4,0.2-0.5,0.8c0,0.6,0,1.4,0,3.1c0,0.1,0,0.1,0.1,0.2c0.1,0,0.4,0,2.8,0c1.8,0,2.4,0,2.6,0c0,0,0.1-0.1,0.1-0.1
		c0-0.9,0-2.7,0-3.3c0-0.3-0.1-0.5-0.3-0.5c-0.2-0.1-0.5-0.1-1-0.2c-0.1-0.1-0.1-0.4,0-0.5c0.4,0,1.2,0.1,2.1,0.1c0.8,0,1.8,0,2,0
		c0,0.1,0.1,0.4,0,0.5c-0.4,0-0.6,0.1-0.9,0.2c-0.4,0.1-0.4,0.3-0.5,0.9c0,0.6,0,1.5,0,3.5c0,1.4,0,3.2,0,3.8c0,0.5,0.1,0.6,0.5,0.7
		c0.2,0.1,0.5,0.1,1.1,0.2c0,0.1,0,0.4-0.1,0.5c-0.5,0-1.4,0-2.2,0c-0.8,0-1.7,0-2.1,0c-0.1-0.1-0.1-0.4,0-0.5
		c0.4,0,0.7-0.1,0.9-0.2c0.3-0.1,0.4-0.2,0.4-0.8c0-0.5,0-2.3,0-3.3c0,0,0-0.1-0.1-0.1c-0.3,0-1.7,0-2.6,0c-1.3,0-2.6,0-2.8,0
		c0,0,0,0.1,0,0.1c0,0.9,0,2.8,0,3.1c0,0.6,0.1,0.8,0.5,0.9c0.2,0.1,0.5,0.1,1,0.2c0.1,0.1,0,0.4-0.1,0.5c-0.3,0-1.1,0-2.1,0
		c-1,0-1.9,0-2.2,0c-0.1-0.1-0.1-0.4,0-0.5c0.4,0,0.7-0.1,0.9-0.1c0.5-0.1,0.5-0.4,0.6-1.2c0-0.6,0-2,0-3.4c0-1.6,0-3.3,0-3.6
		c0-0.5-0.1-0.6-0.5-0.7c-0.2-0.1-0.5-0.1-1-0.2C218.6,26.2,218.6,25.9,218.7,25.8z"/>
	<path class="st1" d="M236.2,25.8c0.4,0,1.3,0.1,2.2,0.1h3.2c0.6,0,1.5,0,1.8-0.1c0,0,0.1,0.1,0.1,0.1c-0.1,0.5-0.2,1.6-0.3,2.3
		c-0.1,0.1-0.5,0.1-0.5,0c0-0.5-0.1-0.8-0.2-1c-0.1-0.4-0.3-0.6-0.8-0.6c-0.3,0-2.3,0-2.5,0c-0.1,0-0.2,0.2-0.2,0.3
		c0,0.9,0,2.8,0,3.5c0,0,0,0.1,0.1,0.1c0.7,0,1.9,0,2.5,0c0.4,0,0.5-0.2,0.6-0.5c0.1-0.2,0.1-0.4,0.2-0.7c0.1,0,0.5,0,0.5,0
		c0,0.3-0.1,1-0.1,1.5c0,0.6,0,1.1,0,1.5c-0.1,0.1-0.5,0.1-0.6,0c0-0.3-0.1-0.5-0.1-0.7c-0.1-0.2-0.2-0.4-0.6-0.5
		c-0.5,0-1.9,0-2.5,0c0,0-0.1,0.1-0.1,0.1c0,0.8,0,2.5,0,3.3c0,0.3,0.2,0.6,0.4,0.6c0.3,0.1,1.8,0.1,2.4,0.1c0.7,0,0.9-0.2,1.2-0.5
		c0.3-0.3,0.6-1,0.8-1.4c0.1,0,0.4,0.1,0.5,0.2c-0.1,0.5-0.4,1.8-0.7,2.3c-0.1,0.2-0.2,0.3-1,0.3c-1.4,0-2.6-0.1-4.3-0.1
		c-1.1,0-1.9,0-2.6,0c-0.1,0-0.1-0.4,0-0.5c0.5,0,1-0.1,1.3-0.2c0.4-0.1,0.5-0.3,0.6-0.9c0-0.3,0-2.1,0-4c0-1.5,0-3,0-3.3
		c0-0.6-0.1-0.7-0.5-0.8c-0.2-0.1-0.5-0.1-0.9-0.2C236.1,26.2,236.1,25.9,236.2,25.8z"/>
	<path class="st1" d="M258.3,25.8c0.3,0,1.2,0,2,0h3.9c0.6,0,1.3,0,1.6-0.1c0,0,0.1,0.1,0.1,0.1c-0.1,0.4-0.2,1.4-0.2,2.3
		c0,0.1-0.5,0.1-0.5,0c-0.1-0.5-0.1-0.8-0.2-1.1c-0.1-0.4-0.3-0.5-0.7-0.6c-0.6,0-2.4,0-2.8,0c-0.1,0-0.2,0.2-0.2,0.3
		c0,1,0,2.6,0,3.7c0,0,0.1,0.1,0.1,0.1c0.7,0,2.1,0,2.7,0c0.4,0,0.6-0.2,0.7-0.5c0.1-0.2,0.1-0.4,0.2-0.7c0.1,0,0.5,0,0.6,0
		c0,0.4-0.1,1.1-0.1,1.6c0,0.6,0,1.1,0,1.6c-0.1,0.1-0.4,0.1-0.5,0c-0.1-0.3-0.1-0.5-0.2-0.7c-0.1-0.3-0.3-0.5-0.6-0.5
		c-0.6,0-2.3,0-2.7,0c0,0-0.1,0.1-0.1,0.1c0,1,0,2.4,0,3.1c0,0.5,0.1,0.8,0.6,0.9c0.3,0.1,0.7,0.1,1.1,0.1c0.1,0.1,0,0.4,0,0.5
		c-0.5,0-1.3,0-2.5,0c-1,0-1.5,0-2.1,0c-0.1,0-0.1-0.4,0-0.5c0.4,0,0.7-0.1,0.9-0.1c0.5-0.1,0.5-0.3,0.6-0.9c0-0.6,0-1.8,0-3.8
		c0-1.8,0-3,0-3.5c0-0.5-0.1-0.7-0.4-0.8c-0.2-0.1-0.5-0.1-0.9-0.2C258.2,26.2,258.3,25.9,258.3,25.8z"/>
	<path class="st1" d="M272,25.8c0.3,0,1.3,0,2.1,0c0.9,0,1.6,0,2,0c0,0.1,0.1,0.4,0,0.5c-0.4,0-0.6,0.1-0.8,0.1
		c-0.4,0.1-0.4,0.3-0.5,0.8c0,0.7,0,2.1,0,3.5c0,1.6,0,3.2,0,3.8c0,0.5,0.1,0.8,0.6,0.9c0.2,0.1,0.6,0.1,1,0.2c0.1,0.1,0,0.4,0,0.5
		c-0.4,0-1.3,0-2.1,0c-0.9,0-1.8,0-2.3,0c-0.1,0-0.1-0.4,0-0.5c0.4,0,0.6-0.1,0.8-0.1c0.5-0.1,0.5-0.3,0.6-0.7
		c0.1-0.5,0.1-2.2,0.1-4.3c0-1.4,0-2.4,0-3.2c0-0.4-0.1-0.7-0.4-0.8c-0.2-0.1-0.6-0.1-1-0.2C271.9,26.2,271.9,25.9,272,25.8z"/>
	<path class="st1" d="M282.3,25.8c0.3,0,1.2,0,2,0h3.9c0.6,0,1.3,0,1.6-0.1c0,0,0.1,0.1,0.1,0.1c-0.1,0.4-0.2,1.4-0.2,2.3
		c0,0.1-0.5,0.1-0.5,0c-0.1-0.5-0.1-0.8-0.2-1.1c-0.1-0.4-0.3-0.5-0.7-0.6c-0.6,0-2.4,0-2.8,0c-0.1,0-0.2,0.2-0.2,0.3
		c0,1,0,2.6,0,3.7c0,0,0.1,0.1,0.1,0.1c0.7,0,2.1,0,2.7,0c0.4,0,0.6-0.2,0.7-0.5c0.1-0.2,0.1-0.4,0.2-0.7c0.1,0,0.5,0,0.6,0
		c0,0.4-0.1,1.1-0.1,1.6c0,0.6,0,1.1,0,1.6c-0.1,0.1-0.4,0.1-0.5,0c-0.1-0.3-0.1-0.5-0.2-0.7c-0.1-0.3-0.3-0.5-0.6-0.5
		c-0.6,0-2.3,0-2.7,0c0,0-0.1,0.1-0.1,0.1c0,1,0,2.4,0,3.1c0,0.5,0.1,0.8,0.6,0.9c0.3,0.1,0.7,0.1,1.1,0.1c0.1,0.1,0,0.4,0,0.5
		c-0.5,0-1.3,0-2.5,0c-1,0-1.5,0-2.1,0c-0.1,0-0.1-0.4,0-0.5c0.4,0,0.7-0.1,0.9-0.1c0.5-0.1,0.5-0.3,0.6-0.9c0-0.6,0-1.8,0-3.8
		c0-1.8,0-3,0-3.5c0-0.5-0.1-0.7-0.4-0.8c-0.2-0.1-0.5-0.1-0.9-0.2C282.3,26.2,282.3,25.9,282.3,25.8z"/>
	<path class="st1" d="M303,36.1c-0.5,0-1.4,0-2.5,0c-1.2,0-2.1,0-2.5,0c-0.1-0.1,0-0.4,0-0.5c0.5,0,0.9-0.1,1.2-0.2
		c0.5-0.1,0.6-0.4,0.6-1.2c0-1.3,0.1-4.8,0.1-7.5c0-0.1-0.1-0.1-0.1-0.1c-0.3,0-1.5,0-2.1,0c-0.3,0-0.5,0.1-0.7,0.5
		c-0.2,0.3-0.4,0.9-0.6,1.5c-0.1,0-0.5,0-0.5-0.1c0.1-0.7,0.3-2,0.3-2.7c0,0,0.1-0.1,0.2-0.1c0.3,0.1,0.7,0.2,1.3,0.2h6.1
		c0.8,0,1.1,0,1.6-0.2c0,0,0.1,0,0.2,0.1c-0.2,0.6-0.3,1.9-0.4,2.8c0,0.1-0.5,0.1-0.5,0c0-0.6-0.1-1.2-0.3-1.5
		c-0.1-0.3-0.3-0.5-0.6-0.5c-0.8,0-1.9,0-2.3,0c0,0-0.1,0.1-0.1,0.1c0,2.4,0,7,0,7.8c0,0.6,0.2,0.8,0.6,0.9c0.3,0.1,0.5,0.1,1.1,0.2
		C303.1,35.7,303.1,36,303,36.1z"/>
	<path class="st1" d="M311.5,25.8c0.4,0,1.2,0,2.1,0c1.1,0,1.6,0,2.1,0c0,0.1,0,0.4,0,0.5c-0.3,0-0.6,0.1-0.8,0.1
		c-0.3,0.1-0.4,0.2-0.5,0.8c0,0.6,0,1.4,0,3.1c0,0.1,0,0.1,0.1,0.2c0.1,0,0.4,0,2.8,0c1.8,0,2.4,0,2.6,0c0,0,0.1-0.1,0.1-0.1
		c0-0.9,0-2.7,0-3.3c0-0.3-0.1-0.5-0.3-0.5c-0.2-0.1-0.5-0.1-1-0.2c-0.1-0.1-0.1-0.4,0-0.5c0.4,0,1.2,0.1,2.1,0.1c0.8,0,1.8,0,2,0
		c0,0.1,0.1,0.4,0,0.5c-0.4,0-0.6,0.1-0.9,0.2c-0.4,0.1-0.4,0.3-0.5,0.9c0,0.6,0,1.5,0,3.5c0,1.4,0,3.2,0,3.8c0,0.5,0.1,0.6,0.5,0.7
		c0.2,0.1,0.5,0.1,1.1,0.2c0,0.1,0,0.4-0.1,0.5c-0.5,0-1.4,0-2.2,0s-1.7,0-2.1,0c-0.1-0.1-0.1-0.4,0-0.5c0.4,0,0.7-0.1,0.9-0.2
		c0.3-0.1,0.4-0.2,0.4-0.8c0-0.5,0-2.3,0-3.3c0,0,0-0.1-0.1-0.1c-0.3,0-1.7,0-2.6,0c-1.3,0-2.6,0-2.8,0c0,0,0,0.1,0,0.1
		c0,0.9,0,2.8,0,3.1c0,0.6,0.1,0.8,0.5,0.9c0.2,0.1,0.5,0.1,1,0.2c0.1,0.1,0,0.4-0.1,0.5c-0.3,0-1.1,0-2.1,0c-1,0-1.9,0-2.2,0
		c-0.1-0.1-0.1-0.4,0-0.5c0.4,0,0.7-0.1,0.9-0.1c0.5-0.1,0.5-0.4,0.6-1.2c0-0.6,0-2,0-3.4c0-1.6,0-3.3,0-3.6c0-0.5-0.1-0.6-0.5-0.7
		c-0.2-0.1-0.5-0.1-1-0.2C311.4,26.2,311.4,25.9,311.5,25.8z"/>
	<path class="st1" d="M336.6,36.1c-0.1-0.1-0.1-0.4,0-0.5c0.5,0,0.8-0.1,1.1-0.2c0.3-0.1,0.5-0.2,0.5-0.8c0-1,0-2.4,0-3.9
		c0-1,0-2.9,0-3.5c0-0.6-0.2-0.7-0.6-0.8c-0.2,0-0.5-0.1-0.9-0.1c0-0.1,0-0.4,0-0.5c0.3,0,1.5,0,2,0c1,0,1.7-0.1,3.2-0.1
		c1.4,0,2.7,0.4,3.5,1.2c1.1,0.9,1.6,2.2,1.6,3.7c0,2.3-1.1,3.6-2.1,4.3c-1,0.7-2.3,1.1-3.9,1.1c-1,0-2.2,0-3.6-0.1H336.6z
		 M340.1,35.1c0.3,0.3,1.1,0.4,1.8,0.4c0.8,0,1.6-0.2,2.4-0.9c0.8-0.7,1.3-1.8,1.3-3.6c0-1.7-0.6-3-1.9-3.9
		c-0.7-0.5-1.7-0.7-2.9-0.7c-0.3,0-0.7,0-0.8,0.1c-0.1,0-0.2,0.1-0.2,0.3c0,0.4,0,2.6,0,4c0,1.4,0,3.3,0,3.7
		C339.8,34.7,339.8,35,340.1,35.1z"/>
	<path class="st1" d="M353.5,25.8c0.3,0,1.3,0,2.1,0s1.6,0,2,0c0,0.1,0.1,0.4,0,0.5c-0.4,0-0.6,0.1-0.8,0.1
		c-0.4,0.1-0.4,0.3-0.5,0.8c0,0.7,0,2.1,0,3.5c0,1.6,0,3.2,0,3.8c0,0.5,0.1,0.8,0.6,0.9c0.2,0.1,0.6,0.1,1,0.2c0.1,0.1,0,0.4,0,0.5
		c-0.4,0-1.3,0-2.1,0c-0.9,0-1.8,0-2.3,0c-0.1,0-0.1-0.4,0-0.5c0.4,0,0.6-0.1,0.8-0.1c0.5-0.1,0.5-0.3,0.6-0.7
		c0.1-0.5,0.1-2.2,0.1-4.3c0-1.4,0-2.4,0-3.2c0-0.4-0.1-0.7-0.4-0.8c-0.2-0.1-0.6-0.1-1-0.2C353.4,26.2,353.4,25.9,353.5,25.8z"/>
	<path class="st1" d="M365.6,35.3c0.4,0.3,1,0.4,1.6,0.4c0.8,0,1.8-0.5,1.8-1.7c0-1.1-0.7-1.6-2.2-2.5c-1.5-0.8-2.5-1.6-2.5-3.1
		c0-1.8,1.4-2.8,3.2-2.8c1.1,0,1.8,0.2,2.5,0.3c-0.1,0.5-0.2,1.5-0.3,2.3c0,0.1-0.4,0.1-0.5,0c-0.1-1-0.2-1.4-0.6-1.7
		c-0.4-0.3-0.8-0.3-1.3-0.3c-1.1,0-1.7,0.9-1.7,1.7c0,0.9,0.4,1.4,1.1,1.9c0.7,0.4,1.5,0.8,2,1.2c0.9,0.5,1.6,1.2,1.6,2.4
		c0,1.6-1.3,3-3.7,3c-1,0-2-0.3-2.4-0.5c-0.1-0.2-0.4-1.9-0.5-2.5c0-0.1,0.4-0.2,0.5-0.1C364.7,34.2,365,34.9,365.6,35.3z"/>
	<path class="st1" d="M383.3,36.1c-0.5,0-1.4,0-2.5,0c-1.2,0-2.1,0-2.5,0c-0.1-0.1,0-0.4,0-0.5c0.5,0,0.9-0.1,1.2-0.2
		c0.5-0.1,0.6-0.4,0.6-1.2c0-1.3,0.1-4.8,0.1-7.5c0-0.1-0.1-0.1-0.1-0.1c-0.3,0-1.5,0-2.1,0c-0.3,0-0.5,0.1-0.7,0.5
		c-0.2,0.3-0.4,0.9-0.6,1.5c-0.1,0-0.5,0-0.5-0.1c0.1-0.7,0.3-2,0.3-2.7c0,0,0.1-0.1,0.2-0.1c0.3,0.1,0.7,0.2,1.3,0.2h6.1
		c0.8,0,1.1,0,1.6-0.2c0,0,0.1,0,0.2,0.1c-0.2,0.6-0.3,1.9-0.4,2.8c0,0.1-0.5,0.1-0.5,0c0-0.6-0.1-1.2-0.3-1.5
		c-0.1-0.3-0.3-0.5-0.6-0.5c-0.8,0-1.9,0-2.3,0c0,0-0.1,0.1-0.1,0.1c0,2.4,0,7,0,7.8c0,0.6,0.2,0.8,0.6,0.9c0.3,0.1,0.5,0.1,1.1,0.2
		C383.5,35.7,383.4,36,383.3,36.1z"/>
	<path class="st1" d="M391.8,25.8c0.4,0,1.4,0,1.9,0c1.2,0,2.1,0,2.7,0c1.9,0,2.9,1.2,2.9,2.5c0,1.4-0.9,2.2-1.9,2.7
		c0,0,0,0.1,0,0.1c0.6,0.9,1.9,2.7,2.7,3.6c0.7,0.7,0.9,0.8,1.9,0.9c0,0,0,0.4-0.1,0.5c-0.7,0-2,0-2.6-0.3c-0.2-0.1-0.5-0.3-0.8-0.7
		c-0.6-0.7-1.6-2.4-2.3-3.3c-0.1-0.2-0.3-0.2-0.4-0.2c-0.2,0-0.9,0-1.2,0c0,0-0.1,0.1-0.1,0.1c0,0.9,0,2.4,0,3
		c0,0.6,0.1,0.7,0.5,0.8c0.2,0,0.5,0.1,0.9,0.1c0.1,0.1,0,0.4,0,0.5c-0.3,0-1.1,0-2.2,0c-1.1,0-1.8,0-2.1,0c-0.1-0.1-0.1-0.4,0-0.5
		c0.4,0,0.6-0.1,0.8-0.1c0.4-0.1,0.5-0.3,0.6-0.9c0-0.4,0-2.6,0-3.5c0-1.7,0-3.3,0-3.8c0-0.5-0.1-0.7-0.5-0.8
		c-0.2,0-0.6-0.1-0.9-0.1C391.7,26.2,391.8,25.9,391.8,25.8z M394.8,26.5c0,0-0.1,0.2-0.1,0.2c0,0.6,0,2.8,0,4.1c0,0,0,0.1,0.1,0.1
		c1.1,0,1.8,0,2.1-0.1c0.5-0.2,1.1-0.8,1.1-1.9c0-1.5-0.8-2.5-2.6-2.5C395.2,26.4,395,26.4,394.8,26.5z"/>
	<path class="st1" d="M407,25.8c0.3,0,1.3,0,2.1,0c0.9,0,1.6,0,2,0c0,0.1,0.1,0.4,0,0.5c-0.4,0-0.6,0.1-0.8,0.1
		c-0.4,0.1-0.4,0.3-0.5,0.8c0,0.7,0,2.1,0,3.5c0,1.6,0,3.2,0,3.8c0,0.5,0.1,0.8,0.6,0.9c0.2,0.1,0.6,0.1,1,0.2c0.1,0.1,0,0.4,0,0.5
		c-0.4,0-1.3,0-2.1,0c-0.9,0-1.8,0-2.3,0c-0.1,0-0.1-0.4,0-0.5c0.4,0,0.6-0.1,0.8-0.1c0.5-0.1,0.5-0.3,0.6-0.7
		c0.1-0.5,0.1-2.2,0.1-4.3c0-1.4,0-2.4,0-3.2c0-0.4-0.1-0.7-0.4-0.8c-0.2-0.1-0.6-0.1-1-0.2C406.9,26.2,406.9,25.9,407,25.8z"/>
	<path class="st1" d="M425,26.5c-0.5-0.3-1.3-0.4-2-0.4c-2.4,0-3.8,1.8-3.8,4.5c0,2.6,1.5,4.9,4.4,4.9c0.7,0,1.4-0.2,1.8-0.6
		c0.4-0.3,0.8-0.9,1.2-1.6c0.1,0,0.4,0.1,0.4,0.3c-0.2,0.7-0.9,2-1.3,2.2c-0.5,0.2-1.5,0.4-2.5,0.4c-3.7,0-5.7-2-5.7-5.4
		c0-1.8,0.8-3.6,2.6-4.5c0.9-0.5,1.9-0.8,3.3-0.8s2.5,0.3,3.2,0.3c-0.1,0.6-0.2,1.8-0.3,2.5c-0.1,0.1-0.5,0.1-0.5,0
		C425.9,27.2,425.7,26.8,425,26.5z"/>
	<path class="st1" d="M440,36.1c-0.5,0-1.4,0-2.5,0c-1.2,0-2.1,0-2.5,0c-0.1-0.1,0-0.4,0-0.5c0.5,0,0.9-0.1,1.2-0.2
		c0.5-0.1,0.6-0.4,0.6-1.2c0-1.3,0.1-4.8,0.1-7.5c0-0.1-0.1-0.1-0.1-0.1c-0.3,0-1.5,0-2.1,0c-0.3,0-0.5,0.1-0.7,0.5
		c-0.2,0.3-0.4,0.9-0.6,1.5c-0.1,0-0.5,0-0.5-0.1c0.1-0.7,0.3-2,0.3-2.7c0,0,0.1-0.1,0.2-0.1c0.3,0.1,0.7,0.2,1.3,0.2h6.1
		c0.8,0,1.1,0,1.6-0.2c0,0,0.1,0,0.2,0.1c-0.2,0.6-0.3,1.9-0.4,2.8c0,0.1-0.5,0.1-0.5,0c0-0.6-0.1-1.2-0.3-1.5
		c-0.1-0.3-0.3-0.5-0.6-0.5c-0.8,0-1.9,0-2.3,0c0,0-0.1,0.1-0.1,0.1c0,2.4,0,7,0,7.8c0,0.6,0.2,0.8,0.6,0.9c0.3,0.1,0.5,0.1,1.1,0.2
		C440.1,35.7,440,36,440,36.1z"/>
</g>
</svg>
