<?xml version="1.0" encoding="utf-8"?>
<!-- Generator: Adobe Illustrator 25.2.3, SVG Export Plug-In . SVG Version: 6.00 Build 0)  -->
<svg version="1.1" id="Layer_1" xmlns="http://www.w3.org/2000/svg" xmlns:xlink="http://www.w3.org/1999/xlink" x="0px" y="0px"
	 viewBox="0 0 500 317.2" style="enable-background:new 0 0 500 317.2;" xml:space="preserve">
<style type="text/css">
	.st0{fill:#F1F2F2;}
</style>
<g>
	<g>
		<path class="st0" d="M489.8,164.1c-0.5-1.1-1.1-2.1-1.6-3.2c5.4-3.2,1.1-9.6,0.5-10.7c4.3-3.2-0.5-8.6-2.1-9.6
			c4.3-3.2-1.1-8.6-2.1-9.6c3.2-3.7-3.2-10.2-4.8-11.2c1.1-2.1,0.5-3.7-1.1-5.4c-1.1-1.1-2.1-2.1-3.2-2.7c3.7-4.3-3.7-9.6-5.4-10.2
			c2.1-3.7-5.4-7.5-7.5-9.1c2.1-3.7-5.4-7.5-7.5-9.1c1.1-3.7-5.9-7.5-9.6-9.1c1.1-4.8-8-8-10.2-8.6c0.5-4.3-8.6-7-11.2-7.5
			c0.5-4.3-9.1-7-11.8-7.5c-1.1-4.3-12.9-7.5-14.5-7.5c-1.1-1.6-3.2-3.2-5.9-4.3c-1.6-0.5-3.7-1.1-5.4-1.1
			c-1.1-5.4-12.3-6.4-14.5-6.4c-2.1-3.7-11.8-4.8-14.5-4.8c-1.6-3.7-11.8-4.3-15-4.3c-3.7-3.7-16.1-3.7-18.2-3.7
			c-2.1-1.6-5.4-2.7-8-2.7c-2.7,0-4.8,0-7,0.5c-3.7-4.3-15-3.2-17.1-3.2c-4.3-3.2-13.4-1.6-16.1-1.1c-3.7-3.2-13.9-1.6-16.1-1.1
			c-5.4-3.2-17.1-0.5-18.7,0c-3.2-1.1-5.9-1.1-9.1-1.1c-2.1,0.5-3.7,1.1-5.4,1.6c-5.9-3.2-16.1,0-18.2,1.1
			c-5.9-2.1-13.9,1.1-16.1,2.7c-5.4-2.1-13.9,1.1-16.1,2.7c-7-1.6-16.1,3.2-17.7,4.3c-3.2-0.5-6.4,0-9.1,1.1
			c-1.6,1.1-3.2,1.6-4.3,3.2c-7-1.1-13.4,3.7-15,4.8c-7-1.1-11.8,3.7-13.9,5.4c-6.4-1.1-11.8,4.3-13.9,5.9c-7.5,0-13.4,7-13.9,7.5
			c-3.2,0.5-5.9,1.1-7.5,3.2c-1.1,1.1-2.1,2.1-2.7,3.2c-8,0-11.8,7-12.9,8c-7,1.1-9.1,6.4-9.6,8c-7,0.5-9.1,7-9.6,8
			c-7,1.6-8.6,9.1-9.1,10.2c-2.7,1.1-4.8,2.7-5.4,4.8c-1.1,1.1-0.5,3.2-0.5,4.3C24,101.5,24,109,24,110c-5.9,2.1-5.4,8-4.8,9.6
			c-4.8,3.7-3.2,10.2-2.7,11.8c-5.4,3.2-3.2,10.7-2.7,11.8c-2.1,1.6-3.2,3.2-2.7,5.4c0,1.1,1.1,2.7,1.6,3.2
			c-6.4,3.2-2.7,9.6-1.6,11.2c-4.8,3.2-0.5,8.6,1.1,10.2c-4.8,3.2,0,8.6,1.1,10.2c-3.2,3.7,3.2,10.7,3.7,11.8
			c-0.5,2.1-0.5,4.3,1.1,5.9s3.7,3.2,5.9,4.3l-0.5,0.5c-4.3,4.3,3.2,9.6,5.4,10.7c-2.1,3.7,4.8,7.5,7.5,9.1c-2.7,3.7,5.4,8,7.5,9.1
			c-1.1,4.3,9.1,9.1,10.2,9.6c0.5,2.1,1.6,3.7,3.7,5.4c1.1,1.1,3.2,1.1,4.8,1.6c-1.1,4.8,8.6,8,10.7,8.6c0,4.3,9.1,6.4,11.8,7
			c0,4.3,9.6,6.4,11.8,7c1.6,4.3,13.4,6.4,15.5,7c1.1,1.6,3.2,3.2,6.4,3.7c2.1,0.5,4.8,1.1,7,1.1c1.6,5.4,12.9,5.9,15,5.9
			c2.7,3.7,11.8,4.3,15,4.3c2.1,3.7,12.3,3.7,15,3.7c3.7,3.7,16.1,3.2,18.2,3.2c2.7,1.1,5.4,2.1,8,2.1c2.1,0,3.7,0,5.4-0.5
			c4.3,4.3,15.5,2.7,17.7,2.7c4.8,3.2,13.9,1.1,16.1,1.1c4.3,3.2,13.9,1.1,16.1,0.5c5.9,2.7,17.1-0.5,18.7-1.1
			c3.2,1.1,5.9,1.1,9.1,0.5c2.1-0.5,3.7-1.1,5.4-1.6c5.9,2.1,14.5-1.1,16.6-1.6c5.9,2.1,13.9-1.6,16.1-3.2
			c5.4,2.1,13.9-1.6,16.1-3.2c7,1.1,16.1-3.7,17.1-4.8c3.2,0,6.4-0.5,8.6-1.6c1.6-1.1,3.2-1.6,3.7-2.7c7.5,1.6,13.9-3.7,16.1-5.4
			c7,1.1,11.8-4.3,13.4-5.9c6.4,1.1,11.8-4.8,12.9-6.4c7.5-0.5,12.9-7.5,13.9-8c3.2-0.5,5.4-1.6,7.5-3.2c1.1-1.1,2.1-2.7,2.1-3.7
			c8,0,11.8-7,11.8-8c7-1.1,8.6-6.4,9.1-8.6c6.4-1.1,8.6-7,9.1-8.6c7-1.6,8-9.6,8-10.2c2.7-1.1,4.3-2.7,5.4-4.8
			c0.5-1.1,0.5-2.7,0-3.2c7.5-1.6,7-9.1,7-10.2c5.9-2.1,4.3-8,3.7-9.6c5.9-2.1,4.3-8,3.2-9.6c5.4-3.2,2.1-10.2,1.6-11.8
			C489.2,167.9,490.3,165.7,489.8,164.1z M487.6,147c0,1.1-0.5,1.6-1.6,2.7c-2.1-1.1-9.1-4.8-9.1-9.6c0-1.1,0.5-1.1,0.5-2.1
			c2.7,1.6,5.4,2.7,6.4,3.2S487.6,144.3,487.6,147z M485.5,137.4c0,1.1-0.5,1.1-1.1,1.6c-2.7-1.1-10.7-4.3-10.7-9.1
			c0-1.1,0.5-1.1,1.1-2.1c3.2,2.1,6.4,3.2,7.5,3.2C482.8,131.5,485.5,134.7,485.5,137.4z M478.5,120.8c1.6,1.6,4.3,4.8,4.3,7
			c0,0.5-0.5,1.1-0.5,1.1c-3.2-1.1-11.2-3.7-11.8-10.7c3.2,1.6,7.5,2.1,7.5,2.7H478.5z M476.4,114.3c1.1,1.1,1.1,1.6,1.1,3.2
			c0,0.5-0.5,1.1-0.5,1.6c-3.2-1.1-11.8-3.2-11.8-9.6V109C467.8,110,474.2,111.7,476.4,114.3z M467.8,102L467.8,102
			c1.6,1.1,5.4,3.7,5.4,5.9c0,0.5-0.5,1.1-0.5,1.1c-3.2-1.1-13.9-3.2-13.9-9.6c4.3,1.6,8,2.1,8,2.1L467.8,102z M467.3,99.3
			c0,0.5-0.5,1.1-0.5,1.1c-3.2-0.5-13.9-3.2-14.5-9.1c3.2,1.1,6.4,1.1,7.5,1.6C460.9,92.9,467.3,95.6,467.3,99.3z M459.8,90.2
			c0,0.5-0.5,0.5-0.5,1.1c-3.2-0.5-15-2.7-16.1-8.6c3.7,1.1,7.5,1.6,8.6,1.6C453.4,84.3,459.8,87,459.8,90.2z M443.2,75.2
			c3.2,1.6,8,4.3,8,7c-3.2-0.5-13.4-2.1-18.2-8C437.8,75.2,442.7,75.2,443.2,75.2z M433.6,67.2h0.5l0,0c2.7,1.1,8,3.2,8,6.4
			c0,0,0,0,0,0.5c-3.2,0-15-1.1-18.2-7.5C429.3,67.2,433,67.2,433.6,67.2z M431.9,65.1L431.9,65.1c-3.2,0.5-15-0.5-18.2-5.9
			c3.7,0.5,7,0,7.5,0C422.8,59.2,431.9,61.3,431.9,65.1z M420.7,57.6L420.7,57.6c-3.2,0.5-16.1,0.5-19.3-5.4c4.3,0.5,7.5,0,9.1,0
			S420.7,54.4,420.7,57.6z M397.1,45.3l1.1-0.5c3.7,1.1,9.6,3.2,11.2,5.4c-3.2,0.5-12.9,0.5-20.3-4.8
			C393.4,45.8,397.1,45.3,397.1,45.3z M389.6,39.9c2.1,1.1,3.7,2.1,5.4,3.2c-3.2,0.5-12.9,1.1-18.7-3.7
			C378.9,39.9,384.8,38.8,389.6,39.9z M370.4,33.5l1.1-0.5l0,0c3.2,0.5,9.6,1.6,11.2,4.3c-3.2,0.5-13.9,2.1-20.3-3.2
			C366.6,34,370.4,33.5,370.4,33.5z M355.4,28.7c1.1,0,11.2,0,12.9,3.7c-3.2,1.1-14.5,2.1-19.8-2.1
			C351.6,29.2,354.8,28.7,355.4,28.7z M353.2,27.1c-3.2,1.1-14.5,3.2-20.9-1.1c4.3-0.5,7.5-1.6,8.6-2.1
			C342.5,23.8,352.2,24.4,353.2,27.1z M324.9,20.6l1.1-0.5c4.3,0,10.7,1.1,13.4,3.2c-3.2,1.1-11.8,3.2-21.4,0
			C321.6,22.2,324.9,20.6,324.9,20.6z M314.7,17.4c2.7,0,4.8,1.1,7,2.7c-3.2,1.1-11.8,3.7-19.8,0.5C304.5,19,309.9,16.9,314.7,17.4z
			 M292.2,15.3l1.1-0.5l0,0c3.2-0.5,9.6-0.5,12.9,1.6c-3.2,1.1-12.9,4.8-20.9,1.6C289,16.9,291.7,15.3,292.2,15.3z M275.1,14.2
			c1.1-0.5,10.7-2.1,13.9,1.1c-3.2,1.1-11.8,5.4-20.3,2.1C271.9,15.8,274,14.2,275.1,14.2z M259,12.6c1.1-0.5,10.2-2.1,13.9,0.5
			c-2.7,1.6-11.8,6.4-20.3,3.2C255.8,15.3,258.5,13.7,259,12.6z M241.9,13.1L241.9,13.1c4.3-1.1,11.2-2.1,14.5-1.1
			c-2.1,1.6-9.1,5.4-20.3,4.8C239.7,15.3,241.9,13.1,241.9,13.1z M231.2,12.1c2.7-0.5,5.4,0,7.5,1.1c-2.1,1.6-8.6,5.9-18.2,4.8
			C222.1,16.4,225.8,13.1,231.2,12.1z M209.2,14.7L209.2,14.7L209.2,14.7c3.2-1.1,9.6-3.2,13.4-1.1c-2.1,1.6-9.1,7.5-18.7,5.9
			C207.1,16.9,209.2,14.7,209.2,14.7z M192.6,16.9c1.1-0.5,8.6-4.3,13.9-2.1c-1.6,1.6-8,7.5-17.7,6.4
			C191,19.6,192.1,17.4,192.6,16.9z M176.5,19.6c1.1-0.5,8.6-4.3,12.9-2.7c-1.1,1.6-7.5,8.6-17.7,7.5
			C175.5,22.2,176.5,20.1,176.5,19.6z M161,22.8c3.2-1.6,9.1-3.7,13.4-3.2c-1.1,1.6-5.4,7.5-16.1,8.6C160,25.5,161,23.3,161,22.8
			L161,22.8z M146.6,27.6L146.6,27.6c1.1-1.1,2.1-2.1,3.7-2.7c2.1-1.1,4.8-1.1,7.5-1.1c-1.1,2.1-4.3,7.5-13.9,8
			C146,29.7,146.6,27.6,146.6,27.6z M132.1,32.4L132.1,32.4L132.1,32.4c1.6-1.6,6.4-4.8,10.7-4.3c-2.1,2.7-2.7,5.4-2.7,5.4l0,0
			c-2.1,2.1-5.4,4.3-10.7,4.8C131.6,35.1,132.1,32.9,132.1,32.4z M117.7,38.3c0.5-1.1,5.4-5.9,11.8-5.4c-1.1,2.1-3.7,9.1-12.9,9.6
			C117.7,41,117.7,38.8,117.7,38.3z M104.3,44.2c1.1-1.1,5.4-5.9,10.7-5.4c-0.5,2.1-2.1,9.6-11.8,10.7
			C104.3,46.9,104.3,44.2,104.3,44.2z M91.4,51.2v-1.1c2.1-2.1,6.4-5.4,10.2-5.9c0,2.1-1.1,8-10.2,11.8C92,53.3,91.4,51.2,91.4,51.2
			z M82.3,54.9c1.6-1.1,3.7-2.1,6.4-2.7c0,0.5,0,1.1,0,1.1c0,2.7-1.1,7.5-9.1,9.6c0-0.5,0-1.1,0-2.1C80.2,59.2,80.2,56.5,82.3,54.9z
			 M77,59.2c0,0.5,0,1.1,0,1.6c0,3.2-1.1,8-8,10.2c0.5-3.2-0.5-5.4-0.5-5.4v-0.5l0,0C69.5,63.5,72.1,59.2,77,59.2z M66.3,66.7
			c0,0.5,0.5,1.6,0.5,3.2c0,3.2-1.1,7.5-7,9.6c0-2.1-1.1-4.3-1.1-4.8C58.8,73.1,60.4,67.2,66.3,66.7z M56.1,74.7
			c0.5,1.1,1.1,2.7,1.1,4.8c0,3.2-1.1,5.9-6.4,8c0-2.7-1.1-4.8-1.6-5.4C49.1,81.1,50.7,75.2,56.1,74.7z M46.4,83.3
			c0.5,1.1,1.1,2.7,1.1,4.8c0,2.7-1.1,5.4-4.8,8c-1.1-2.7-2.7-4.8-2.7-4.8l-0.5-0.5C41.1,88.6,43.2,84.3,46.4,83.3z M34.1,97.2
			c1.1-1.6,2.7-2.7,4.8-3.7c1.1,1.1,2.1,3.2,2.1,5.4c0,2.1-1.1,4.3-4.8,6.4c-1.1-1.1-2.7-3.7-2.7-6.4C33.6,98.3,34.1,97.2,34.1,97.2
			z M31.5,102.6c1.1,1.1,2.7,3.7,2.7,7c0,2.1-1.1,4.3-3.2,5.9c-1.1-2.7-3.2-4.8-3.2-5.4h-0.5l0,0C26.6,108.4,27.2,103.6,31.5,102.6z
			 M25.6,112.2c1.1,1.1,3.2,4.3,3.2,7.5c0,1.6-1.1,3.7-3.2,5.4c-1.1-2.1-3.2-3.7-3.7-4.3c0-0.5-0.5-1.6-0.5-3.2
			C21.8,115.4,22.9,113.3,25.6,112.2z M20.7,122.4c1.1,1.1,4.8,4.8,4.8,8c0,1.6-1.1,3.2-3.2,4.8c-1.6-2.7-3.7-4.3-4.8-4.8
			c0-0.5-0.5-1.6-0.5-3.2C17,125.6,18.6,122.9,20.7,122.4z M16.5,132c1.6,1.1,5.4,4.8,5.4,9.1c0,1.1-0.5,2.7-1.1,4.3
			c-2.1-2.7-5.4-3.7-5.4-3.7l-1.1-0.5c-0.5-1.1-0.5-2.1-0.5-3.2C14.3,135.2,14.9,133.6,16.5,132z M14.9,142.7c1.6,1.1,5.9,4.3,5.9,8
			c0,1.1-1.1,2.7-1.6,3.7c-2.1-1.1-6.4-4.3-7-7.5v-0.5C12.2,145.9,13.2,144.3,14.9,142.7z M12.2,152.9c2.1,1.1,7.5,4.8,7.5,9.6
			c0,1.1-0.5,2.1-1.1,3.2c-3.2-2.7-5.9-3.7-5.9-3.7l-1.1-0.5l0,0c-0.5-1.1-1.6-3.2-1.6-4.8C10.6,155,11.1,154,12.2,152.9z
			 M10.6,165.7c0-1.1,0.5-2.1,1.6-2.7c2.1,1.1,8,4.8,8,9.6c0,1.1-0.5,1.6-1.1,2.7c-2.7-1.6-5.4-3.2-5.9-3.2
			C13.2,171.1,10.6,168.4,10.6,165.7z M12.2,175.9c0-1.1,1.1-1.6,1.1-2.1c2.7,1.1,9.6,4.8,9.6,9.6c0,1.1-0.5,1.6-1.1,2.7
			c-2.7-2.7-5.4-3.7-7-3.7C14.3,181.3,12.2,178,12.2,175.9z M18.1,192c-1.6-1.6-3.7-4.8-3.7-7c0-0.5,0.5-1.1,1.1-1.6
			c3.2,1.1,10.7,4.3,11.2,11.8c-3.2-1.6-7-2.7-7.5-2.7L18.1,192z M19.1,198.9c-0.5-1.1-1.1-1.6-1.1-2.7s0.5-1.1,1.1-2.1
			c3.2,1.1,11.2,3.2,11.2,9.6c0,0.5,0,0.5,0,1.1C27.2,203.7,21.8,201.6,19.1,198.9z M29.3,213.4L29.3,213.4
			c-1.6-1.1-5.4-3.7-5.4-5.9c0-0.5,0.5-1.1,0.5-1.1c2.7,0.5,13.4,3.7,13.4,9.6l0,0c-3.7-1.6-8-2.1-8-2.1L29.3,213.4z M29.8,216.6
			c0-0.5,0.5-1.1,0.5-1.1c3.2,0.5,13.9,3.2,13.9,9.6c-3.2-1.1-6.4-1.1-7.5-1.6C36.3,222.5,29.8,219.3,29.8,216.6z M37.3,225.2
			c0-0.5,0.5-0.5,0.5-1.1c3.7,0.5,15.5,2.7,15.5,9.1c-3.7-1.1-7.5-1.6-8.6-1.6C43.2,231.6,37.3,227.8,37.3,225.2z M54.5,240.7h-1.1
			c-3.2-1.6-8-4.8-8-7.5l0,0c3.2,0.5,12.3,1.6,17.1,8C57.7,240.2,54.5,240.7,54.5,240.7z M58.8,246.6c-1.6-1.1-2.7-2.7-3.2-4.3
			c3.2,0,12.9,1.1,16.1,7C68.4,248.7,62.5,248.7,58.8,246.6z M73.7,256.8h-1.1l0,0c-2.7-1.1-8.6-3.2-8.6-5.9l0,0
			c3.2,0,15,1.1,18.2,6.4C78,256.2,73.7,256.8,73.7,256.8z M85.5,263.7c-1.1-0.5-10.7-2.1-10.7-5.4l0,0c3.2,0,15,0.5,18.2,5.4
			C89.8,263.2,86.6,263.7,85.5,263.7z M86.6,265.3c3.2-0.5,16.1-1.1,19.8,5.4c-4.3-0.5-7.5,0-9.1,0.5
			C95.7,270.1,86.6,268.5,86.6,265.3z M111.8,277.1l-1.1,0.5c-3.7-1.1-9.6-2.7-11.2-5.4c3.2-0.5,12.9-1.1,20.3,3.7
			C115,276,111.8,276.6,111.8,277.1z M118.7,281.4c-2.1-0.5-3.7-1.6-5.4-3.2c3.2-0.5,12.3-1.6,18.7,3.2
			C130,281.9,124.1,282.5,118.7,281.4z M139.6,287.8l-1.1,0.5l0,0c-3.2-0.5-9.6-1.1-11.2-3.7c3.7-1.1,13.9-2.1,20.3,2.7
			C143.9,286.7,140.1,287.8,139.6,287.8z M155.1,292.1c-1.1,0-11.2,0-13.4-3.2c3.2-1.1,13.9-2.7,20.3,1.6
			C158.9,291,156.2,291.6,155.1,292.1z M157.3,293.2c3.2-1.1,13.9-3.7,20.9,1.1c-4.3,1.1-7.5,1.6-8,2.1
			C168.5,295.8,158.9,295.8,157.3,293.2z M186.7,299.1l-1.1,0.5c-4.3,0-11.2-0.5-13.9-2.7c3.2-1.1,11.8-3.2,21.4-1.1
			C189.4,297.4,186.7,299.1,186.7,299.1z M196.4,301.7c-2.7,0-4.8-1.1-7-2.1c3.2-1.1,11.2-4.3,19.8-1.1
			C207.1,299.6,201.7,301.7,196.4,301.7z M218.8,303.3l-1.1,0.5l0,0c-3.2,0.5-9.6,1.1-12.9-1.1c3.2-1.1,12.3-5.4,20.3-2.1
			C221.5,301.7,218.8,303.3,218.8,303.3z M235.4,303.9c-1.1,0.5-10.2,2.7-13.9-0.5c2.7-1.1,11.8-5.4,20.3-3.2
			C238.1,302.3,236,303.9,235.4,303.9z M251.5,304.9c-1.1,0.5-10.2,2.7-13.9,0c2.1-1.6,11.2-7,20.3-3.7
			C254.7,302.3,252.6,303.9,251.5,304.9z M268.6,303.9L268.6,303.9c-4.3,1.1-10.7,2.1-13.9,1.1c2.1-1.6,9.1-5.4,19.8-5.4
			C270.8,301.7,268.6,303.9,268.6,303.9z M284.2,302.8L284.2,302.8c-1.6,1.1-3.2,1.6-4.8,1.6c-2.7,0.5-5.4,0-7.5-0.5
			c1.6-1.6,7.5-5.9,16.6-5.4C285.8,300.7,284.2,302.8,284.2,302.8z M300.2,300.7L300.2,300.7L300.2,300.7c-2.7,1.1-8,3.2-12.3,2.1
			c3.2-2.1,4.8-4.3,4.8-4.3l0,0c3.2-1.6,7.5-3.2,12.3-2.1C301.8,298.5,300.2,300.7,300.2,300.7z M316.8,298c-1.1,0.5-8,4.8-13.4,2.7
			c1.6-1.6,7.5-7.5,17.1-7C318.4,295.3,316.8,297.4,316.8,298z M331.8,295.3c-1.1,0.5-8,4.3-12.3,3.2c1.1-1.6,6.4-8.6,16.6-7.5
			C333.4,292.6,332.4,294.8,331.8,295.3z M347.9,291v1.1c-3.2,1.6-8.6,4.3-12.9,3.7c1.1-1.6,4.8-7.5,15.5-9.1
			C348.4,288.3,347.9,290.5,347.9,291z M358.1,288.9c-2.1,1.1-4.8,1.1-7.5,1.1c1.1-2.1,3.7-7.5,13.9-8.6
			C363.9,283,362.3,286.7,358.1,288.9z M376.3,281.9c-1.6,1.1-6.4,4.8-11.2,4.3c1.1-2.1,3.7-9.1,13.4-9.6
			C376.8,278.7,376.3,281.4,376.3,281.9L376.3,281.9L376.3,281.9z M390.7,275.5c-0.5,1.1-5.4,6.4-11.2,5.4
			c0.5-2.1,3.2-9.1,11.8-10.2C390.7,272.8,390.7,274.4,390.7,275.5z M403.6,269.6c-1.1,1.1-5.4,5.9-10.2,5.4
			c0-2.1,1.1-9.6,11.2-11.2C403,266.4,403,268.5,403.6,269.6z M406.2,268.5C406.2,268,406.2,268,406.2,268.5c0-2.7,1.1-8,9.6-11.8
			c-0.5,2.7,0,5.4,0.5,5.4l0.5,0.5C413.7,264.8,410,268,406.2,268.5z M423.9,257.8c-1.1,1.1-3.2,2.1-6.4,2.7c0-0.5,0-1.1,0-1.6
			c0-2.7,1.6-7,8.6-9.1c0,1.1,0.5,1.6,0.5,3.2C426.6,254.1,426.1,256.2,423.9,257.8z M429.3,252.5c0-0.5-0.5-1.1-0.5-2.7
			c0-3.2,1.1-7.5,7.5-9.6c0,3.2,1.1,5.4,1.1,5.4l0.5,0.5l0,0C436.8,248.2,434.1,252.5,429.3,252.5z M436.8,239.6L436.8,239.6
			c-6.4,1.1-9.1,4.8-9.6,8h-0.5c-5.9,1.6-9.1,4.3-10.2,7l0,0c-5.9,2.1-9.6,5.4-11.2,7.5v-0.5c-7.5,0.5-10.7,3.7-12.9,7
			c-6.4,0.5-10.2,3.2-12.9,5.9v-0.5c-6.4,0.5-10.2,2.7-12.9,5.4h-1.1c-7,0-10.7,2.1-13.9,4.3l0,0c-7,1.1-11.8,2.7-14.5,5.4v-0.5
			c-7-1.1-11.8,1.1-16.1,3.2c-6.4-1.1-11.8,1.1-15.5,3.2v-0.5c-6.4-1.1-11.8,0.5-16.1,2.7c-5.9-1.1-10.7,0-13.9,1.1l0,0
			c-7-1.1-12.3,0-16.6,1.1l0,0c-5.9-2.7-11.8-1.6-16.6,0c-5.4-2.1-11.8-1.6-16.1-0.5l0.5-0.5c-5.4-2.1-10.7-2.1-15.5-1.1l-0.5-0.5
			c-5.4-2.7-10.7-2.7-15-2.1l0,0c-5.9-2.1-11.8-2.7-16.1-2.1h0.5c-4.3-3.2-10.2-3.7-16.1-3.2c-3.2-3.2-9.6-3.7-14.5-3.7l1.1-0.5
			c-3.7-3.2-9.6-4.3-15-4.3l-0.5-0.5c-3.2-3.2-8.6-4.8-12.9-5.4l0,0c-4.3-3.2-9.6-4.8-13.9-5.4h0.5c-2.1-4.3-7.5-5.9-12.9-6.4
			c-2.1-3.7-7-5.9-11.8-7h1.1c-1.6-3.7-5.9-5.9-10.7-7v-0.5c-1.1-3.7-5.4-6.4-9.6-7.5l0,0c-2.1-3.7-6.4-6.4-10.2-8h0.5
			c0.5-4.3-3.7-7.5-8.6-9.1c0.5-4.3-3.2-7-7.5-9.1h1.1c0.5-4.8-3.7-8-8.6-9.6l0,0c1.1-4.3-1.1-7.5-3.7-9.6l0,0
			c0.5-4.3-2.1-7.5-4.8-9.6H24c3.2-3.7,1.1-7.5-2.7-10.2c3.2-3.7,1.1-7.5-1.6-9.6l1.1,0.5c2.7-3.2,1.6-7-0.5-9.6l0.5-0.5
			c3.2-3.2,3.2-7,1.1-9.6l0,0c3.2-3.7,2.7-7.5,1.1-10.2h0.5c5.4-3.2,5.4-7,3.2-10.2c4.8-3.2,5.4-6.4,4.3-9.6l0.5,0.5
			c5.4-3.2,5.4-7,4.8-9.6l0.5-0.5c5.4-2.7,6.4-5.9,6.4-8.6l0,0c4.8-3.2,6.4-6.4,7-9.6l0,0c6.4-1.6,8.6-5.4,9.1-9.1
			c5.9-1.6,8.6-5.4,9.6-8l0.5,0.5c5.9-1.6,8.6-4.8,9.6-7.5h1.1c6.4-1.1,9.6-4.3,11.2-7l0,0c6.4-1.6,9.6-4.8,11.8-7.5l0,0
			c7.5-0.5,11.2-3.2,13.4-6.4c7-0.5,10.7-3.2,13.4-5.4v0.5c7-0.5,11.2-3.2,13.9-5.4c5.9,0,10.2-1.6,13.4-3.7l0,0
			c7-0.5,11.8-2.7,15-4.8v0.5c7,1.1,12.3-1.1,16.1-3.2c6.4,1.1,11.8-0.5,16.1-2.7l-0.5,0.5c5.9,1.1,11.2,0,15.5-1.6h0.5
			c6.4,1.1,11.8,1.1,15.5-1.1l0,0c7,1.1,12.3,0.5,16.6-1.1l0,0c5.9,2.7,11.8,2.1,16.6,0.5c5.4,2.7,11.8,2.1,16.1,1.1l-0.5,0.5
			c5.4,2.7,11.8,2.7,16.6,1.1l0.5,0.5c5.4,2.7,10.2,3.2,15,2.7l0,0c5.4,2.7,11.8,3.2,16.1,2.7h-0.5c3.7,3.7,10.2,4.3,15.5,3.7
			c1.1,3.2,7,4.3,11.8,4.3h-0.5c3.2,3.2,8.6,4.3,13.4,4.8l0.5,0.5c3.2,3.2,8,5.4,12.3,5.4l0,0c3.7,3.2,9.1,5.4,13.9,5.9h-0.5
			c1.6,4.3,7.5,6.4,12.3,7c1.6,3.7,6.4,5.9,11.8,7.5h-1.1c1.1,3.2,4.8,5.4,8.6,7h-0.5c2.1,4.3,7,7,11.2,8c0,4.3,4.3,7.5,8.6,9.1l0,0
			c-0.5,4.3,3.2,7,7.5,9.1h-1.1c-0.5,3.7,2.7,7,6.4,8.6v0.5c-1.1,4.3,1.6,7,4.8,9.1l0,0c0,4.3,2.7,7.5,5.4,9.6h-0.5
			c-3.2,4.3-0.5,7.5,3.2,10.2c-2.1,3.2-1.1,6.4,1.6,9.1c-2.7,3.7-1.1,7,1.1,9.6l0,0c-3.2,3.7-2.1,7-0.5,9.6l0,0
			c-2.7,3.7-1.6,7.5-0.5,10.2h-0.5c-4.8,3.2-4.3,7-2.7,10.2c-4.3,3.2-4.8,7-3.2,9.6l-0.5-0.5c-4.3,3.2-5.4,5.9-4.3,9.1l-0.5,0.5
			c-4.8,3.2-5.9,5.9-5.9,8.6l0,0c-4.8,3.2-5.9,6.4-5.9,9.6l0,0c-6.4,2.1-8,5.4-8,9.1C439.4,232.7,437.3,235.9,436.8,239.6z M440,245
			c-0.5-0.5-0.5-1.6-0.5-3.2c0-3.2,1.1-6.4,6.4-8.6c0.5,2.1,1.1,4.3,1.6,4.8C446.9,238,445.3,244.4,440,245z M449.1,236.4
			c-0.5-1.1-1.1-3.2-1.1-5.4c0-2.7,1.1-5.4,5.9-7.5c0.5,2.7,1.6,4.8,2.1,5.4C455.5,230,453.9,235.9,449.1,236.4z M457.6,227.8
			c-0.5-1.1-1.6-2.7-1.6-5.4c0-2.1,1.1-5.4,3.7-7.5c1.1,2.7,3.2,4.8,3.2,4.8l0.5,0.5C463,223,461.4,226.8,457.6,227.8z M469.4,214.5
			c-0.5,1.6-2.1,2.7-4.3,3.7c-1.1-1.1-2.7-3.2-2.7-5.9c0-2.1,1.1-4.3,4.3-5.9c1.1,1.1,3.2,3.7,3.2,6.4
			C469.4,212.8,469.4,213.9,469.4,214.5z M471.6,209.1c-1.1-1.1-3.2-4.3-3.2-7.5c0-1.6,1.1-3.7,3.2-5.4c1.6,3.2,3.7,4.8,3.7,4.8
			l0.5,0.5l0,0c0,0.5,0,0.5,0,1.1C476.4,204.3,475.3,208,471.6,209.1z M476.4,199.5c-1.1-1.1-3.7-4.3-3.7-7.5c0-1.6,1.1-3.2,2.7-4.8
			c1.6,2.1,3.2,3.2,4.3,4.3c0,0.5,1.1,2.1,1.1,3.7C480.7,196.8,479.1,198.4,476.4,199.5z M480.7,189.3c-1.6-1.1-5.4-4.8-5.4-8
			c0-1.6,1.1-3.2,2.7-4.3c1.6,2.7,4.3,4.3,5.4,4.8c0,0.5,1.1,2.1,1.1,3.7C483.9,186.6,482.8,188.8,480.7,189.3z M484.4,179.7
			c-1.6-1.1-5.9-4.8-5.9-9.6c0-1.1,0.5-2.1,1.1-3.2c2.7,2.1,5.4,3.7,5.4,3.7l1.1,0.5c0.5,1.1,1.1,2.7,1.1,4.3
			C486,177,485.5,178.6,484.4,179.7z M485,168.9c-2.1-1.1-6.4-4.3-6.4-8c0-1.1,1.1-2.1,1.1-3.2c1.6,1.6,3.7,3.2,5.4,3.2
			c1.1,1.1,2.1,2.1,2.1,3.2c0,0.5,0,0.5,0,1.1C487.1,166.3,486,167.3,485,168.9z M487.1,159.3c-1.6-1.6-3.7-3.2-5.4-3.7
			c-1.6-1.6-3.2-3.2-3.2-5.9c0-1.1,0.5-1.6,1.1-2.7c3.2,2.7,6.4,3.7,6.4,3.7l1.1,0.5l0,0c1.1,1.1,1.6,3.2,1.6,5.4
			C488.7,157.7,487.6,158.8,487.1,159.3z"/>
		<path class="st0" d="M155.7,247.7c0.5-0.5,0.5-0.5,1.1-1.1c2.7-2.1,5.4-5.4,8.6-7.5l0,0c1.1-1.1,1.6-1.1,2.7-2.1l0,0
			c4.8-4.8,10.2-9.6,16.1-15l0.5-0.5l0,0c22.5-20.3,48.7-45.5,64.3-60.5c0.5-0.5,1.1-1.1,1.1-1.1c7-6.4,11.2-10.2,11.2-10.7
			c0.5,0.5,5.4,4.8,12.3,10.7l0,0c1.1,1.1,2.7,2.1,3.7,3.2l0,0c16.6,14.5,40.2,35.3,40.2,35.3l17.1-16.1c0,0-1.1-1.1-2.7-2.7
			l-12.3,11.8l17.1-16.1c0,0-12.3-10.7-25.7-22.5h-3.2v-2.7c-1.1-1.1-2.7-2.1-3.2-3.2l0,0l0,0c-9.1-7.5-17.7-15-22-18.7
			c3.2-3.2,7.5-7,12.3-11.2l0,0l0,0c6.4-5.9,13.9-12.3,20.3-18.2l0,0c1.1-1.1,1.6-1.6,2.7-2.1l0,0c5.4-5.4,10.2-9.6,13.4-11.8
			l0.5-0.5c0.5-0.5,0.5-0.5,1.1-1.1c0,0,0,0,0.5-0.5c1.1-1.1,1.1-1.1,1.1-1.1l-3.2-2.7c-0.5,0-0.5,0.5-1.1,1.1l0,0l-0.5,0.5
			c-8,7.5-23,20.3-34.8,31.1l0,0c-0.5,0.5-1.1,1.1-1.6,1.6l0,0c-5.9,5.4-10.7,9.6-12.9,11.8c2.1-2.1,7-6.4,12.9-11.8l0,0
			c1.1-0.5,1.1-1.1,2.1-1.6c0,0,0,0-0.5,0c10.7-9.6,24.6-22.5,33.2-30l0.5-0.5c0.5-0.5,1.1-1.1,1.1-1.1l0,0c3.2-3.2,5.9-5.4,5.9-5.4
			l-2.1-1.6l0,0l-3.2-2.1l0,0l-5.4-3.7l0,0l-0.5-0.5l-8-7l-1.1,1.1l0,0l0,0c0,0-25.7,23.6-41.8,38.6c-1.1,1.1-2.1,1.6-3.2,2.7l0,0
			c-5.4,5.4-9.6,8.6-9.6,9.1c-0.5-0.5-4.3-3.2-9.6-7.5l0,0l0,0l0,0c-0.5-0.5-1.1-1.1-1.6-1.1c-1.1-1.1-2.1-1.6-3.2-3.2l0,0
			c-6.4-5.4-13.9-11.8-20.9-17.7l0,0l-0.5-0.5c-3.7-3.2-7.5-5.9-10.2-8.6l0,0L214,72c0,0,0,0-0.5,0c-4.3-3.2-7.5-6.4-9.1-7.5
			c-0.5,0-0.5-0.5-0.5-0.5l0,0l-17.1,13.9c0,0,1.1,1.1,3.2,2.7l-5.4,4.3c0,0,1.1,1.1,3.2,3.2l0,0c1.6,1.1,3.2,3.2,5.9,5.4
			c13.4,11.8,36.9,32.1,45.5,39.6c1.1-1.1,1.6-1.6,2.7-2.7c-5.4,5.4-20.3,18.7-36.9,34.3l0,0l0,0c-2.1,2.1-4.8,4.3-7,6.4
			c-0.5,0.5-1.1,1.1-1.1,1.1l0,0c-9.6,9.1-20.3,18.2-28.9,27.3l0,0c-1.1,1.1-1.6,1.6-2.7,2.1l0,0c-7.5,6.4-13.9,12.9-19.3,18.2l0,0
			c-1.1,1.1-1.6,1.1-2.1,2.1l0,0c-8,7.5-13.4,12.3-13.4,12.3l5.9,5.4l0,0l13.4,10.7l-13.4-10.7l0,0l-3.2-2.7l-0.5,0.5l0,0
			c-3.2,2.7-4.8,4.3-4.8,4.3l19.8,16.1C147.1,255.1,150.3,252.5,155.7,247.7L155.7,247.7C155.1,247.7,155.7,247.7,155.7,247.7z
			 M280.4,127.2c-1.1-0.5-1.1-1.1-1.1-1.1C279.4,126.6,279.9,127.2,280.4,127.2z M232.8,117C232.8,117,233.3,117,232.8,117
			C233.3,117,232.8,117,232.8,117z M238.7,122.4c1.1,1.1,2.7,2.1,3.2,3.2c0.5,0.5,1.1,0.5,1.1,1.1c-0.5-0.5-0.5-0.5-1.1-1.1
			C241.3,124.5,240.3,123.4,238.7,122.4z M244,126.6c0,0-1.1,0.5-1.6,1.1C242.9,127.2,244,126.6,244,126.6z M149.2,244.4
			c-1.6-1.1-13.4-10.7-15-12.3c2.1-2.1,114-106,114-106S193.1,79,191,76.9c2.1-1.6,11.2-9.1,12.3-10.2c1.6,1.1,57.3,47.7,57.3,47.7
			l1.1-1.1c0,0,53-48.2,54.6-49.8c1.6,1.1,12.9,10.2,15,11.8c-2.1,2.1-56.2,50.9-56.2,50.9s54.1,47.1,56.2,48.7
			c-1.6,1.6-11.8,11.2-13.4,12.3c-1.6-1.1-56.2-48.2-56.2-48.2S150.8,243.4,149.2,244.4z"/>
		<path class="st0" d="M329.1,81.7L329.1,81.7L329.1,81.7C328.6,82.2,328.6,82.2,329.1,81.7C328.6,81.7,329.1,81.7,329.1,81.7z"/>
		<path class="st0" d="M232.8,117C232.8,117,233.3,117,232.8,117"/>
		<path class="st0" d="M244,126.6c0,0-1.1,0.5-1.6,1.1"/>
		<path class="st0" d="M238.7,122.4c1.1,1.1,2.7,2.1,3.2,3.2C241.3,124.5,240.3,123.4,238.7,122.4z"/>
		<path class="st0" d="M241.9,125c0.5,0.5,1.1,0.5,1.1,1.1C242.9,125.6,242.4,125.6,241.9,125z"/>
		<path class="st0" d="M103.7,169.5l-3.2,1.6l10.7,9.6l3.2-3.7l-3.2-3.2l13.9-10.2l0,0l4.3-3.2l0,0l9.6-7.5v7.5v3.2V200h4.3v-36.4
			v-3.2v-8.6l16.1,9.6l2.7,1.6l0.5,0.5l0.5,0.5l-3.2,3.7l3.7,2.7l7-6.4l0,0l3.2-3.2l0,0l0.5-0.5l-3.2-2.7l-3.2,3.2l-9.1-4.3l0,0l0,0
			l-13.9-7.5l26.8-20.3l3.2,1.1l3.2-3.7l-9.6-4.8l0,0l-2.7-1.1l-1.1,1.1l-1.6,1.6l3.2,1.6l-24.6,20.3v-38.6l23-5.9l-2.1,5.4l22-13.4
			l0,0l0,0l0,0l0,0l-23-1.1l3.7,4.8l-23.6,5.4v-0.5v-7.5h6.4l-5.4-12.9l-0.5-1.1l-1.1-1.6l0,0l-1.6-3.7l-3.2,6.4l0,0l-0.5,1.1
			l-5.4,11.8h6.4v9.6l-26.8,6.4l-2.1-1.6l0,0l-2.7-1.6l0,0h-0.5L78,113.8l8.6,4.3l-7.5,10.2l13.4-3.2l1.1-0.5l2.7-1.1l0,0l9.6-2.7
			l3.7-5.4l25.2-6.4l0,0l1.6-0.5v3.2v33.2l-15.5-9.1l2.1-3.2l-6.4-5.4c-2.7,0-9.6,5.9-11.8,7.5c-1.6,1.6,0.5,2.1,1.6,3.2
			c1.1,1.1,9.6,0.5,9.6,0.5l18.7,11.2l-18.2,15l0,0l-1.1,1.1l-6.4,7L103.7,169.5z M118.7,134.7c-2.7,0.5-3.7,0.5-3.7-0.5
			c-0.5-1.1,1.1-4.3,1.1-4.3S120.9,133.6,118.7,134.7z"/>
		<polygon class="st0" points="99.4,139.5 96.2,130.9 94.6,130.9 90.9,139.5 88.7,130.9 85,130.9 88.7,142.2 90.9,142.2 94.6,134.1 
			97.3,142.2 99.4,142.2 103.7,130.9 102.1,130.9 		"/>
		<path class="st0" d="M100.5,189.3c1.1-1.1,1.1-1.6,1.1-3.2c0-0.5,0-1.1-0.5-1.1c-0.5-0.5-0.5-1.1-1.1-1.1l-3.2-1.6
			c-0.5,0-0.5-0.5-1.1-1.1c0-0.5-0.5-0.5-0.5-1.1c0-0.5,0.5-1.1,1.1-1.1c0.5-0.5,1.1-0.5,1.1-0.5s1.1,0,1.1,0.5
			c0.5,0.5,1.1,0.5,1.1,1.1h0.5l0.5-1.6c0,0,0,0-0.5-0.5c0,0,0,0-0.5,0s-1.1-0.5-1.1-0.5h-1.1c-1.1,0-2.1,0.5-3.2,1.1
			c-1.1,0.5-1.1,1.1-1.1,2.7c0,0.5,0,1.1,0.5,1.6c0.5,0.5,1.1,1.1,1.1,1.1l3.2,1.1c0.5,0,0.5,0.5,1.1,0.5c0,0.5,0,0.5,0,1.1
			c0,0.5-0.5,1.1-1.1,1.1c-0.5,1.1-1.1,1.1-2.1,1.1c-0.5,0-1.1,0-1.6-0.5c-0.5-0.5-1.1-1.1-1.1-1.1h-0.5v1.1
			c0.5,0.5,0.5,1.1,1.1,1.6c1.1,0,1.1,0.5,2.1,0.5C98.4,190.4,99.4,190.4,100.5,189.3z"/>
		<polygon class="st0" points="173.9,178 180.8,178 180.8,177 176.5,177 176.5,172.7 180.8,172.7 180.8,171.6 176.5,171.6 
			176.5,167.9 180.8,167.9 180.8,166.8 173.9,166.8 		"/>
		<polygon class="st0" points="181.4,110 189.9,118.6 191.5,118.6 191.5,106.8 189.9,106.8 189.9,114.3 181.9,106.8 179.8,106.8 
			179.8,118.6 181.4,118.6 		"/>
		<rect x="327" y="113.3" class="st0" width="3.7" height="1.6"/>
		<rect x="327" y="117.5" class="st0" width="3.7" height="1.6"/>
		<rect x="327" y="121.8" class="st0" width="3.7" height="1.6"/>
		<rect x="327" y="125.6" class="st0" width="3.7" height="1.6"/>
		<rect x="327" y="129.3" class="st0" width="3.7" height="1.6"/>
		<rect x="327" y="134.1" class="st0" width="3.7" height="1.6"/>
		<rect x="360.7" y="110.6" class="st0" width="3.2" height="3.2"/>
		<rect x="360.7" y="115.9" class="st0" width="3.2" height="3.2"/>
		<rect x="360.7" y="120.8" class="st0" width="3.2" height="3.2"/>
		<rect x="360.7" y="125.6" class="st0" width="3.2" height="3.2"/>
		<rect x="360.7" y="130.9" class="st0" width="3.2" height="3.2"/>
		<rect x="360.7" y="135.7" class="st0" width="3.2" height="2.7"/>
		<rect x="354.8" y="96.1" class="st0" width="2.1" height="2.1"/>
		<rect x="354.8" y="90.8" class="st0" width="2.1" height="2.1"/>
		<rect x="354.8" y="86" class="st0" width="2.1" height="2.1"/>
		<rect x="360.7" y="96.1" class="st0" width="2.1" height="2.1"/>
		<rect x="360.7" y="90.8" class="st0" width="2.1" height="2.1"/>
		<rect x="360.7" y="86" class="st0" width="2.1" height="2.1"/>
		<rect x="365.6" y="96.1" class="st0" width="2.1" height="2.1"/>
		<rect x="365.6" y="90.8" class="st0" width="2.1" height="2.1"/>
		<rect x="365.6" y="86" class="st0" width="2.1" height="2.1"/>
		<rect x="354.8" y="80.1" class="st0" width="2.1" height="2.1"/>
		<polygon class="st0" points="310.4,149.7 307.7,149.7 307.7,150.7 307.7,152.9 310.4,152.9 310.4,152.9 		"/>
		<path class="st0" d="M347.9,99.3v39.1h-7.5v-24.6c0,0-9.1-5.4-9.6-5.9c0-1.1,0-10.2,0-10.2H320c0,0,0,0.5,0,1.1c0,1.6,0,3.7,0,5.4
			c0,0.5,0,0.5,0,0.5c-1.1,0-4.8,0-4.8,0v7.5h-13.4l-2.1,1.6v8.6c0,0,3.2,3.2,3.7,3.7c0,1.1,0,13.9,0,13.9h78.7v3.2h-78.7h-1.1v2.1
			c0,0,0.5,0,1.1,0c9.6,0,86.2,0,87.8,0c0,1.1,0,10.2,0,13.9c0,1.1,0,1.6,0,1.6h2.1v-1.6v-16.1h-9.6v-31.1h4.3c0,1.6,0,10.7,0,10.7
			h12.3h1.6v-2.1c0,0-1.1,0-2.1,0c-3.2,0-7.5,0-9.1,0c0-1.6,0-10.7,0-10.7h-13.9v-4.3c0,0-0.5,0-1.1,0V94v-3.7V80.1
			c0,0-9.6,0-11.2,0c0-1.1,0-3.7,0-3.7h-10.2h-5.9l0,0v18.7L347.9,99.3L347.9,99.3z M312,138.4h-6.4c0-1.6,0-13.4,0-13.4
			s-3.2-3.2-3.7-3.7v-6.4c0.5,0,0.5-0.5,1.1-0.5h9.6L312,138.4L312,138.4z M320.6,138.4h-6.4v-23.6h6.4
			C320.6,116.5,320.6,138.4,320.6,138.4z M338.2,138.4h-16.1v-25.7h-5.4v-5.4c1.1,0,4.8,0,4.8,0s0-5.9,0-7.5h6.4c0,1.6,0,9.6,0,9.6
			s9.1,5.4,9.6,5.9v23H338.2z M376.3,112.2c0,0,2.7,0,5.4,0v25.7h-5.4V112.2z M350,77.9h12.3c0,1.1,0,3.7,0,3.7s9.6,0,11.2,0v23.6
			h-5.4c0-1.1,0-3.2,0-3.2h-12.9c0,0,0,3.2,0,4.3H350V77.9z M350,109h7.5c0,0,0-3.2,0-4.3h8.6c0,1.1,0,3.2,0,3.2s6.4,0,8,0v30.5
			h-10.2h-3.2h-10.2L350,109L350,109z"/>
		<rect x="315.8" y="149.7" class="st0" width="3.2" height="3.2"/>
		<rect x="359.1" y="149.7" class="st0" width="3.2" height="3.2"/>
		<rect x="367.7" y="149.7" class="st0" width="3.2" height="3.2"/>
		<rect x="344.7" y="149.7" class="st0" width="3.2" height="3.2"/>
		<rect x="352.7" y="149.7" class="st0" width="3.2" height="3.2"/>
		<rect x="375.2" y="149.7" class="st0" width="3.2" height="3.2"/>
		<rect x="384.3" y="149.7" class="st0" width="3.2" height="3.2"/>
		<polygon class="st0" points="398.7,128.3 398.7,159.8 398.7,162 403,162 403,159.8 403,128.3 		"/>
		<rect x="337.7" y="149.7" class="st0" width="3.2" height="3.2"/>
		<rect x="330.2" y="149.7" class="st0" width="3.2" height="3.2"/>
		<rect x="322.7" y="149.7" class="st0" width="3.2" height="3.2"/>
		<path class="st0" d="M162.6,163.1L162.6,163.1l-1.1-0.5l-2.7-1.6l-3.2-2.1c0,0.5,0,0.5,0,1.1h-12.9v3.2h12.3
			c-0.5,13.4,3.2,25.7,9.6,36.9l0,0c1.1-1.1,1.6-1.6,2.7-2.1l0,0c-5.4-10.7-8.6-22.5-8.6-34.8H162.6L162.6,163.1L162.6,163.1z"/>
		<path class="st0" d="M208.1,159.8h-8.6c0-21.4,4.8-39.6,10.7-54.1c-1.1-1.1-1.6-1.1-2.7-2.1c-6.4,15-11.8,33.2-11.8,56.2h-22.5
			l0,0l-3.2,3.2l0,0h26.2c0,2.7,0,5.4,0.5,7.5l0,0c0.5-0.5,1.1-1.1,1.1-1.1l0,0c0.5-0.5,1.1-1.1,1.6-1.6c0-1.1,0-3.2,0-4.8h5.4l0,0
			l0,0c0.5-0.5,1.1-1.1,1.1-1.1C206.5,160.9,207.1,160.9,208.1,159.8z"/>
		<path class="st0" d="M159.4,136.8c-1.6,5.4-2.7,11.2-3.2,17.1l2.7,1.1l0.5,0.5l0,0l0,0c1.1-7.5,2.7-15.5,4.8-22.5L159.4,136.8z"/>
		<polygon class="st0" points="166.9,159.8 167.4,160.9 168,159.8 		"/>
		<polygon class="st0" points="129.4,159.8 129.4,159.8 125.1,163.1 125.1,163.1 138.5,163.1 138.5,159.8 		"/>
		<path class="st0" d="M328.1,82.2C328.1,82.2,328.6,82.2,328.1,82.2C328.6,81.7,328.6,81.7,328.1,82.2
			C328.6,82.2,328.6,82.2,328.1,82.2c0,0-0.5,0.5-1.1,0.5C327.5,82.2,328.1,82.2,328.1,82.2z"/>
		<path class="st0" d="M302.4,145.9v-2.1h1.1c-1.1-10.2-3.2-20.3-5.9-28.9c-1.1,1.1-1.6,1.6-2.7,2.1l0,0l0,0l0,0
			c2.7,8,4.8,17.1,5.4,26.8c1.1,1.1,2.1,1.6,3.2,3.2l0,0l0,0l0,0c0-0.5,0-1.1,0-1.6C302.9,145.9,302.4,145.9,302.4,145.9z"/>
		<path class="st0" d="M119.8,167.3l-2.7,2.1c2.7,17.1,11.8,35.3,26.8,50.3l0,0c1.1-1.1,1.6-1.1,2.1-2.1l0,0
			C131,202.1,121.9,184.5,119.8,167.3L119.8,167.3z"/>
		<path class="st0" d="M320,99.3c-1.1-1.1-1.1-1.6-2.1-2.7l0,0c-1.1,1.1-1.6,1.6-2.7,2.1l0,0c1.6,1.6,3.2,3.2,4.8,5.4
			C320,103.1,320,100.4,320,99.3z"/>
		<path class="st0" d="M347.9,99.3v-4.3c-4.8-4.3-9.6-8.6-15-12.3l-0.5,0.5c0,0,0,0-0.5,0.5c-0.5,0.5-0.5,0.5-1.1,1.1l-0.5,0.5l0,0
			C336.6,89.2,342.5,94.5,347.9,99.3z"/>
		<path class="st0" d="M162.6,127.7l5.4-4.3l-2.7-1.1C164.2,124,163.2,125.6,162.6,127.7z"/>
		<path class="st0" d="M314.7,94.5c0.5-0.5,0.5-0.5,1.1-1.1c-1.1,1.1-1.6,1.6-2.7,2.1C313.1,95.6,314.2,95.1,314.7,94.5z"/>
		<path class="st0" d="M92.5,125.6h3.2c1.1-1.1,1.1-2.7,2.1-3.7l0,0l-2.7,1.1l-1.1,0.5h-0.5C93.6,123.4,93,125,92.5,125.6z"/>
		<path class="st0" d="M107.5,104.2L107.5,104.2l2.7,1.6l0,0c7.5-7.5,16.1-15,25.7-21.4l2.1-4.3l0.5-1.1l0,0
			C126.2,86.5,115.5,95.1,107.5,104.2z"/>
		<path class="st0" d="M340.4,61.3L340.4,61.3l-4.3-1.1c-26.8-7.5-56.2-11.8-87.8-11.8C141.7,48.5,55,98.3,55,159.3
			c0,38.6,34.8,72.8,87.3,92.6l-2.7-2.7l-5.4-3.7c-43.9-18.7-73.4-48.2-75.5-81.9H85c1.6,28.4,19.8,53.5,47.7,71.7l0,0l0.5-0.5
			l3.2,2.7l0,0l0,0l0,0l-5.9-5.4c0,0,0.5-0.5,1.6-1.6c-16.6-11.8-29.4-25.7-36.9-41.2c-0.5-0.5-0.5-1.1-1.1-1.6
			c-3.2-8-5.9-16.6-6.4-25.2h28.9c0,1.1,0,1.6,0,2.7l1.1-1.1l1.1-1.1l1.1-1.1l0,0l0,0l0,0l3.7-3.2h-3.7c0-0.5,0-0.5,0-1.1
			c0-6.4,1.1-13.4,3.2-20.3l-2.7-1.6l0,0c-2.7,7.5-3.7,14.5-3.2,22c0,0.5,0,0.5,0,1.1H88.2c0-0.5,0-0.5,0-1.1
			c0-4.3,0.5-9.1,1.1-13.4h-3.2c-1.1,4.3-1.1,8.6-1.1,13.4c0,0.5,0,0.5,0,1.1H58.8c0-0.5,0-1.1,0-1.1c0-40.2,39.1-75.5,96.9-93.7
			c0.5,1.1,1.6,2.7,3.2,4.3c-5.4,2.1-10.2,4.8-15,7.5l0,0l1.1,1.6l0.5,1.1V79c5.4-3.2,10.2-5.4,16.1-7.5c1.6,2.1,4.3,4.8,7.5,7.5
			c-7.5,4.8-13.9,10.2-20.3,16.1c-1.6,1.1-3.2,3.2-4.3,4.8v0.5l5.4-1.1c0.5-0.5,1.1-1.1,1.1-1.6c6.4-5.9,12.9-11.8,20.3-16.6
			c4.3,3.2,9.6,6.4,16.1,9.6l-0.5,0.5l0,0l0,0l0,0l0,0c-8.6,7.5-15,16.6-20.3,27.8l1.1-1.1l2.7,1.1l0,0
			c5.4-10.7,11.8-19.8,19.3-27.3c2.7,1.1,5.4,2.1,8.6,3.2c-1.1-1.1-3.2-2.7-4.3-3.2c-2.1-2.1-4.3-3.7-5.9-5.4l0,0
			c-5.4-2.7-10.2-5.4-13.9-8c8.6-5.4,18.2-9.6,27.3-13.4l2.7-2.1l0,0l0.5,0.5l0,0l0,0c10.2-3.2,20.3-5.4,31.1-6.4
			c-7.5,2.7-16.1,7-24.6,12.3c0.5,0.5,1.1,1.1,1.6,1.1c0,0,0,0,0.5,0l0.5,0.5l0,0c9.6-6.4,19.8-10.7,27.8-13.4
			c-4.8,3.7-11.8,10.2-19.3,20.3c0.5,0.5,1.1,1.1,1.6,1.6l0.5,0.5l0,0c9.6-13.4,19.8-20.3,23-22.5v40.2c-1.1,0-1.1,0-2.1,0l0,0
			c1.1,1.1,2.1,1.6,3.2,3.2c0.5,0.5,1.1,1.1,1.6,1.1l0,0l0,0l0,0l0,0l0,0c7,0,13.4-0.5,19.3-1.1l0,0c1.1-1.1,1.6-1.6,3.2-2.7
			c1.1-1.1,1.6-1.1,2.7-2.1c-7.5,1.1-15.5,1.6-24.6,1.6V56c2.1,0,4.3,0,6.4,0.5c3.2,3.2,14.5,14.5,25.2,33.2
			c1.1-1.1,1.6-1.1,2.7-2.1c-7-12.3-14.5-22-19.8-27.3c7.5,3.7,18.2,10.2,28.9,18.7c1.1-1.1,1.6-1.6,2.7-2.7
			c-10.2-8-20.3-14.5-28.4-18.2c12.3,2.1,24.6,5.9,36.4,11.2c1.1-1.1,1.6-1.6,2.7-2.1c-13.9-6.4-28.9-11.2-43.4-12.9
			c17.1,1.1,33.2,3.7,48.2,8l0.5-0.5c1.1-1.1,2.1-2.1,2.1-2.1l0,0l0,0c-17.7-5.4-36.9-8-57.3-9.1c27.3,1.1,53.5,4.8,76.6,11.8
			c-0.5,1.1-1.1,2.1-1.6,3.2c-4.8-1.6-9.6-3.2-15-5.4l5.9,4.8l1.1,1.1l0.5,0.5l0,0c2.1,1.1,4.3,1.1,5.9,2.1
			c-0.5,0.5-1.1,1.1-1.1,1.6l0,0l3.2,2.7l0,0c1.1-1.1,1.1-1.6,1.6-2.7c4.3,1.6,8.6,3.7,12.3,5.4l0,0h6.4c-5.4-3.2-11.2-5.4-17.1-8
			c1.1-1.1,1.1-2.7,2.1-3.7c59.4,18.2,99.6,54.1,99.6,94.8c0,0.5,0,1.1,0,1.1h-24.6c0-0.5,0-0.5,0-1.1c0-26.2-13.9-49.8-38-69.1v3.7
			c9.6,8,18.2,17.1,24.1,26.8c1.1,0,2.1,0,2.1,0v2.1h-1.1c6.4,11.2,9.6,23,9.6,35.9c0,0.5,0,0.5,0,1.1h-7v2.7h-4.3v-1.6h-4.8v1.6
			h-2.1c0,0,0-1.1,0-1.6h-5.4l0,0h-51.9l0,0h-16.1c1.1,1.1,2.7,2.1,3.7,3.2h18.2c-2.1,25.7-18.7,48.2-35.9,65.3
			c-4.8-2.1-9.6-3.7-15.5-5.4c5.4-10.7,10.2-23.6,12.9-38l0,0c-1.1-1.1-1.6-1.6-3.2-2.7c-2.7,15.5-7.5,28.4-13.4,39.6
			c-9.6-2.7-21.4-4.3-34.3-4.3v-55.1h24.6l0,0c-1.1-1.1-2.7-2.1-3.7-3.2l0,0H251v-2.1c-1.1,1.1-1.6,1.6-2.7,2.1
			c-0.5,0.5-1.1,1.1-1.1,1.1c-1.1,1.1-1.1,1.1-2.1,2.1h2.7v54.6c-13.4,0-25.2,1.6-35.9,4.8c-3.2-6.4-5.4-13.4-7.5-20.9l-2.7,3.2
			c2.1,7.5,4.3,13.9,7.5,19.3c-6.4,1.6-11.8,3.7-17.7,5.9c-2.7-2.7-5.4-5.4-8-8l0,0l-0.5,0.5l-0.5,0.5c-0.5,0.5-1.1,1.1-1.6,1.6
			c2.1,2.7,4.8,5.4,7.5,7.5c-6.4,3.2-11.8,5.9-16.6,8.6c-1.6-1.1-3.2-2.1-4.8-3.2l0,0c-1.1,1.1-1.6,1.6-2.7,2.1l0,0
			c1.1,1.1,2.7,1.6,3.7,2.7c-3.2,2.1-5.4,3.7-8,5.4c-1.1-0.5-2.1-1.1-3.2-1.1c-0.5,0.5-1.1,1.1-1.1,1.1c-0.5,0.5-0.5,0.5-1.1,1.1
			l-0.5,0.5l0,0c1.1,0.5,2.1,1.1,3.2,1.1c-1.6,1.1-3.2,2.7-3.7,3.2c-1.1-0.5-2.7-0.5-3.2-1.1c0,0,0,0-0.5,0.5
			c-1.1,0.5-1.1,1.1-1.6,1.6l-0.5,0.5c28.9,10.2,63.2,16.1,99.6,16.1c106.5,0,193.3-49.8,193.3-110.8
			C442.1,117,400.9,80.1,340.4,61.3z M171.2,76.3c-3.2-2.1-5.4-4.3-7-6.4c18.7-7.5,40.2-12.9,62.6-15
			C207.6,58.6,188.3,65.6,171.2,76.3z M162.1,67.2c-1.1-1.1-2.1-2.7-2.7-3.7c24.6-7.5,53-11.8,82.5-12.3
			C212.4,52.2,185.1,58.1,162.1,67.2z M247.2,51.2c0.5,0,1.1,0,1.1,0h0.5C248.3,51.2,247.8,51.2,247.2,51.2z M158.9,254.1
			c1.1-1.1,2.1-1.6,3.2-3.2c17.1,7,36.4,11.8,56.2,13.9C198,263.2,177.6,259.4,158.9,254.1z M165.3,248.7c2.1-1.6,4.8-3.2,7.5-4.8
			c14.5,9.1,31.1,15,47.7,18.2C200.6,260,182.4,255.1,165.3,248.7z M176,242.3c4.8-2.7,9.6-5.4,16.1-8
			c13.4,12.3,27.3,21.4,36.4,26.8C209.7,257.8,192.1,251.4,176,242.3z M195.3,232.7c4.8-2.1,10.2-3.7,16.1-5.4
			c7.5,16.1,17.1,26.8,23.6,33.2C226.9,256.2,210.3,246.6,195.3,232.7z M248.3,261.6c-2.7,0-5.4,0-7.5-0.5
			c-5.9-5.4-17.1-16.6-26.8-35.3c10.2-2.7,21.4-4.3,33.7-4.3L248.3,261.6C247.8,261.6,248.3,261.6,248.3,261.6z M410.5,163.1
			c-2.1,35.3-31.6,66.9-75.5,84.6c-2.1-2.1-4.8-4.3-8-7c8-5.4,16.1-11.8,22.5-18.2c18.7-18.7,30-40.2,31.1-60L410.5,163.1
			L410.5,163.1z M343.6,163.1h34.3c-1.1,18.7-11.8,39.6-30.5,57.3c-7.5,7-15,13.4-23,18.2c-4.8-3.2-10.2-6.4-16.6-9.6
			C324.9,212.3,341.5,189.3,343.6,163.1z M256.9,261.6c-1.6,0-3.2,0-5.4,0.5v-39.6c12.3,0,23,1.6,32.7,3.7
			C274,244.4,262.2,256.8,256.9,261.6z M261.7,261c6.4-6.4,16.6-17.7,25.2-34.3c5.4,1.1,9.6,3.2,13.9,4.8
			C284.2,247.7,266.5,258.4,261.7,261L261.7,261z M304,233.2c6.4,2.7,11.8,5.4,16.1,8.6c-16.1,9.6-33.2,16.1-50.9,18.2
			C277.7,254.6,291.1,246,304,233.2z M322.7,243.9c3.2,2.1,5.4,4.3,7.5,5.9c-17.7,7-37.5,11.2-57.8,13.4
			C290.6,259.4,307.7,253,322.7,243.9z M282.6,264.8c18.2-2.7,35.3-7,49.8-12.9c1.1,1.1,1.6,1.6,2.7,2.7
			C319,259.4,301.8,263.2,282.6,264.8z M339.9,253c-1.1-1.1-1.6-1.6-2.7-3.2c44.4-18.2,74.4-50.3,76.6-86.7h24.6
			C435.7,202.1,397.1,235.9,339.9,253z"/>
		<path class="st0" d="M125.1,131.5l-2.1,3.2l1.1,0.5c3.2-8.6,8-17.1,14.5-25.2v-3.2l-1.6,0.5l0,0c-5.9,7.5-10.7,15-13.9,22.5
			L125.1,131.5z"/>
		<path class="st0" d="M295.4,111.7c-1.1,0.5-1.1,1.1-2.1,1.6l0,0l0,0l0,0C293.8,112.7,294.3,112.2,295.4,111.7
			C295.4,112.2,295.4,112.2,295.4,111.7C295.4,112.2,295.4,112.2,295.4,111.7C295.4,112.2,295.4,111.7,295.4,111.7z"/>
		<path class="st0" d="M329.7,80.6c-0.5,0.5-1.1,1.1-1.1,1.1l0,0l0,0C329.1,81.1,329.1,81.1,329.7,80.6L329.7,80.6L329.7,80.6
			L329.7,80.6L329.7,80.6z"/>
		<path class="st0" d="M49.7,180.2c-0.5-0.5-1.1-1.1-1.1-1.6h-2.1v0.5c1.1,0.5,1.1,1.1,1.6,1.1c0.5,0.5,1.1,1.1,1.1,1.1
			c0.5,1.1,0,2.7-1.1,3.7c-1.1,1.1-2.7,2.1-4.3,2.7c-1.6,0.5-3.2,0.5-5.4,0c-1.6-0.5-2.7-1.1-3.2-2.7c0-0.5,0-1.1,0-1.6
			s0.5-1.1,1.1-1.6v-0.5l-2.7,0.5c0,1.1,0,1.6,0,2.1c0,1.1,0,1.1,0.5,2.1c0.5,2.1,1.6,3.2,3.7,4.3s4.3,1.1,7,0.5
			c3.2-1.1,4.8-2.7,5.4-4.3c1.1-1.6,1.1-3.2,0-4.8C50.2,181.8,49.7,180.7,49.7,180.2z"/>
		<polygon class="st0" points="47.5,171.1 39.5,171.6 38.9,165.7 46.4,165.2 46.4,162.5 29.8,163.6 30.4,167.3 36.8,166.3 
			37.9,171.6 30.9,172.7 31.5,175.9 47.5,173.8 		"/>
		<path class="st0" d="M47,154.5l-7.5-1.1l0,0l7.5-2.7l0.5-3.2l-8.6,3.2c0-1.1-1.1-1.6-1.1-2.1c-1.1-1.1-1.6-1.1-2.7-1.1
			c-1.1,0-2.1,0-3.2,0.5c-1.1,0.5-1.1,1.1-1.1,2.1l-0.5,5.4l16.1,1.6L47,154.5z M37.9,153.4l-6.4-0.5v-1.1c0-0.5,0.5-1.1,1.1-1.1
			c0.5-0.5,1.1-0.5,2.1-0.5c1.1,0,1.6,0.5,2.7,1.1C37.9,151.8,38.4,152.9,37.9,153.4C38.4,153.4,38.4,153.4,37.9,153.4z"/>
		<polygon class="st0" points="49.1,140 33.6,136.3 32.5,139.5 48.6,143.8 		"/>
		<path class="st0" d="M48.6,126.6c-1.1-0.5-1.1-0.5-2.1-0.5c-1.1,0-1.1,0-1.6,0.5l-3.2,2.1c-0.5,0.5-1.1,0.5-1.1,0.5
			c-0.5,0-1.1,0-1.1,0c-0.5,0-1.1-0.5-1.1-1.1c-0.5-0.5-0.5-1.1,0-1.6c0-0.5,0.5-1.1,1.1-1.1c0.5-0.5,1.1-0.5,1.6-0.5c0,0,0,0,0-0.5
			l-1.6-1.1h-0.5c0,0,0,0-0.5,0c-0.5,0.5-1.1,0.5-1.1,1.1c-0.5,0.5-0.5,1.1-1.1,1.1c-0.5,1.1-0.5,2.1,0,3.2c0.5,1.1,1.1,1.6,3.2,2.7
			c1.1,0.5,1.6,0.5,2.7,0.5c1.1,0,1.6-0.5,2.1-0.5l3.2-2.1c0.5,0,1.1-0.5,1.1-0.5c0.5,0,1.1,0,1.1,0.5c0.5,0.5,1.1,1.1,1.1,1.1
			c0.5,0.5,0.5,1.1,0,1.6s-1.1,1.1-1.1,1.1c-0.5,0.5-1.1,0.5-2.1,0.5v0.5l2.7,1.6c1.1-1.1,1.6-1.6,2.1-2.7c0.5-1.1,0.5-2.7,0-3.2
			C51.8,128.3,50.2,127.2,48.6,126.6z"/>
		<polygon class="st0" points="58.2,119.7 45.9,112.7 47.5,110 45.9,109 40.6,117.5 42.2,118.6 44.3,115.4 56.6,122.9 		"/>
		<polygon class="st0" points="64.6,110.6 50.7,101.5 49.1,103.6 62.5,113.3 		"/>
		<path class="st0" d="M67.9,105.8l-2.7-4.3l3.2-3.2l4.8,2.1l2.1-2.7c-3.2-1.1-4.8-2.1-5.4-2.1c-1.6-1.1-3.2-1.1-5.4-2.1
			c-1.6-1.1-3.2-1.6-5.4-2.1l-1.1,1.1l9.1,15L67.9,105.8z M62,95.6l5.4,2.1l-2.1,2.7L62,95.6z"/>
		<polygon class="st0" points="79.6,94.5 71.6,85.4 86.1,88.6 87.1,87.6 76.4,75.8 75.4,76.3 82.3,84.3 68.9,82.2 67.3,82.7 
			78,95.1 		"/>
		<polygon class="st0" points="100,78.5 95.2,69.4 104.3,75.8 105.3,75.8 103.2,64 109.6,73.1 112.3,71.5 102.1,58.6 100.5,59.2 
			102.7,71 93,64 91.4,64.5 98.9,79.5 		"/>
		<polygon class="st0" points="123,65.6 122.5,64 118.7,66.1 115.5,61.3 119.8,59.2 118.7,57.6 115,59.2 112.3,54.9 116.6,53.3 
			116,51.7 109.1,54.9 116.6,69.4 		"/>
		<polygon class="st0" points="124.1,50.1 130,62.9 133.2,61.3 127.3,48.5 130,47.4 129.4,45.8 120.3,49.5 120.9,51.2 		"/>
		<polygon class="st0" points="142.8,57.6 140.1,50.6 146,48.5 148.7,55.4 151.4,54.9 146,39.4 142.8,40.4 145.5,46.3 139.6,48.5 
			137.5,42.1 134.8,43.7 140.1,58.6 		"/>
		<path class="st0" d="M157.8,50.6c1.6,1.1,3.2,1.6,5.4,1.1c2.1-0.5,3.2-1.6,4.3-3.7c1.1-2.1,1.1-4.3,0.5-6.4
			c-1.1-2.1-2.1-3.7-3.7-5.4c-1.6-1.1-3.7-1.1-5.4-1.1c-1.6,0.5-3.2,1.6-4.3,3.7c-1.1,2.1-1.1,3.7-0.5,5.9
			C154.6,47.4,156.2,49,157.8,50.6z M156.7,39.9c0.5-1.6,1.1-2.7,2.7-3.2c1.1-0.5,2.7,0,3.7,1.1s1.6,2.7,2.7,4.3
			c0.5,1.6,1.1,3.2,0.5,5.4c-0.5,1.6-1.1,3.2-2.7,3.2s-2.7,0-3.7-1.6c-1.1-1.1-1.6-2.7-2.1-4.3C156.7,42.6,156.7,41,156.7,39.9z"/>
		<path class="st0" d="M182.4,46.3c1.6-0.5,3.2-1.6,3.2-3.2c0.5-1.6,1.1-3.7,0-5.9c-0.5-2.1-1.1-3.2-2.7-4.8s-3.2-1.6-4.3-1.1
			l-7,0.5l3.2,16.1L182.4,46.3z M178.2,32.4c1.1-0.5,2.1,0,3.2,1.1c1.1,1.1,1.6,2.7,2.1,4.3c0.5,1.6,0.5,3.2,0,4.8
			c-0.5,1.6-1.1,2.7-2.1,2.7l-3.2,0.5l-3.2-12.9L178.2,32.4z"/>
		<polygon class="st0" points="196.4,44.2 193.7,28.1 190.5,28.7 193.1,44.2 		"/>
		<path class="st0" d="M202.3,35.6l3.2,1.6c0.5,0,0.5,0.5,1.1,1.1c0,0.5,0.5,1.1,0.5,1.1c0,1.1,0,1.1-0.5,1.6
			c-0.5,0.5-1.1,1.1-1.1,1.1s-1.1,0-1.6-0.5c-0.5-0.5-1.1-1.1-1.1-1.6h-0.5v3.2c1.1,0.5,2.1,0.5,3.2,0.5c1.1,0,2.7-1.1,3.2-1.6
			c1.1-1.1,1.1-2.7,1.1-4.3c0-1.1-0.5-1.1-0.5-2.1c-0.5-1.1-1.1-1.1-1.1-1.1l-4.3-2.7c-0.5,0-1.1-0.5-1.1-1.1
			c-0.5-0.5-0.5-1.1-0.5-1.1s0-1.1,0.5-1.6c0.5-0.5,1.1-1.1,1.1-1.1c0.5,0,1.1,0,1.1,0.5c0,0.5,1.1,1.1,1.1,1.1h0.5l0.5-2.1
			c0,0,0,0-0.5-0.5c0,0,0,0-0.5,0c-0.5,0-1.1-0.5-1.1-0.5h-1.1c-1.1,0-2.1,1.1-3.2,1.6c-1.1,1.1-1.1,2.1-1.1,3.2s0.5,1.6,1.1,2.1
			C201.2,34.6,201.7,35.1,202.3,35.6z"/>
		<polygon class="st0" points="215.6,27.1 216.7,41.5 220.5,41 218.8,27.1 222.1,26.5 222.1,24.9 212.4,25.5 212.4,27.1 		"/>
		<polygon class="st0" points="245.1,39.9 245.1,37.8 240.3,37.8 240.3,31.9 244.5,31.9 244.5,30.3 240.3,30.8 240.3,25.5 
			244.5,25.5 244.5,23.8 237.6,23.8 237.6,39.9 		"/>
		<path class="st0" d="M253.1,32.9h1.1c1.1,0,2.7-0.5,3.2-1.1c1.1-1.1,1.1-2.1,1.1-3.2s-0.5-2.1-1.1-3.2c-0.5-1.1-1.1-1.1-2.7-1.1
			h-5.4l-0.5,16.1h3.2L253.1,32.9z M253.1,24.9c1.1,0,1.6,0,2.1,0.5c0.5,0.5,1.1,1.1,1.1,2.7c0,1.1-0.5,2.1-1.1,2.7
			c-0.5,0.5-1.1,1.1-2.1,1.1V24.9z"/>
		<polygon class="st0" points="268.1,24.4 264.9,23.8 263.8,39.9 267.6,39.9 		"/>
		<path class="st0" d="M279.4,39.9c1.1-1.1,1.6-2.1,1.6-3.7c0-1.1,0-1.1,0-2.1s-0.5-1.1-1.1-1.6l-3.2-2.7c-0.5-0.5-0.5-0.5-1.1-1.1
			c0-0.5-0.5-1.1,0-1.1c0-0.5,0.5-1.1,1.1-1.1c0.5-0.5,1.1-0.5,1.1-0.5c0.5,0,1.1,0.5,1.1,1.1c0.5,0.5,1.1,1.1,1.1,1.6h0.5l1.1-2.1
			V26c0,0,0,0-0.5,0c-0.5-0.5-1.1-0.5-1.1-1.1c-0.5,0-1.1-0.5-1.1-0.5c-1.1,0-2.1,0.5-3.2,1.1c-1.1,1.1-1.1,1.6-1.6,3.2
			c0,1.1,0,1.6,0.5,2.7c0.5,1.1,1.1,1.1,1.1,1.6l3.2,2.1c0.5,0.5,0.5,0.5,0.5,1.1s0,1.1,0,1.1c0,1.1-0.5,1.1-1.1,1.6
			c-0.5,0.5-1.1,1.1-1.6,0.5c-0.5,0-1.1-0.5-1.6-1.1c-0.5-0.5-1.1-1.1-1.1-1.6h-0.5l-1.1,3.2c1.1,1.1,2.1,1.1,3.2,1.1
			C277.2,41.5,278.3,41,279.4,39.9z"/>
		<path class="st0" d="M291.7,42.6c1.1,0,1.1,0,2.1,0c1.1,0,1.1-0.5,2.1-0.5l1.1-2.1h-0.5c-1.1,0.5-1.1,1.1-1.6,1.1
			c-1.1,0.5-1.1,0.5-1.6,0.5c-1.1,0-2.1-1.1-3.2-2.7c-1.1-1.1-1.1-3.2-1.1-4.8c0.5-1.6,1.1-3.2,2.1-4.8c1.1-1.1,2.1-1.6,3.2-1.6
			c0.5,0,1.1,0.5,1.6,1.1c0.5,0.5,1.1,1.1,1.1,1.6h0.5l1.1-2.1c-1.1-0.5-1.1-1.1-2.1-1.1c-0.5-0.5-1.1-0.5-2.1-0.5
			c-2.1-0.5-3.7,0.5-5.4,1.6c-1.6,1.1-3.2,3.2-3.2,5.9c-0.5,3.2,0,5.4,1.6,7C289,42.1,290.1,42.6,291.7,42.6z"/>
		<path class="st0" d="M307.7,45.3c2.1,0.5,3.7,0,5.4-1.6c1.6-1.1,3.2-3.2,3.2-5.4c0.5-2.1,0-4.3-1.1-6.4c-1.1-1.6-2.7-3.2-4.8-3.2
			c-1.6-0.5-3.7,0-5.4,1.6c-1.6,1.1-3.2,3.2-3.2,5.4c-0.5,2.7,0,4.8,1.1,6.4C304,44.2,306.1,44.7,307.7,45.3z M305.1,36.2
			c0.5-1.6,1.1-3.2,1.6-4.3c1.1-1.1,2.1-1.6,3.2-1.6c1.1,0.5,2.1,1.1,3.2,2.7c0.5,1.1,0.5,3.2,0.5,4.8c-0.5,1.6-1.1,3.2-2.1,4.8
			c-1.1,1.1-2.7,2.1-3.7,1.6c-1.1-0.5-2.1-1.1-2.7-3.2C305.1,39.9,305.1,37.8,305.1,36.2z"/>
		<path class="st0" d="M324.9,41.5l1.1,0.5c1.1,0.5,2.7,0,3.2-0.5c1.1-1.1,1.6-1.6,2.1-3.2c0.5-1.1,0.5-2.1,0-3.2
			c-0.5-1.1-1.1-1.6-2.1-1.6l-5.4-1.1L320,47.9l3.2,1.1L324.9,41.5z M326.5,33.5c1.1,0.5,1.6,0.5,1.6,1.1c0.5,0.5,0.5,1.1,0,2.7
			c-0.5,1.1-1.1,2.1-1.1,2.7c-0.5,0.5-1.1,0.5-2.1,0.5L326.5,33.5z"/>
		<path class="st0" d="M336.6,46.3l4.3,1.1v5.4l3.2,1.1c0-3.2,0-4.8,0-5.4c0-1.6,0-3.2,0-5.4c0-1.6,0-3.7,0-5.4l-1.1-0.5l-10.7,13.4
			l1.6,0.5L336.6,46.3z M340.9,40.4v5.4l-3.2-0.5L340.9,40.4z"/>
		<polygon class="st0" points="356.5,56 352.2,54.9 357,41 354.3,39.9 348.4,54.9 355.4,57.6 		"/>
		<path class="st0" d="M374.1,65.6c1.1,0.5,1.1,0.5,2.1,1.1c1.1,0,1.1,0,2.1,0l1.1-1.6c0,0,0,0-0.5,0c-1.1,0.5-1.6,0.5-2.1,0.5
			c-1.1,0-1.1,0-1.6-0.5c-1.1-0.5-1.6-1.6-2.1-3.2c0-1.6,0-3.2,1.1-4.8c1.1-1.6,2.1-3.2,3.2-3.7c1.1-0.5,2.7-1.1,3.7-0.5
			c0.5,0.5,1.1,1.1,1.1,1.1s0.5,1.1,0.5,2.1h0.5l1.1-2.1c-0.5-0.5-1.1-1.1-1.6-1.6c-0.5-0.5-1.1-1.1-1.6-1.1
			c-1.6-1.1-3.7-1.1-5.4-0.5c-2.1,1.1-3.7,2.1-4.8,4.8c-1.1,2.7-1.1,5.4-0.5,7.5C371.4,64,372.5,65.1,374.1,65.6z"/>
		<polygon class="st0" points="385.4,71.5 389.1,64.5 394.5,67.2 390.7,73.6 393.4,75.8 401.4,61.3 398.7,60.3 395.5,65.6 
			390.2,62.9 393.4,57 391.3,56 382.7,69.4 		"/>
		<path class="st0" d="M400.4,79c0.5,1.1,1.1,2.7,2.7,3.2c1.1,1.1,2.7,1.1,4.3,1.1c1.6-0.5,3.2-1.1,3.7-2.7L417,72l-1.1-1.1l-7,9.1
			c-0.5,1.1-1.1,1.1-2.7,1.6c-1.1,0-1.6,0-2.7-0.5c0,0,0,0-0.5,0c-1.1-0.5-1.1-1.1-1.1-2.1c0-1.1,0.5-1.6,1.1-3.2l6.4-9.1l-2.1-1.1
			l-7.5,9.6C399.8,76.3,399.8,77.9,400.4,79z"/>
		<path class="st0" d="M414.3,90.8l5.4-5.4l0,0l-2.7,7.5l2.7,2.1l2.1-8.6c1.1,0.5,1.6,0.5,2.7,0c1.1,0,1.6-1.1,2.7-1.1
			c1.1-1.1,1.1-1.6,1.1-2.7c0-1.1,0-1.6-1.1-2.1l-4.3-3.7l-11.2,11.8L414.3,90.8z M424.4,80.1l1.1,0.5c0.5,0.5,0.5,1.1,0.5,1.6
			c0,1.1-0.5,1.1-1.1,1.6c-1.1,1.1-1.1,1.1-2.1,1.1c-1.1,0-1.6,0-2.1-0.5c0,0-0.5,0-0.5-0.5L424.4,80.1z"/>
		<path class="st0" d="M425,99.3c0,1.6,1.1,3.2,1.6,4.3c0.5,0.5,1.1,1.1,1.6,1.1c0.5,0.5,1.1,1.1,1.6,1.1l1.6-1.1v-0.5
			c-1.1,0-1.6-0.5-2.1-0.5c-1.1-0.5-1.1-0.5-1.6-1.1c-1.1-1.1-1.1-2.1-0.5-3.7c0.5-1.6,1.1-3.2,2.7-4.3c1.1-1.1,3.2-2.1,4.8-2.1
			c1.6-0.5,3.2,0,3.7,1.1c0.5,0.5,1.1,1.1,1.1,1.6c0,0.5,0,1.1-0.5,2.1l0,0l2.1-1.1c0-1.1-0.5-1.1-1.1-2.1c-0.5-0.5-1.1-1.1-1.1-1.6
			c-1.1-1.6-3.2-2.1-5.4-2.7c-2.1,0-4.3,1.1-6.4,2.7C426.1,94.5,425,96.7,425,99.3z"/>
		<polygon class="st0" points="435.2,112.2 441.6,107.9 444.8,113.3 437.8,117.5 440,119.7 453.4,111.1 451.8,108.4 446.4,112.2 
			443.2,107.4 448.5,103.6 446.9,101.5 433.6,110 		"/>
		<path class="st0" d="M452.3,154.5l16.1,0.5l0.5-0.5c-1.1-1.6-2.1-3.7-3.2-5.4l-1.1,1.1l1.1,2.1l-12.9-1.1L452.3,154.5z"/>
		<path class="st0" d="M464.1,160.4c-1.1,0-1.1,0-2.1,0.5c-0.5,0-1.1,0.5-1.1,1.1c-0.5-1.1-1.1-1.6-1.1-2.1
			c-1.1-0.5-1.1-1.1-2.7-1.1c-1.1,0-2.1,0-3.2,1.1c-1.1,1.1-1.6,1.6-1.6,3.2c0,1.1,0,2.1,1.1,3.2c1.1,1.1,1.6,1.6,3.2,1.6
			c1.1,0,2.1,0,3.2-0.5c1.1-0.5,1.1-1.1,2.1-1.6c0.5,1.1,0.5,1.1,1.1,1.6c0.5,0.5,1.1,1.1,2.1,1.1c1.1,0,2.1,0,3.2-1.1
			s1.1-1.6,1.1-2.7s0-2.1-1.1-3.2C465.7,160.9,465.1,160.4,464.1,160.4z M458.2,165.2c-1.1,0-1.1,0.5-2.1,0c-1.1,0-1.6-0.5-2.7-1.1
			s-1.1-1.1-1.1-1.1c0-0.5,0.5-1.1,1.1-1.1c1.1,0,1.6-0.5,3.2,0c1.1,0,1.1,0.5,2.1,1.1c0.5,0.5,1.1,1.1,1.1,1.1
			C459.3,164.1,459.3,164.7,458.2,165.2z M465.7,165.7c-0.5,0-1.1,0.5-1.6,0c-1.1,0-1.6-0.5-2.1-1.1c-0.5-0.5-1.1-1.1-1.1-1.1
			c0-0.5,0.5-1.1,1.1-1.1c0.5-0.5,1.1-0.5,2.1,0c1.1,0,1.1,0.5,1.6,1.1c0.5,0.5,1.1,1.1,0.5,1.1
			C466.2,165.2,465.7,165.2,465.7,165.7z"/>
		<path class="st0" d="M461.4,179.1L461.4,179.1c-1.6-1.6-3.2-3.2-5.4-4.8c-1.6-1.6-3.2-3.2-4.8-4.8l0,0l-1.1,2.1
			c2.1,1.6,4.3,3.2,6.4,5.4c2.1,1.6,4.3,3.2,5.9,5.4h0.5l2.7-8.6l-3.2-1.1L461.4,179.1z"/>
		<path class="st0" d="M456,182.9c-2.1-1.1-4.3-1.1-5.9-0.5s-3.2,1.1-3.2,2.7c-0.5,1.1,0,2.7,1.1,3.7s3.2,2.1,5.4,2.7
			s3.7,0.5,5.4,0.5c1.6-0.5,3.2-1.1,3.2-2.7c0.5-1.1,0-2.7-1.1-3.7C459.3,184.5,457.6,183.4,456,182.9z M461.4,188.8
			c0,0.5-0.5,1.1-1.1,1.1c-1.1,0-2.1,0-3.7-0.5c-0.5,0-1.1,0-1.1-0.5c-0.5,0-0.5,0-1.1-0.5c-1.6-0.5-2.7-1.1-3.2-1.1
			c-2.7-1.1-3.2-1.6-3.2-2.7c0.5-1.1,1.1-1.1,3.2-1.1c1.1,0,2.7,0.5,4.8,1.1l1.1,0.5c1.6,0.5,2.7,1.1,3.2,1.1
			C460.9,187.7,461.4,188.2,461.4,188.8z"/>
		<path class="st0" d="M117.1,246.6c-0.5-0.5-1.1-1.1-1.6-1.1c-1.6-1.1-3.7-1.6-5.9-1.1s-3.7,1.6-5.4,3.7c-1.6,2.7-2.1,4.8-1.1,7
			c0.5,1.6,1.6,3.2,3.2,3.7c1.1,0.5,1.1,1.1,2.1,1.1c0.5,0.5,1.1,0.5,2.1,0.5l1.6-1.1c0,0,0,0-0.5-0.5c-1.1,0-1.6,0-2.1,0
			c-1.1,0-1.1-0.5-1.6-0.5c-1.1-1.1-1.6-2.1-1.6-3.2c0-1.6,0.5-3.2,1.1-4.8s2.1-2.7,3.7-3.2c1.6-0.5,3.2-0.5,3.7,0s1.1,1.1,1.1,1.1
			c0.5,0.5,0.5,1.1,0.5,2.1l0,0l1.6-1.6C118.2,248.2,117.7,247.1,117.1,246.6z"/>
		<path class="st0" d="M129.4,252.5c-1.6-1.1-3.7-1.1-5.4,0c-2.1,1.1-3.2,2.1-4.8,3.7c-1.1,2.1-1.1,4.3-1.1,6.4
			c0.5,2.1,1.6,3.2,3.2,4.3c1.6,1.1,3.7,1.1,5.9,0c2.1-1.1,3.7-2.1,4.8-4.3c1.1-2.1,1.1-4.3,0.5-5.9
			C132.1,255.1,131,253.5,129.4,252.5z M129.4,261.6c-1.1,1.6-1.6,3.2-3.2,3.7c-1.1,1.1-3.2,1.1-4.3,0.5c-1.1-0.5-1.6-1.6-1.6-3.2
			c0-1.1,0.5-3.2,1.1-4.8c0.5-1.6,1.6-3.2,3.2-3.7c1.1-1.1,2.7-1.1,3.7-0.5c1.1,0.5,2.1,1.6,2.1,3.2
			C131,258.9,130.5,260.5,129.4,261.6z"/>
		<polygon class="st0" points="146.6,271.7 142.8,258.9 140.7,258.4 135.3,273.4 136.4,273.9 140.7,263.2 145,276.6 146,277.1 
			152.5,262.6 150.3,262.1 		"/>
		<polygon class="st0" points="165.3,277.6 160,265.3 158.3,264.8 153.5,279.8 155.1,280.3 158.3,269.6 163.7,282.5 165.3,282.5 
			169.6,267.5 168,267.5 		"/>
		<polygon class="st0" points="172.3,284.6 179.8,286.2 180.3,284.6 176,283.5 177.1,278.2 181.4,278.7 181.9,277.1 177.6,276 
			178.2,271.7 183,272.8 183.5,271.2 176,269.6 		"/>
		<path class="st0" d="M195.3,272.8c-2.1-0.5-3.7,0-5.4,1.1s-3.2,3.2-3.2,5.4c-0.5,3.2,0,5.4,1.6,7c1.1,1.1,2.7,2.1,4.3,2.1
			c1.1,0,1.6,0,2.1,0c1.1,0,1.1,0,2.1-0.5l1.1-1.6h-0.5c-1.1,0.5-1.1,1.1-1.6,1.1c-1.1,0.5-1.1,0.5-1.6,0c-1.1-0.5-2.7-1.1-3.2-2.7
			c-1.1-1.1-1.1-3.2-0.5-4.8c0.5-1.6,1.1-3.2,2.1-4.3s2.7-1.6,3.7-1.1c0.5,0,1.1,0.5,1.6,1.1c0.5,0.5,1.1,1.1,1.1,1.6h0.5l1.1-2.1
			c-1.1-0.5-1.1-1.1-2.1-1.1C196.4,272.8,195.8,272.8,195.3,272.8z"/>
		<polygon class="st0" points="202.8,276 206.5,276 204.9,290 208.1,290.5 209.7,276.6 213,277.1 213.5,275.5 203.3,273.9 		"/>
		<polygon class="st0" points="216.7,291 220.5,291 221.5,276 218.3,275.5 		"/>
		<path class="st0" d="M233.8,276c-2.1,0-3.7,1.1-5.4,2.1c-1.6,1.6-2.1,3.2-2.7,5.4c0,2.7,1.1,4.3,2.1,5.9c1.1,1.6,3.2,2.7,5.4,2.7
			s3.7-1.1,5.4-2.7c1.6-1.6,2.7-3.2,2.7-5.4s-1.1-4.3-2.1-5.9C237.6,276.6,236,276,233.8,276z M237.1,288.9
			c-1.1,1.6-2.1,2.1-3.2,2.1c-1.1,0-2.7-1.1-3.2-2.7c-0.5-1.1-1.1-3.2-1.1-4.8c0-1.6,0.5-3.2,1.1-4.8c1.1-1.1,1.6-2.1,3.2-2.1
			c1.1,0,2.7,1.1,3.2,2.1c1.1,1.1,1.1,3.2,1.1,4.8C238.1,285.7,237.6,287.3,237.1,288.9z"/>
		<polygon class="st0" points="257.4,276 257.9,286.7 248.8,276 247.2,276 247.8,292.1 249.4,292.1 248.8,280.8 257.9,291.6 
			259.5,291.6 259,276 		"/>
		<path class="st0" d="M273.5,280.3c-1.1-1.6-1.1-3.2-2.1-5.4h-1.6l-4.3,16.1h1.6l1.1-4.8l4.8-0.5l1.6,4.8l3.2-0.5
			c-1.1-2.7-2.1-4.3-2.1-5.4C275.1,284.1,274,282.5,273.5,280.3z M268.6,284.6l1.1-5.4l2.1,5.4H268.6z"/>
		<polygon class="st0" points="286.8,287.8 284.7,273.9 282,273.9 283.6,290 291.1,288.9 291.1,286.7 		"/>
		<polygon class="st0" points="315.8,269.6 313.1,280.3 306.7,271.2 305.1,271.2 306.1,286.7 307.7,286.7 306.7,276 312.5,285.7 
			313.6,285.7 316.3,274.4 319,284.6 322.2,284.1 317.4,269.1 		"/>
		<path class="st0" d="M332.9,270.1c-1.1-1.6-2.1-3.2-3.2-4.8l-1.6,0.5l-1.1,16.6l1.6-0.5v-4.8l4.8-1.1l2.7,4.3l3.2-1.1
			c-1.6-2.7-2.7-3.7-3.2-4.8C335,273.9,334,271.7,332.9,270.1z M329.1,276l0.5-5.4l3.2,4.8L329.1,276z"/>
		<path class="st0" d="M349.5,266.9c0.5-1.1,0.5-1.6,0-2.7c-0.5-1.1-1.1-1.6-1.6-2.1c-1.1-0.5-1.6-1.1-2.7-0.5l-5.4,1.6l4.8,15
			l3.2-1.1l-2.1-7l0,0l5.4,5.4l3.2-1.1l-6.4-5.4C348.4,268.5,349,267.5,349.5,266.9z M346.8,267.5c-0.5,1.1-1.1,1.1-1.6,1.6h-0.5
			l-2.1-5.9l1.1-0.5c0.5,0,1.1,0,1.6,0.5c0.5,0.5,1.1,1.1,1.1,1.6C346.8,266.4,346.8,267.5,346.8,267.5z"/>
		<path class="st0" d="M361.3,263.2c0.5-2.7,1.1-5.4,2.1-7.5v-0.5l-2.1,1.1l-2.1,8l-2.7-7l-3.2,1.1l5.9,14.5l3.2-1.1l-2.7-7l6.4,5.4
			l3.2-1.1v-0.5L361.3,263.2z"/>
		<polygon class="st0" points="376.3,264.8 374.1,258.9 378.4,257.3 377.3,256.2 373.6,257.8 371.4,253.5 375.7,251.9 374.7,250.3 
			367.7,253 374.1,267.5 381.1,264.3 380.5,262.6 		"/>
		<path class="st0" d="M389.6,249.8c0-1.1,0-1.6-0.5-2.7c-0.5-1.1-1.1-1.6-2.1-2.1c-1.1-0.5-1.6-0.5-2.7,0l-5.4,3.2l7.5,13.9
			l2.7-1.1l-3.2-6.4l0,0l7,4.8l3.2-1.6l-7.5-4.8C389.1,251.4,389.1,250.3,389.6,249.8z M385.9,252.5
			C385.4,253,385.4,253,385.9,252.5l-3.2-5.4l1.1-0.5c0.5-0.5,1.1-0.5,1.6,0c0.5,0.5,1.1,1.1,1.1,1.1c0.5,1.1,1.1,1.6,0.5,2.7
			C387,251.9,386.4,252.5,385.9,252.5z"/>
	</g>
</g>
</svg>
