<?xml version="1.0" encoding="utf-8"?>
<!-- Generator: Adobe Illustrator 25.2.3, SVG Export Plug-In . SVG Version: 6.00 Build 0)  -->
<svg version="1.1" id="Layer_1" xmlns="http://www.w3.org/2000/svg" xmlns:xlink="http://www.w3.org/1999/xlink" x="0px" y="0px"
	 viewBox="0 0 500 245" style="enable-background:new 0 0 500 245;" xml:space="preserve">
<style type="text/css">
	.st0{fill:none;stroke:#502C85;stroke-miterlimit:10;}
	.st1{fill:#502C85;}
	.st2{fill:#FCD824;}
</style>
<line class="st0" x1="26.9" y1="188.4" x2="459.7" y2="188.4"/>
<g>
	<path class="st1" d="M27.3,170.2c-0.6-0.8-0.6-4,0-4.4c4.4-0.3,7.5-0.8,9.9-1.5c2.7-0.8,4.6-2,5-7.3c0.5-9.6,0.5-22.1,0.5-35.7
		c0-9.2,0-27-0.5-32.5c-0.3-5.3-1.7-6.7-5.5-7.6c-2-0.5-4.6-0.9-8.1-1.4c-0.3-0.6,0-3.8,0.5-4.3c3.2,0,14.1,0.5,18.5,0.5
		c9.2,0,15.4-0.6,29.6-0.6c13.3,0,24.6,3.7,32.7,10.7c9.8,8.5,14.5,20.5,14.5,34.7c0,21.1-9.9,33.3-19.5,39.9
		c-9.5,6.7-20.9,10.4-36.5,10.4c-9,0-20.2-0.5-33.4-0.6H27.3z M59.2,161.3c3.2,2.4,9.8,3.4,16.5,3.4c7.5,0,15.3-1.5,22.3-8.1
		c7.2-6.7,11.9-16.8,11.9-33.5c0-15.4-5.5-28.3-17.4-36.2c-6.9-4.6-16-6.3-27-6.3c-3.1,0-6.3,0.1-7.8,0.8c-0.6,0.3-1.5,1.4-1.7,2.8
		c-0.3,3.4-0.2,24.3-0.2,37.1c0,13.3,0,30.5,0.3,33.9C56.3,157.2,57.1,160,59.2,161.3z"/>
	<path class="st1" d="M166.5,170.2c-2.9,0-7.8-0.5-15.6-0.5c-6.4,0-12.4,0.5-15,0.5c-0.6-0.5-0.6-3.8,0-4.4c2.6-0.3,4.7-0.8,6.6-1.4
		c2-0.8,2.4-2,2.8-5.5c0.3-3.8,0.3-13.9,0.3-22.3c0-6-0.2-11.5-0.2-14.5c0-0.9-0.1-2.1-1.1-3.2c-1.7-1.7-4.3-2.6-7.3-3.7
		c-0.5-0.6,0-3.2,0.6-3.7c4.6-0.1,13.9-2,19.9-4.4c0,6.9-0.2,17.4-0.2,26.7c0,8.4,0,18.6,0.2,25.5c0,2.7,0.9,4.4,3.2,5.2
		c2,0.5,2.9,0.8,6.4,1.2C167.6,166.5,167.1,169.7,166.5,170.2z M154.8,92.9c-0.8,0.4-6,0.9-6.9,0.3c-2.3-1.1-3.5-3.2-4-6.3
		c-0.1-0.9,0-3.7,0.8-4.4c1.4-1.2,4.6-2.7,7.3-2.7c2.4,0,4.1,0.8,4.4,1.2c0.9,1.1,1.5,3,1.5,4.4C158,88.3,156.7,91.4,154.8,92.9z"/>
	<path class="st1" d="M214.2,125c-0.5,0.6-3.5,0.8-4.1,0.3c-0.9-6.6-2.1-9.8-5.2-11.6c-2-1.2-4.4-1.8-7.5-1.8
		c-5.2,0-9.5,3.4-9.5,8.9c0,5.2,2.6,8.2,14.2,13.7c12.7,5.8,15.9,11,15.9,18.3c0,11-10.2,18.8-24,18.8c-5.7,0-12.5-1.4-16-2.9
		c-1.1-3.5-2.4-13.3-2.6-16.8c0.5-0.6,3.7-1.7,4.4-1.4c2.1,7.9,5,11.9,9,14.2c2.3,1.2,5.3,1.8,7.6,1.8c6.3,0,10.2-3.4,10.2-8.6
		c0-5.5-2.9-8.4-12.4-13c-12.4-6.1-16.8-11.6-16.8-19.7c0-9.5,7.5-18,22.5-18c3.5,0,7.3,0.5,9.9,0.9c2.4,0.4,4.9,0.8,6.1,0.9
		C215,113.7,214.7,118.7,214.2,125z"/>
	<path class="st1" d="M234.2,95.5c2.4-1.2,8.1-5,9.8-7c0.8-0.3,2.3-0.3,2.7-0.1c-0.3,2.6-0.8,9.5-0.8,20.2c0,0.3,0.3,0.9,0.6,0.9
		c7.3,0,16.3-0.5,18.6-0.8c-0.5,2.1-1.2,6.1-1.4,8.4c-3.8,0-11.6-0.1-17.4-0.1c-0.3,0-0.6,0.6-0.6,0.8c-0.1,7.2-0.1,20.6,0,28.1
		c0,6.1,0.3,9,0.9,11c1.4,4.1,5.2,6,9,6c4.3,0,6.4-0.8,9.5-2.6c0.3,0.5-0.2,4.1-0.5,4.7c-3.8,4.7-10.2,6.7-15.1,6.7
		c-6,0-10.8-2.4-13.4-7.3c-2-3.7-2.1-7.6-2.1-17.4c0-8.7,0.1-22.5,0.1-28.6c0-0.5-0.3-1.2-0.9-1.4c-2-0.2-5.8-0.5-8.2-0.6
		c-0.2-0.9,0.8-4.3,1.4-5c2.1-0.3,6-1.1,7.2-1.7c0.2,0,0.6-0.6,0.6-1.1V95.5z"/>
	<path class="st1" d="M316.7,110.6c0.1,0.5,0.1,1.8,0,2.4c-0.3,1.8-3.2,7.8-4.7,9.6c-0.1,0.2-1.1,0.6-1.2,0.6
		c-2.9-2.4-6.4-4.7-9.9-4.7c-3.1,0-6.1,3.2-8.1,6.4c-0.5,0.9-1.2,3.2-1.2,5.2c0,10.4,0.1,26.1,0.3,29.2c0.2,2.6,0.9,4.1,3.2,4.9
		c2.7,0.8,6.3,1.2,9.6,1.5c0.3,0.8,0.2,3.8-0.6,4.4c-1.8,0-11.8-0.5-17.9-0.5c-4.7,0-12.5,0.3-15.3,0.5c-0.5-0.6-0.6-3.8,0-4.4
		c1.8-0.2,4.3-0.6,6-1.2c1.5-0.6,2.4-1.5,2.7-4.3c0.3-2.4,0.5-15.1,0.5-25.7c0-5.6,0-10.2-0.2-12.1c-0.3-2.1-1.5-4-8.4-6.4
		c0-0.8,0.3-3,0.8-3.4c5.5-0.6,14.5-3.2,18.6-5.6c0.3,0,0.8,0.3,0.8,0.6c-0.1,2.1-0.3,8.9-0.3,11.8c0,0.5,0.5,0.5,0.8,0.3
		c2.9-3.7,6.1-7.2,9.6-9.6c2.4-1.8,4.9-2.9,7.8-2.9C312.5,107.3,315.5,108.5,316.7,110.6z"/>
	<path class="st1" d="M352.2,170.2c-2.9,0-7.8-0.5-15.6-0.5c-6.4,0-12.4,0.5-15,0.5c-0.6-0.5-0.6-3.8,0-4.4c2.6-0.3,4.7-0.8,6.6-1.4
		c2-0.8,2.4-2,2.8-5.5c0.3-3.8,0.3-13.9,0.3-22.3c0-6-0.2-11.5-0.2-14.5c0-0.9-0.1-2.1-1.1-3.2c-1.7-1.7-4.3-2.6-7.3-3.7
		c-0.5-0.6,0-3.2,0.6-3.7c4.6-0.1,13.9-2,19.9-4.4c0,6.9-0.2,17.4-0.2,26.7c0,8.4,0,18.6,0.2,25.5c0,2.7,0.9,4.4,3.2,5.2
		c2,0.5,2.9,0.8,6.4,1.2C353.3,166.5,352.8,169.7,352.2,170.2z M340.4,92.9c-0.8,0.4-6,0.9-6.9,0.3c-2.3-1.1-3.5-3.2-4-6.3
		c-0.2-0.9,0-3.7,0.8-4.4c1.4-1.2,4.6-2.7,7.3-2.7c2.4,0,4.1,0.8,4.4,1.2c0.9,1.1,1.5,3,1.5,4.4C343.6,88.3,342.4,91.4,340.4,92.9z"
		/>
	<path class="st1" d="M389.2,171.6c-9.8,0-16.8-3.7-21.8-10.5c-3.8-5.5-6-12.8-6-20.5c0-11.3,5.2-20.9,15.4-27
		c6.4-4,14.7-6.3,19.4-6.3c6.1,0,9.6,1.1,12.5,2.3c2,1.1,4,2.4,4.6,4c0,0.4-0.2,1.8-0.3,2.4c-0.9,2.3-3.8,5.6-5.2,6.3
		c-0.3,0.1-1.2,0.1-1.5,0c-3.2-3.2-9-8.1-16.8-8.1c-11.5,0-16.3,10.2-16.3,20.6c0,7.2,1.8,14.2,5.7,18.8c4.6,5.7,10.2,7.9,17.3,7.9
		c5.3,0,11.6-2,17.4-7.3c0.2,0,0.8,0.5,0.8,0.9c0,1.2-0.5,4-0.8,4.4C406,168.7,395.6,171.6,389.2,171.6z"/>
	<path class="st1" d="M428.6,95.5c2.4-1.2,8.1-5,9.8-7c0.8-0.3,2.3-0.3,2.7-0.1c-0.3,2.6-0.8,9.5-0.8,20.2c0,0.3,0.3,0.9,0.6,0.9
		c7.3,0,16.3-0.5,18.6-0.8c-0.5,2.1-1.2,6.1-1.4,8.4c-3.8,0-11.6-0.1-17.4-0.1c-0.3,0-0.6,0.6-0.6,0.8c-0.2,7.2-0.2,20.6,0,28.1
		c0,6.1,0.3,9,0.9,11c1.4,4.1,5.2,6,9,6c4.3,0,6.4-0.8,9.5-2.6c0.3,0.5-0.1,4.1-0.5,4.7c-3.8,4.7-10.2,6.7-15.1,6.7
		c-6,0-10.8-2.4-13.4-7.3c-2-3.7-2.1-7.6-2.1-17.4c0-8.7,0.1-22.5,0.1-28.6c0-0.5-0.3-1.2-0.9-1.4c-2-0.2-5.8-0.5-8.2-0.6
		c-0.2-0.9,0.8-4.3,1.4-5c2.1-0.3,6-1.1,7.2-1.7c0.2,0,0.6-0.6,0.6-1.1V95.5z"/>
</g>
<g>
	<path class="st1" d="M27.6,208.4c-1-1.1-1.4-2.4-1.4-3.8c0-1.2,0.4-2.2,1-3.1c0.9-1.2,2.6-2,4.3-2c3.3,0,4.9,2.4,4.9,5
		c0,1.4-0.3,2.4-1,3.3c-1,1.4-2.6,2.1-4.2,2.1C29.7,209.8,28.4,209.3,27.6,208.4z M33.5,208.6c1-0.8,1.3-2.1,1.3-3.6
		c0-1.7-0.6-3.4-1.8-4.3c-0.6-0.4-1.3-0.6-2.1-0.6c-0.6,0-1,0.1-1.4,0.4c-1.2,0.7-1.7,2.1-1.7,3.8c0,1.7,0.6,3.5,2,4.4
		c0.6,0.4,1.2,0.5,2,0.5C32.5,209.1,33.1,208.9,33.5,208.6z"/>
	<path class="st1" d="M39,199.7c0.3,0,1.1,0,2,0h3.8c0.6,0,1.2,0,1.5-0.1c0,0,0.1,0.1,0.1,0.1c-0.1,0.4-0.2,1.4-0.2,2.3
		c0,0.1-0.4,0.1-0.5,0c-0.1-0.5-0.1-0.8-0.2-1.1c-0.1-0.4-0.3-0.5-0.7-0.5c-0.6,0-2.3,0-2.7,0c-0.1,0-0.2,0.2-0.2,0.3
		c0,0.9,0,2.5,0,3.6c0,0,0.1,0.1,0.1,0.1c0.7,0,2.1,0,2.6,0c0.4,0,0.5-0.2,0.6-0.5c0.1-0.2,0.1-0.4,0.2-0.7c0.1,0,0.5,0,0.5,0
		c0,0.4-0.1,1-0.1,1.6c0,0.6,0,1.1,0,1.5c-0.1,0.1-0.4,0.1-0.5,0c-0.1-0.3-0.1-0.5-0.2-0.7c-0.1-0.3-0.3-0.5-0.6-0.5
		c-0.6,0-2.3,0-2.6,0c0,0-0.1,0.1-0.1,0.1c0,1,0,2.3,0,3c0,0.5,0.1,0.7,0.6,0.8c0.3,0.1,0.6,0.1,1.1,0.1c0.1,0.1,0,0.4,0,0.5
		c-0.5,0-1.2,0-2.4,0c-1,0-1.5,0-2.1,0c-0.1,0-0.1-0.4,0-0.5c0.4,0,0.7-0.1,0.8-0.1c0.4-0.1,0.5-0.3,0.6-0.8c0-0.6,0-1.7,0-3.6
		c0-1.8,0-2.9,0-3.4c0-0.5-0.1-0.7-0.4-0.8c-0.2-0.1-0.5-0.1-0.9-0.2C38.9,200.1,38.9,199.7,39,199.7z"/>
	<path class="st1" d="M59.7,209.6c-0.5,0-1.4,0-2.4,0c-1.2,0-2,0-2.4,0c-0.1-0.1,0-0.4,0-0.5c0.5,0,0.9-0.1,1.1-0.2
		c0.5-0.1,0.6-0.4,0.6-1.2c0-1.2,0.1-4.7,0.1-7.3c0-0.1-0.1-0.1-0.1-0.1c-0.3,0-1.5,0-2.1,0c-0.3,0-0.5,0.1-0.7,0.4
		c-0.2,0.3-0.4,0.9-0.6,1.5c-0.1,0-0.5,0-0.5-0.1c0.1-0.7,0.3-1.9,0.3-2.6c0,0,0.1-0.1,0.2-0.1c0.3,0.1,0.7,0.2,1.3,0.2h5.9
		c0.7,0,1.1,0,1.5-0.2c0,0,0.1,0,0.2,0.1c-0.2,0.6-0.3,1.8-0.4,2.7c0,0.1-0.5,0.1-0.5,0c0-0.6-0.1-1.1-0.3-1.4
		c-0.1-0.3-0.3-0.4-0.6-0.5c-0.8,0-1.9,0-2.2,0c0,0-0.1,0.1-0.1,0.1c0,2.3,0,6.8,0,7.6c0,0.6,0.2,0.8,0.5,0.8
		c0.3,0.1,0.5,0.1,1.1,0.2C59.8,209.2,59.8,209.6,59.7,209.6z"/>
	<path class="st1" d="M64.3,199.7c0.4,0,1.2,0,2,0c1.1,0,1.5,0,2,0c0,0.1,0,0.4,0,0.4c-0.3,0-0.6,0.1-0.8,0.1
		c-0.3,0.1-0.4,0.2-0.4,0.7c0,0.6,0,1.4,0,3c0,0.1,0,0.1,0.1,0.2c0.1,0,0.4,0,2.7,0c1.8,0,2.4,0,2.5,0c0,0,0.1-0.1,0.1-0.1
		c0-0.8,0-2.6,0-3.2c0-0.3-0.1-0.4-0.3-0.5c-0.2-0.1-0.5-0.1-0.9-0.2c-0.1-0.1-0.1-0.4,0-0.5c0.4,0,1.2,0.1,2,0.1c0.8,0,1.7,0,2,0
		c0,0.1,0.1,0.4,0,0.4c-0.4,0-0.6,0.1-0.8,0.2c-0.4,0.1-0.4,0.3-0.4,0.9c0,0.6,0,1.5,0,3.4c0,1.4,0,3.1,0,3.7c0,0.4,0.1,0.6,0.4,0.7
		c0.2,0.1,0.5,0.1,1,0.2c0,0.1,0,0.4-0.1,0.5c-0.5,0-1.3,0-2.1,0s-1.6,0-2,0c-0.1-0.1-0.1-0.4,0-0.5c0.4,0,0.7-0.1,0.9-0.2
		c0.3-0.1,0.4-0.2,0.4-0.7c0-0.5,0-2.2,0-3.2c0,0,0-0.1-0.1-0.1c-0.3,0-1.7,0-2.5,0c-1.2,0-2.6,0-2.7,0c0,0,0,0.1,0,0.1
		c0,0.9,0,2.7,0,3.1c0,0.5,0.1,0.8,0.5,0.9c0.2,0.1,0.5,0.1,1,0.2c0.1,0.1,0,0.4-0.1,0.5c-0.3,0-1.1,0-2.1,0c-0.9,0-1.8,0-2.1,0
		c-0.1-0.1-0.1-0.4,0-0.5c0.4,0,0.6-0.1,0.9-0.1c0.5-0.1,0.5-0.4,0.6-1.2c0-0.5,0-1.9,0-3.3c0-1.5,0-3.2,0-3.5
		c0-0.4-0.1-0.6-0.4-0.7c-0.2-0.1-0.5-0.1-1-0.2C64.2,200,64.2,199.7,64.3,199.7z"/>
	<path class="st1" d="M77.6,199.6c0.4,0,1.2,0.1,2.1,0.1h3.1c0.6,0,1.4,0,1.8-0.1c0,0,0.1,0.1,0.1,0.1c-0.1,0.5-0.2,1.5-0.3,2.2
		c-0.1,0.1-0.4,0.1-0.5,0c0-0.5-0.1-0.7-0.2-1c-0.1-0.4-0.3-0.6-0.8-0.6c-0.3,0-2.2,0-2.4,0c-0.1,0-0.2,0.2-0.2,0.3
		c0,0.9,0,2.7,0,3.4c0,0,0,0.1,0.1,0.1c0.6,0,1.9,0,2.4,0c0.4,0,0.5-0.2,0.5-0.5c0.1-0.2,0.1-0.4,0.2-0.6c0.1,0,0.5,0,0.5,0
		c0,0.3-0.1,0.9-0.1,1.5c0,0.6,0,1.1,0,1.5c-0.1,0.1-0.5,0.1-0.5,0c0-0.3-0.1-0.5-0.1-0.7c-0.1-0.2-0.2-0.4-0.5-0.5
		c-0.5,0-1.8,0-2.4,0c0,0-0.1,0.1-0.1,0.1c0,0.7,0,2.4,0,3.2c0,0.3,0.2,0.5,0.4,0.6c0.3,0.1,1.7,0.1,2.4,0.1c0.7,0,0.9-0.2,1.2-0.5
		c0.3-0.3,0.6-0.9,0.8-1.4c0.1,0,0.4,0.1,0.5,0.2c-0.1,0.5-0.4,1.7-0.7,2.2c-0.1,0.2-0.2,0.3-1,0.3c-1.3,0-2.5-0.1-4.2-0.1
		c-1.1,0-1.9,0-2.5,0c-0.1,0-0.1-0.4,0-0.5c0.5,0,0.9-0.1,1.2-0.2c0.4-0.1,0.5-0.3,0.5-0.9c0-0.3,0-2.1,0-3.9c0-1.5,0-2.9,0-3.2
		c0-0.6-0.1-0.7-0.5-0.8c-0.2-0.1-0.5-0.1-0.8-0.2C77.5,200,77.6,199.7,77.6,199.6z"/>
	<path class="st1" d="M99.5,200.3c-0.5-0.3-1.2-0.4-2-0.4c-2.3,0-3.6,1.7-3.6,4.4c0,2.6,1.4,4.7,4.3,4.7c0.7,0,1.4-0.2,1.8-0.5
		c0.4-0.3,0.8-0.9,1.2-1.6c0.1,0,0.4,0.1,0.4,0.3c-0.2,0.7-0.8,1.9-1.2,2.2c-0.5,0.2-1.5,0.4-2.4,0.4c-3.6,0-5.5-1.9-5.5-5.3
		c0-1.7,0.8-3.5,2.5-4.4c0.8-0.5,1.9-0.7,3.2-0.7c1.4,0,2.4,0.3,3.1,0.3c-0.1,0.6-0.2,1.7-0.3,2.5c-0.1,0.1-0.5,0.1-0.5,0
		C100.3,201,100.1,200.6,99.5,200.3z"/>
	<path class="st1" d="M103.6,199.7c0.4,0,1.2,0,2,0c1.1,0,1.5,0,2,0c0,0.1,0,0.4,0,0.4c-0.3,0-0.6,0.1-0.8,0.1
		c-0.3,0.1-0.4,0.2-0.4,0.7c0,0.6,0,1.4,0,3c0,0.1,0,0.1,0.1,0.2c0.1,0,0.4,0,2.7,0c1.8,0,2.4,0,2.5,0c0,0,0.1-0.1,0.1-0.1
		c0-0.8,0-2.6,0-3.2c0-0.3-0.1-0.4-0.3-0.5c-0.2-0.1-0.5-0.1-0.9-0.2c-0.1-0.1-0.1-0.4,0-0.5c0.4,0,1.2,0.1,2,0.1c0.8,0,1.7,0,2,0
		c0,0.1,0.1,0.4,0,0.4c-0.4,0-0.6,0.1-0.8,0.2c-0.4,0.1-0.4,0.3-0.4,0.9c0,0.6,0,1.5,0,3.4c0,1.4,0,3.1,0,3.7c0,0.4,0.1,0.6,0.4,0.7
		c0.2,0.1,0.5,0.1,1,0.2c0,0.1,0,0.4-0.1,0.5c-0.5,0-1.3,0-2.1,0s-1.6,0-2,0c-0.1-0.1-0.1-0.4,0-0.5c0.4,0,0.7-0.1,0.9-0.2
		c0.3-0.1,0.4-0.2,0.4-0.7c0-0.5,0-2.2,0-3.2c0,0,0-0.1-0.1-0.1c-0.3,0-1.7,0-2.5,0c-1.2,0-2.6,0-2.7,0c0,0,0,0.1,0,0.1
		c0,0.9,0,2.7,0,3.1c0,0.5,0.1,0.8,0.5,0.9c0.2,0.1,0.5,0.1,1,0.2c0.1,0.1,0,0.4-0.1,0.5c-0.3,0-1.1,0-2.1,0c-0.9,0-1.8,0-2.1,0
		c-0.1-0.1-0.1-0.4,0-0.5c0.4,0,0.6-0.1,0.9-0.1c0.5-0.1,0.5-0.4,0.6-1.2c0-0.5,0-1.9,0-3.3c0-1.5,0-3.2,0-3.5
		c0-0.4-0.1-0.6-0.4-0.7c-0.2-0.1-0.5-0.1-1-0.2C103.5,200,103.6,199.7,103.6,199.7z"/>
	<path class="st1" d="M116.9,199.7c0.4,0,1.3,0,1.8,0c1.2,0,2,0,2.7,0c1.9,0,2.9,1.1,2.9,2.5c0,1.3-0.9,2.1-1.8,2.6c0,0,0,0.1,0,0.1
		c0.6,0.9,1.8,2.7,2.6,3.5c0.7,0.7,0.9,0.8,1.8,0.9c0,0,0,0.4-0.1,0.4c-0.7,0-2,0-2.6-0.3c-0.2-0.1-0.5-0.3-0.8-0.6
		c-0.6-0.7-1.6-2.3-2.2-3.2c-0.1-0.2-0.3-0.2-0.4-0.2c-0.2,0-0.9,0-1.1,0c0,0-0.1,0.1-0.1,0.1c0,0.9,0,2.4,0,2.9
		c0,0.5,0.1,0.7,0.5,0.8c0.2,0,0.5,0.1,0.9,0.1c0.1,0.1,0,0.4,0,0.5c-0.3,0-1.1,0-2.1,0c-1,0-1.7,0-2,0c-0.1-0.1-0.1-0.4,0-0.5
		c0.4,0,0.6-0.1,0.8-0.1c0.4-0.1,0.5-0.3,0.5-0.9c0-0.4,0-2.5,0-3.4c0-1.6,0-3.2,0-3.7c0-0.4-0.1-0.6-0.5-0.7
		c-0.2,0-0.5-0.1-0.9-0.1C116.8,200,116.8,199.7,116.9,199.7z M119.8,200.3c0,0-0.1,0.2-0.1,0.2c0,0.5,0,2.7,0,4c0,0,0,0.1,0.1,0.1
		c1.1,0,1.8,0,2.1-0.1c0.5-0.2,1-0.8,1-1.9c0-1.5-0.8-2.4-2.5-2.4C120.2,200.2,119.9,200.2,119.8,200.3z"/>
	<path class="st1" d="M127.9,199.7c0.3,0,1.2,0,2.1,0c0.8,0,1.6,0,2,0c0,0.1,0.1,0.4,0,0.4c-0.4,0-0.6,0.1-0.8,0.1
		c-0.4,0.1-0.4,0.3-0.5,0.8c0,0.7,0,2,0,3.4c0,1.6,0,3.1,0,3.7c0,0.5,0.1,0.7,0.6,0.8c0.2,0.1,0.6,0.1,0.9,0.2c0.1,0.1,0,0.4,0,0.5
		c-0.4,0-1.3,0-2.1,0c-0.9,0-1.7,0-2.2,0c-0.1,0-0.1-0.4,0-0.5c0.4,0,0.6-0.1,0.8-0.1c0.5-0.1,0.5-0.3,0.6-0.7
		c0.1-0.4,0.1-2.1,0.1-4.2c0-1.3,0-2.3,0-3.1c0-0.4-0.1-0.6-0.4-0.7c-0.2-0.1-0.5-0.1-1-0.2C127.9,200,127.9,199.7,127.9,199.7z"/>
	<path class="st1" d="M136.1,208.8c0.4,0.3,1,0.4,1.6,0.4c0.8,0,1.7-0.5,1.7-1.7c0-1.1-0.7-1.5-2.1-2.4c-1.4-0.8-2.4-1.6-2.4-3
		c0-1.7,1.4-2.7,3.1-2.7c1.1,0,1.8,0.2,2.4,0.3c-0.1,0.5-0.2,1.4-0.3,2.2c0,0.1-0.4,0.1-0.5,0c-0.1-0.9-0.2-1.4-0.6-1.6
		c-0.4-0.3-0.8-0.3-1.3-0.3c-1.1,0-1.7,0.8-1.7,1.6c0,0.9,0.4,1.4,1.1,1.8c0.6,0.4,1.4,0.8,2,1.1c0.8,0.5,1.5,1.2,1.5,2.4
		c0,1.6-1.3,3-3.5,3c-1,0-1.9-0.3-2.3-0.5c-0.1-0.2-0.4-1.9-0.4-2.4c0-0.1,0.4-0.2,0.5-0.1C135.2,207.8,135.6,208.4,136.1,208.8z"/>
	<path class="st1" d="M149.7,209.6c-0.5,0-1.4,0-2.4,0c-1.2,0-2,0-2.4,0c-0.1-0.1,0-0.4,0-0.5c0.5,0,0.9-0.1,1.1-0.2
		c0.5-0.1,0.6-0.4,0.6-1.2c0-1.2,0.1-4.7,0.1-7.3c0-0.1-0.1-0.1-0.1-0.1c-0.3,0-1.5,0-2.1,0c-0.3,0-0.5,0.1-0.7,0.4
		c-0.2,0.3-0.4,0.9-0.6,1.5c-0.1,0-0.5,0-0.5-0.1c0.1-0.7,0.3-1.9,0.3-2.6c0,0,0.1-0.1,0.2-0.1c0.3,0.1,0.7,0.2,1.3,0.2h5.9
		c0.7,0,1.1,0,1.5-0.2c0,0,0.1,0,0.2,0.1c-0.2,0.6-0.3,1.8-0.4,2.7c0,0.1-0.5,0.1-0.5,0c0-0.6-0.1-1.1-0.3-1.4
		c-0.1-0.3-0.3-0.4-0.6-0.5c-0.8,0-1.9,0-2.2,0c0,0-0.1,0.1-0.1,0.1c0,2.3,0,6.8,0,7.6c0,0.6,0.2,0.8,0.5,0.8
		c0.3,0.1,0.5,0.1,1.1,0.2C149.8,209.2,149.8,209.6,149.7,209.6z"/>
	<path class="st1" d="M154.3,199.7c0.3,0,1.2,0,2.1,0c0.8,0,1.6,0,2,0c0,0.1,0.1,0.4,0,0.4c-0.4,0-0.6,0.1-0.8,0.1
		c-0.4,0.1-0.4,0.3-0.5,0.8c0,0.7,0,2,0,3.4c0,1.6,0,3.1,0,3.7c0,0.5,0.1,0.7,0.6,0.8c0.2,0.1,0.6,0.1,0.9,0.2c0.1,0.1,0,0.4,0,0.5
		c-0.4,0-1.3,0-2.1,0c-0.9,0-1.7,0-2.2,0c-0.1,0-0.1-0.4,0-0.5c0.4,0,0.6-0.1,0.8-0.1c0.5-0.1,0.5-0.3,0.6-0.7
		c0.1-0.4,0.1-2.1,0.1-4.2c0-1.3,0-2.3,0-3.1c0-0.4-0.1-0.6-0.4-0.7c-0.2-0.1-0.5-0.1-1-0.2C154.2,200,154.3,199.7,154.3,199.7z"/>
	<path class="st1" d="M161.9,207.6c0.8-1.9,2.3-6,2.7-7c0.1-0.3,0.2-0.7,0.3-0.9c0.1,0,0.3,0,0.5,0c0.3,0,0.5,0,0.5,0
		c0.1,0.2,0.1,0.5,0.3,0.8c0.3,0.9,2.1,6,2.7,7.3c0.5,1.1,0.6,1.2,1.7,1.3c0.1,0,0,0.4,0,0.5c-0.4,0-1.2,0-1.9,0c-0.8,0-1.8,0-2.1,0
		c0-0.1-0.1-0.4,0-0.5c0.4,0,0.6-0.1,0.9-0.2c0.2-0.1,0.2-0.3,0.2-0.4c-0.2-0.7-0.7-2-1-2.7c0,0-0.1-0.1-0.1-0.1c-0.2,0-0.8,0-1.5,0
		c-1,0-1.1,0-1.3,0c-0.1,0-0.1,0.1-0.2,0.1c-0.3,0.9-0.8,2.2-0.9,2.6c0,0.3,0,0.4,0.5,0.6c0.2,0,0.5,0.1,0.8,0.1c0,0.1,0,0.4,0,0.5
		c-0.3,0-1.2,0-2,0c-0.9,0-1.4,0-1.7,0c-0.1-0.1-0.1-0.4,0-0.5C161.1,209,161.3,208.9,161.9,207.6z M164.9,201.4
		c-0.3,0.8-0.9,2.6-1.2,3.5c0,0.1,0,0.1,0.1,0.1c0.2,0,0.7,0,1.3,0c0.4,0,0.9,0,1.1,0c0,0,0.1-0.1,0-0.1
		C165.9,203.8,165.3,202,164.9,201.4C165,201.4,164.9,201.3,164.9,201.4z"/>
	<path class="st1" d="M171.7,199.7c0.4,0,1.2,0,2,0c0.3,0,0.6,0,0.7,0c0.1,0.2,0.2,0.3,0.6,0.9c1.6,2,4.9,6,5.7,6.9c0,0,0,0,0.1,0
		c0-2.2,0-5.2-0.1-6.3c0-0.5-0.1-0.7-0.6-0.8c-0.3-0.1-0.6-0.1-1.1-0.2c-0.1-0.1,0-0.4,0-0.4c0.4,0,1.2,0,2.1,0c0.5,0,1.5,0,1.7,0
		c0.1,0,0.1,0.4,0,0.4c-0.3,0-0.5,0.1-0.7,0.2c-0.4,0.1-0.5,0.4-0.5,0.9c-0.1,1.2-0.1,3.3-0.1,6.3c0,0.7,0,1.7,0,2.2
		c-0.2,0-0.9,0-1.1,0c-0.8-1.2-5.2-6.7-6.2-7.9c0,0-0.1,0-0.1,0c0,1.6,0,5.4,0,6.3c0,0.6,0.2,0.9,0.7,1c0.2,0.1,0.6,0.1,1,0.2
		c0.1,0.1,0,0.4,0,0.5c-0.4,0-1.1,0-2,0c-1,0-1.6,0-1.9,0c0,0,0-0.4,0-0.5c0.4,0,0.6-0.1,0.8-0.1c0.4-0.1,0.6-0.3,0.6-0.9
		c0.1-0.8,0.1-3.4,0.1-6.8c0-0.2-0.1-0.6-0.4-0.8c-0.3-0.2-0.7-0.3-1.3-0.4C171.6,200.1,171.6,199.7,171.7,199.7z"/>
	<path class="st1" d="M189.3,199.7c0.5,0,1.3,0,2.9,0c0,0.3,0.1,0.6,0.3,0.9c0.9,2.1,2.8,6,3,6.4c0,0,0,0,0.1,0
		c0.3-0.5,2.4-4.9,3.1-6.5c0.1-0.3,0.2-0.6,0.3-0.8c1.6,0,2.1,0,2.8,0c0.1,0,0.1,0.4,0,0.4c-0.5,0.1-0.8,0.1-1,0.2
		c-0.3,0.1-0.4,0.3-0.4,0.6c0,1,0.1,6.1,0.2,7.2c0,0.6,0.1,0.8,0.6,0.9c0.2,0,0.5,0.1,0.9,0.1c0.1,0.1,0,0.4,0,0.5
		c-0.4,0-1.1,0-2.1,0c-0.9,0-1.7,0-2.1,0c0-0.1-0.1-0.4,0-0.5c0.4-0.1,0.7-0.1,0.9-0.2c0.4-0.1,0.4-0.4,0.4-0.7c0-1.1,0-5.2-0.1-6.6
		c0,0,0,0-0.1,0c-0.4,1-3.1,6.4-3.6,7.9c0,0-0.4,0-0.5,0c-0.4-1.3-2.8-6.7-3.4-8c0,0-0.1,0-0.1,0c-0.1,1.4-0.3,5-0.3,6.3
		c0,0.6,0,0.9,0.5,1c0.3,0.1,0.5,0.1,1,0.2c0.1,0.1,0,0.4,0,0.5c-0.3,0-1.1,0-1.9,0c-0.9,0-1.7,0-1.9,0c-0.1-0.1,0-0.4,0-0.5
		c0.3,0,0.6-0.1,0.8-0.1c0.5-0.1,0.6-0.4,0.7-1.1c0.2-1.2,0.5-5.3,0.6-6.8c0-0.3-0.1-0.6-0.4-0.7c-0.2-0.1-0.6-0.1-1.1-0.2
		C189.2,200.1,189.2,199.7,189.3,199.7z"/>
	<path class="st1" d="M204,199.6c0.4,0,1.2,0.1,2.1,0.1h3.1c0.6,0,1.4,0,1.8-0.1c0,0,0.1,0.1,0.1,0.1c-0.1,0.5-0.2,1.5-0.3,2.2
		c-0.1,0.1-0.4,0.1-0.5,0c0-0.5-0.1-0.7-0.2-1c-0.1-0.4-0.3-0.6-0.8-0.6c-0.3,0-2.2,0-2.4,0c-0.1,0-0.2,0.2-0.2,0.3
		c0,0.9,0,2.7,0,3.4c0,0,0,0.1,0.1,0.1c0.6,0,1.9,0,2.4,0c0.4,0,0.5-0.2,0.5-0.5c0.1-0.2,0.1-0.4,0.2-0.6c0.1,0,0.5,0,0.5,0
		c0,0.3-0.1,0.9-0.1,1.5c0,0.6,0,1.1,0,1.5c-0.1,0.1-0.5,0.1-0.5,0c0-0.3-0.1-0.5-0.1-0.7c-0.1-0.2-0.2-0.4-0.5-0.5
		c-0.5,0-1.8,0-2.4,0c0,0-0.1,0.1-0.1,0.1c0,0.7,0,2.4,0,3.2c0,0.3,0.2,0.5,0.4,0.6c0.3,0.1,1.7,0.1,2.4,0.1c0.7,0,0.9-0.2,1.2-0.5
		c0.3-0.3,0.6-0.9,0.8-1.4c0.1,0,0.4,0.1,0.5,0.2c-0.1,0.5-0.4,1.7-0.7,2.2c-0.1,0.2-0.2,0.3-1,0.3c-1.3,0-2.5-0.1-4.2-0.1
		c-1.1,0-1.9,0-2.5,0c-0.1,0-0.1-0.4,0-0.5c0.5,0,0.9-0.1,1.2-0.2c0.4-0.1,0.5-0.3,0.5-0.9c0-0.3,0-2.1,0-3.9c0-1.5,0-2.9,0-3.2
		c0-0.6-0.1-0.7-0.5-0.8c-0.2-0.1-0.5-0.1-0.8-0.2C203.9,200,203.9,199.7,204,199.6z"/>
	<path class="st1" d="M220.4,209.6c-0.5,0-1.4,0-2.4,0c-1.2,0-2,0-2.4,0c-0.1-0.1,0-0.4,0-0.5c0.5,0,0.9-0.1,1.1-0.2
		c0.5-0.1,0.6-0.4,0.6-1.2c0-1.2,0.1-4.7,0.1-7.3c0-0.1-0.1-0.1-0.1-0.1c-0.3,0-1.5,0-2.1,0c-0.3,0-0.5,0.1-0.7,0.4
		c-0.2,0.3-0.4,0.9-0.6,1.5c-0.1,0-0.5,0-0.5-0.1c0.1-0.7,0.3-1.9,0.3-2.6c0,0,0.1-0.1,0.2-0.1c0.3,0.1,0.7,0.2,1.3,0.2h5.9
		c0.7,0,1.1,0,1.5-0.2c0,0,0.1,0,0.2,0.1c-0.2,0.6-0.3,1.8-0.4,2.7c0,0.1-0.5,0.1-0.5,0c0-0.6-0.1-1.1-0.3-1.4
		c-0.1-0.3-0.3-0.4-0.6-0.5c-0.8,0-1.9,0-2.2,0c0,0-0.1,0.1-0.1,0.1c0,2.3,0,6.8,0,7.6c0,0.6,0.2,0.8,0.5,0.8
		c0.3,0.1,0.5,0.1,1.1,0.2C220.5,209.2,220.4,209.6,220.4,209.6z"/>
	<path class="st1" d="M225,199.7c0.4,0,1.2,0,2,0c1.1,0,1.5,0,2,0c0,0.1,0,0.4,0,0.4c-0.3,0-0.6,0.1-0.8,0.1
		c-0.3,0.1-0.4,0.2-0.4,0.7c0,0.6,0,1.4,0,3c0,0.1,0,0.1,0.1,0.2c0.1,0,0.4,0,2.7,0c1.8,0,2.4,0,2.5,0c0,0,0.1-0.1,0.1-0.1
		c0-0.8,0-2.6,0-3.2c0-0.3-0.1-0.4-0.3-0.5c-0.2-0.1-0.5-0.1-0.9-0.2c-0.1-0.1-0.1-0.4,0-0.5c0.4,0,1.2,0.1,2,0.1c0.8,0,1.7,0,2,0
		c0,0.1,0.1,0.4,0,0.4c-0.4,0-0.6,0.1-0.8,0.2c-0.4,0.1-0.4,0.3-0.4,0.9c0,0.6,0,1.5,0,3.4c0,1.4,0,3.1,0,3.7c0,0.4,0.1,0.6,0.4,0.7
		c0.2,0.1,0.5,0.1,1,0.2c0,0.1,0,0.4-0.1,0.5c-0.5,0-1.3,0-2.1,0c-0.8,0-1.6,0-2,0c-0.1-0.1-0.1-0.4,0-0.5c0.4,0,0.7-0.1,0.9-0.2
		c0.3-0.1,0.4-0.2,0.4-0.7c0-0.5,0-2.2,0-3.2c0,0,0-0.1-0.1-0.1c-0.3,0-1.7,0-2.5,0c-1.2,0-2.6,0-2.7,0c0,0,0,0.1,0,0.1
		c0,0.9,0,2.7,0,3.1c0,0.5,0.1,0.8,0.5,0.9c0.2,0.1,0.5,0.1,1,0.2c0.1,0.1,0,0.4-0.1,0.5c-0.3,0-1.1,0-2.1,0c-0.9,0-1.8,0-2.1,0
		c-0.1-0.1-0.1-0.4,0-0.5c0.4,0,0.6-0.1,0.9-0.1c0.5-0.1,0.5-0.4,0.6-1.2c0-0.5,0-1.9,0-3.3c0-1.5,0-3.2,0-3.5
		c0-0.4-0.1-0.6-0.4-0.7c-0.2-0.1-0.5-0.1-1-0.2C224.9,200,224.9,199.7,225,199.7z"/>
	<path class="st1" d="M239.9,208.4c-1-1.1-1.4-2.4-1.4-3.8c0-1.2,0.4-2.2,1-3.1c0.9-1.2,2.6-2,4.3-2c3.3,0,4.9,2.4,4.9,5
		c0,1.4-0.3,2.4-1,3.3c-1,1.4-2.6,2.1-4.2,2.1C242,209.8,240.7,209.3,239.9,208.4z M245.8,208.6c1-0.8,1.3-2.1,1.3-3.6
		c0-1.7-0.6-3.4-1.8-4.3c-0.6-0.4-1.3-0.6-2.1-0.6c-0.6,0-1,0.1-1.4,0.4c-1.2,0.7-1.7,2.1-1.7,3.8c0,1.7,0.6,3.5,2,4.4
		c0.6,0.4,1.2,0.5,2,0.5C244.8,209.1,245.4,208.9,245.8,208.6z"/>
	<path class="st1" d="M251,209.6c-0.1-0.1-0.1-0.4,0-0.5c0.5,0,0.8-0.1,1-0.2c0.3-0.1,0.5-0.2,0.5-0.8c0-1,0-2.3,0-3.7
		c0-1,0-2.8,0-3.4c0-0.6-0.2-0.7-0.6-0.8c-0.2,0-0.5-0.1-0.8-0.1c0-0.1,0-0.4,0-0.4c0.3,0,1.5,0,1.9,0c1,0,1.6-0.1,3.1-0.1
		c1.4,0,2.6,0.4,3.4,1.1c1,0.9,1.5,2.1,1.5,3.6c0,2.2-1,3.5-2,4.2c-1,0.7-2.2,1.1-3.8,1.1c-0.9,0-2.1,0-3.5-0.1H251z M254.4,208.7
		c0.3,0.3,1,0.4,1.7,0.4c0.8,0,1.6-0.2,2.3-0.8c0.8-0.7,1.2-1.8,1.2-3.5c0-1.6-0.6-3-1.8-3.8c-0.7-0.5-1.7-0.7-2.8-0.7
		c-0.3,0-0.7,0-0.8,0.1c-0.1,0-0.2,0.1-0.2,0.3c0,0.4,0,2.5,0,3.9c0,1.4,0,3.2,0,3.5C254.1,208.2,254.1,208.5,254.4,208.7z"/>
	<path class="st1" d="M263.8,199.7c0.3,0,1.2,0,2.1,0s1.6,0,2,0c0,0.1,0.1,0.4,0,0.4c-0.4,0-0.6,0.1-0.8,0.1
		c-0.4,0.1-0.4,0.3-0.5,0.8c0,0.7,0,2,0,3.4c0,1.6,0,3.1,0,3.7c0,0.5,0.1,0.7,0.6,0.8c0.2,0.1,0.6,0.1,0.9,0.2c0.1,0.1,0,0.4,0,0.5
		c-0.4,0-1.3,0-2.1,0c-0.9,0-1.7,0-2.2,0c-0.1,0-0.1-0.4,0-0.5c0.4,0,0.6-0.1,0.8-0.1c0.5-0.1,0.5-0.3,0.6-0.7
		c0.1-0.4,0.1-2.1,0.1-4.2c0-1.3,0-2.3,0-3.1c0-0.4-0.1-0.6-0.4-0.7c-0.2-0.1-0.5-0.1-1-0.2C263.7,200,263.7,199.7,263.8,199.7z"/>
	<path class="st1" d="M271.9,208.8c0.4,0.3,1,0.4,1.6,0.4c0.8,0,1.7-0.5,1.7-1.7c0-1.1-0.7-1.5-2.1-2.4c-1.4-0.8-2.4-1.6-2.4-3
		c0-1.7,1.4-2.7,3.1-2.7c1.1,0,1.8,0.2,2.4,0.3c-0.1,0.5-0.2,1.4-0.3,2.2c0,0.1-0.4,0.1-0.5,0c-0.1-0.9-0.2-1.4-0.6-1.6
		c-0.4-0.3-0.8-0.3-1.3-0.3c-1.1,0-1.7,0.8-1.7,1.6c0,0.9,0.4,1.4,1.1,1.8c0.6,0.4,1.4,0.8,2,1.1c0.8,0.5,1.5,1.2,1.5,2.4
		c0,1.6-1.3,3-3.5,3c-1,0-1.9-0.3-2.3-0.5c-0.1-0.2-0.4-1.9-0.4-2.4c0-0.1,0.4-0.2,0.5-0.1C271.1,207.8,271.4,208.4,271.9,208.8z"/>
	<path class="st1" d="M285.5,209.6c-0.5,0-1.4,0-2.4,0c-1.2,0-2,0-2.4,0c-0.1-0.1,0-0.4,0-0.5c0.5,0,0.9-0.1,1.1-0.2
		c0.5-0.1,0.6-0.4,0.6-1.2c0-1.2,0.1-4.7,0.1-7.3c0-0.1-0.1-0.1-0.1-0.1c-0.3,0-1.5,0-2.1,0c-0.3,0-0.5,0.1-0.7,0.4
		c-0.2,0.3-0.4,0.9-0.6,1.5c-0.1,0-0.5,0-0.5-0.1c0.1-0.7,0.3-1.9,0.3-2.6c0,0,0.1-0.1,0.2-0.1c0.3,0.1,0.7,0.2,1.3,0.2h5.9
		c0.7,0,1.1,0,1.5-0.2c0,0,0.1,0,0.2,0.1c-0.2,0.6-0.3,1.8-0.4,2.7c0,0.1-0.5,0.1-0.5,0c0-0.6-0.1-1.1-0.3-1.4
		c-0.1-0.3-0.3-0.4-0.6-0.5c-0.8,0-1.9,0-2.2,0c0,0-0.1,0.1-0.1,0.1c0,2.3,0,6.8,0,7.6c0,0.6,0.2,0.8,0.5,0.8
		c0.3,0.1,0.5,0.1,1.1,0.2C285.6,209.2,285.6,209.6,285.5,209.6z"/>
	<path class="st1" d="M294.5,199.6c0.4,0,1.2,0.1,2.1,0.1h3.1c0.6,0,1.4,0,1.8-0.1c0,0,0.1,0.1,0.1,0.1c-0.1,0.5-0.2,1.5-0.3,2.2
		c-0.1,0.1-0.4,0.1-0.5,0c0-0.5-0.1-0.7-0.2-1c-0.1-0.4-0.3-0.6-0.8-0.6c-0.3,0-2.2,0-2.4,0c-0.1,0-0.2,0.2-0.2,0.3
		c0,0.9,0,2.7,0,3.4c0,0,0,0.1,0.1,0.1c0.6,0,1.9,0,2.4,0c0.4,0,0.5-0.2,0.5-0.5c0.1-0.2,0.1-0.4,0.2-0.6c0.1,0,0.5,0,0.5,0
		c0,0.3-0.1,0.9-0.1,1.5c0,0.6,0,1.1,0,1.5c-0.1,0.1-0.5,0.1-0.5,0c0-0.3-0.1-0.5-0.1-0.7c-0.1-0.2-0.2-0.4-0.5-0.5
		c-0.5,0-1.8,0-2.4,0c0,0-0.1,0.1-0.1,0.1c0,0.7,0,2.4,0,3.2c0,0.3,0.2,0.5,0.4,0.6c0.3,0.1,1.7,0.1,2.4,0.1c0.7,0,0.9-0.2,1.2-0.5
		c0.3-0.3,0.6-0.9,0.8-1.4c0.1,0,0.4,0.1,0.5,0.2c-0.1,0.5-0.4,1.7-0.7,2.2c-0.1,0.2-0.2,0.3-1,0.3c-1.3,0-2.5-0.1-4.2-0.1
		c-1.1,0-1.9,0-2.5,0c-0.1,0-0.1-0.4,0-0.5c0.5,0,0.9-0.1,1.2-0.2c0.4-0.1,0.5-0.3,0.5-0.9c0-0.3,0-2.1,0-3.9c0-1.5,0-2.9,0-3.2
		c0-0.6-0.1-0.7-0.5-0.8c-0.2-0.1-0.5-0.1-0.8-0.2C294.4,200,294.4,199.7,294.5,199.6z"/>
	<path class="st1" d="M307.9,205.2c0-0.1,0-0.1,0.1-0.1c0.1,0,0.4,0,0.6,0c0.5,0,0.8-0.1,1.1-0.2c0.7-0.4,1-1.2,1-2.1
		c0-1.5-0.7-2.5-2.6-2.5c-0.2,0-0.6,0-0.7,0.1c0,0-0.1,0.1-0.1,0.2c0,0.4,0,1.2,0,3.8c0,1.8,0,3,0,3.9c0,0.6,0.1,0.7,0.6,0.8
		c0.2,0.1,0.6,0.1,1,0.1c0.1,0.1,0,0.4,0,0.5c-0.5,0-1.6,0-2.2,0c-0.7,0-1.7,0-2.1,0c-0.1-0.1-0.1-0.4,0-0.4c0.3,0,0.7-0.1,0.8-0.1
		c0.4-0.1,0.5-0.3,0.5-0.9c0-0.5,0-1.9,0-3.6c0-1.8,0-2.9,0-3.4c0-0.6-0.1-0.8-0.6-0.8c-0.2,0-0.5-0.1-0.8-0.1c-0.1-0.1,0-0.4,0-0.4
		c0.3,0,1.1,0,1.9,0c1,0,1.6,0,2.6,0c0.5,0,1.5,0.1,2.1,0.6c0.5,0.4,1,1.1,1,2.2c0,1.5-0.9,2.4-1.7,2.8c-0.6,0.3-1.1,0.4-1.7,0.4
		c-0.3,0-0.5,0-0.7-0.1C308,205.5,307.9,205.2,307.9,205.2z"/>
	<path class="st1" d="M314.4,199.7c0.3,0,1.2,0,2.1,0s1.6,0,2,0c0,0.1,0.1,0.4,0,0.4c-0.4,0-0.6,0.1-0.8,0.1
		c-0.4,0.1-0.4,0.3-0.5,0.8c0,0.7,0,2,0,3.4c0,1.6,0,3.1,0,3.7c0,0.5,0.1,0.7,0.6,0.8c0.2,0.1,0.6,0.1,0.9,0.2c0.1,0.1,0,0.4,0,0.5
		c-0.4,0-1.3,0-2.1,0c-0.9,0-1.7,0-2.2,0c-0.1,0-0.1-0.4,0-0.5c0.4,0,0.6-0.1,0.8-0.1c0.5-0.1,0.5-0.3,0.6-0.7
		c0.1-0.4,0.1-2.1,0.1-4.2c0-1.3,0-2.3,0-3.1c0-0.4-0.1-0.6-0.4-0.7c-0.2-0.1-0.5-0.1-1-0.2C314.3,200,314.4,199.7,314.4,199.7z"/>
	<path class="st1" d="M322.6,208.8c0.4,0.3,1,0.4,1.6,0.4c0.8,0,1.7-0.5,1.7-1.7c0-1.1-0.7-1.5-2.1-2.4c-1.4-0.8-2.4-1.6-2.4-3
		c0-1.7,1.4-2.7,3.1-2.7c1.1,0,1.8,0.2,2.4,0.3c-0.1,0.5-0.2,1.4-0.3,2.2c0,0.1-0.4,0.1-0.5,0c-0.1-0.9-0.2-1.4-0.6-1.6
		c-0.4-0.3-0.8-0.3-1.3-0.3c-1.1,0-1.7,0.8-1.7,1.6c0,0.9,0.4,1.4,1.1,1.8c0.6,0.4,1.4,0.8,2,1.1c0.8,0.5,1.5,1.2,1.5,2.4
		c0,1.6-1.3,3-3.5,3c-1,0-1.9-0.3-2.3-0.5c-0.1-0.2-0.4-1.9-0.4-2.4c0-0.1,0.4-0.2,0.5-0.1C321.7,207.8,322,208.4,322.6,208.8z"/>
	<path class="st1" d="M337.1,200.3c-0.5-0.3-1.2-0.4-2-0.4c-2.3,0-3.6,1.7-3.6,4.4c0,2.6,1.4,4.7,4.3,4.7c0.7,0,1.4-0.2,1.8-0.5
		c0.4-0.3,0.8-0.9,1.2-1.6c0.1,0,0.4,0.1,0.4,0.3c-0.2,0.7-0.8,1.9-1.2,2.2c-0.5,0.2-1.5,0.4-2.4,0.4c-3.6,0-5.5-1.9-5.5-5.3
		c0-1.7,0.8-3.5,2.5-4.4c0.8-0.5,1.9-0.7,3.2-0.7c1.4,0,2.4,0.3,3.1,0.3c-0.1,0.6-0.2,1.7-0.3,2.5c-0.1,0.1-0.5,0.1-0.5,0
		C337.9,201,337.7,200.6,337.1,200.3z"/>
	<path class="st1" d="M343,208.4c-1-1.1-1.4-2.4-1.4-3.8c0-1.2,0.4-2.2,1-3.1c0.9-1.2,2.6-2,4.3-2c3.3,0,4.9,2.4,4.9,5
		c0,1.4-0.3,2.4-1,3.3c-1,1.4-2.6,2.1-4.2,2.1C345.1,209.8,343.8,209.3,343,208.4z M348.9,208.6c1-0.8,1.3-2.1,1.3-3.6
		c0-1.7-0.6-3.4-1.8-4.3c-0.6-0.4-1.3-0.6-2.1-0.6c-0.6,0-1,0.1-1.4,0.4c-1.2,0.7-1.7,2.1-1.7,3.8c0,1.7,0.6,3.5,2,4.4
		c0.6,0.4,1.2,0.5,2,0.5C347.9,209.1,348.5,208.9,348.9,208.6z"/>
	<path class="st1" d="M357.7,205.2c0-0.1,0-0.1,0.1-0.1c0.1,0,0.4,0,0.6,0c0.5,0,0.8-0.1,1.1-0.2c0.7-0.4,1-1.2,1-2.1
		c0-1.5-0.7-2.5-2.6-2.5c-0.2,0-0.6,0-0.7,0.1c0,0-0.1,0.1-0.1,0.2c0,0.4,0,1.2,0,3.8c0,1.8,0,3,0,3.9c0,0.6,0.1,0.7,0.6,0.8
		c0.2,0.1,0.6,0.1,1,0.1c0.1,0.1,0,0.4,0,0.5c-0.5,0-1.6,0-2.2,0c-0.7,0-1.7,0-2.1,0c-0.1-0.1-0.1-0.4,0-0.4c0.3,0,0.7-0.1,0.8-0.1
		c0.4-0.1,0.5-0.3,0.5-0.9c0-0.5,0-1.9,0-3.6c0-1.8,0-2.9,0-3.4c0-0.6-0.1-0.8-0.6-0.8c-0.2,0-0.5-0.1-0.8-0.1c-0.1-0.1,0-0.4,0-0.4
		c0.3,0,1.1,0,1.9,0c1,0,1.6,0,2.6,0c0.5,0,1.5,0.1,2.1,0.6c0.5,0.4,1,1.1,1,2.2c0,1.5-0.9,2.4-1.7,2.8c-0.6,0.3-1.1,0.4-1.7,0.4
		c-0.3,0-0.5,0-0.7-0.1C357.8,205.5,357.7,205.2,357.7,205.2z"/>
	<path class="st1" d="M364.4,207.6c0.8-1.9,2.3-6,2.7-7c0.1-0.3,0.2-0.7,0.3-0.9c0.1,0,0.3,0,0.5,0c0.3,0,0.5,0,0.5,0
		c0.1,0.2,0.1,0.5,0.3,0.8c0.3,0.9,2.1,6,2.7,7.3c0.5,1.1,0.6,1.2,1.7,1.3c0.1,0,0,0.4,0,0.5c-0.4,0-1.2,0-1.9,0c-0.8,0-1.8,0-2.1,0
		c0-0.1-0.1-0.4,0-0.5c0.4,0,0.6-0.1,0.9-0.2c0.2-0.1,0.2-0.3,0.2-0.4c-0.2-0.7-0.7-2-1-2.7c0,0-0.1-0.1-0.1-0.1c-0.2,0-0.8,0-1.5,0
		c-1,0-1.1,0-1.3,0c-0.1,0-0.1,0.1-0.2,0.1c-0.3,0.9-0.8,2.2-0.9,2.6c0,0.3,0,0.4,0.5,0.6c0.2,0,0.5,0.1,0.8,0.1c0,0.1,0,0.4,0,0.5
		c-0.3,0-1.2,0-2,0c-0.9,0-1.4,0-1.7,0c-0.1-0.1-0.1-0.4,0-0.5C363.7,209,363.9,208.9,364.4,207.6z M367.5,201.4
		c-0.3,0.8-0.9,2.6-1.2,3.5c0,0.1,0,0.1,0.1,0.1c0.2,0,0.7,0,1.3,0c0.4,0,0.9,0,1.1,0c0,0,0.1-0.1,0-0.1
		C368.4,203.8,367.8,202,367.5,201.4C367.5,201.4,367.5,201.3,367.5,201.4z"/>
	<path class="st1" d="M374.5,199.7c0.5,0,1,0,2,0c1.1,0,1.7,0,2,0c0.1,0.1,0.1,0.4,0,0.4c-0.4,0-0.6,0.1-0.8,0.1
		c-0.4,0.1-0.4,0.3-0.4,0.6c0,0.6,0,1.9,0,3.5c0,2,0,3.3,0,4c0,0.3,0.2,0.4,0.3,0.4c0.4,0.1,2,0.1,2.7,0.1c0.3,0,0.6-0.1,0.9-0.6
		c0.3-0.4,0.7-1.1,0.9-1.8c0.1,0,0.4,0.1,0.5,0.2c-0.1,0.6-0.6,2.2-0.8,2.7c-0.1,0.1-0.2,0.2-0.7,0.2c-1,0-3.8-0.1-4.6-0.1
		c-0.8,0-2,0-2.3,0c-0.1,0-0.1-0.4,0-0.5c0.5,0,0.8-0.1,1.1-0.1c0.4-0.1,0.5-0.3,0.5-0.7c0-0.4,0.1-2,0.1-4.1c0-1.7,0-2.7,0-3.1
		c0-0.7-0.1-0.8-0.5-0.9c-0.2,0-0.6-0.1-0.9-0.1C374.4,200,374.4,199.7,374.5,199.7z"/>
	<path class="st1" d="M396.3,200.3c-0.5-0.3-1.2-0.4-2-0.4c-2.3,0-3.6,1.7-3.6,4.4c0,2.6,1.4,4.7,4.3,4.7c0.7,0,1.4-0.2,1.8-0.5
		c0.4-0.3,0.8-0.9,1.2-1.6c0.1,0,0.4,0.1,0.4,0.3c-0.2,0.7-0.8,1.9-1.2,2.2c-0.5,0.2-1.5,0.4-2.4,0.4c-3.6,0-5.5-1.9-5.5-5.3
		c0-1.7,0.8-3.5,2.5-4.4c0.8-0.5,1.9-0.7,3.2-0.7c1.4,0,2.4,0.3,3.1,0.3c-0.1,0.6-0.2,1.7-0.3,2.5c-0.1,0.1-0.5,0.1-0.5,0
		C397.1,201,396.9,200.6,396.3,200.3z"/>
	<path class="st1" d="M400.4,199.7c0.4,0,1.2,0,2,0c1.1,0,1.5,0,2,0c0,0.1,0,0.4,0,0.4c-0.3,0-0.6,0.1-0.8,0.1
		c-0.3,0.1-0.4,0.2-0.4,0.7c0,0.6,0,1.4,0,3c0,0.1,0,0.1,0.1,0.2c0.1,0,0.4,0,2.7,0c1.8,0,2.4,0,2.5,0c0,0,0.1-0.1,0.1-0.1
		c0-0.8,0-2.6,0-3.2c0-0.3-0.1-0.4-0.3-0.5c-0.2-0.1-0.5-0.1-0.9-0.2c-0.1-0.1-0.1-0.4,0-0.5c0.4,0,1.2,0.1,2,0.1c0.8,0,1.7,0,2,0
		c0,0.1,0.1,0.4,0,0.4c-0.4,0-0.6,0.1-0.8,0.2c-0.4,0.1-0.4,0.3-0.4,0.9c0,0.6,0,1.5,0,3.4c0,1.4,0,3.1,0,3.7c0,0.4,0.1,0.6,0.4,0.7
		c0.2,0.1,0.5,0.1,1,0.2c0,0.1,0,0.4-0.1,0.5c-0.5,0-1.3,0-2.1,0c-0.8,0-1.6,0-2,0c-0.1-0.1-0.1-0.4,0-0.5c0.4,0,0.7-0.1,0.9-0.2
		c0.3-0.1,0.4-0.2,0.4-0.7c0-0.5,0-2.2,0-3.2c0,0,0-0.1-0.1-0.1c-0.3,0-1.7,0-2.5,0c-1.2,0-2.6,0-2.7,0c0,0,0,0.1,0,0.1
		c0,0.9,0,2.7,0,3.1c0,0.5,0.1,0.8,0.5,0.9c0.2,0.1,0.5,0.1,1,0.2c0.1,0.1,0,0.4-0.1,0.5c-0.3,0-1.1,0-2.1,0c-0.9,0-1.8,0-2.1,0
		c-0.1-0.1-0.1-0.4,0-0.5c0.4,0,0.6-0.1,0.9-0.1c0.5-0.1,0.5-0.4,0.6-1.2c0-0.5,0-1.9,0-3.3c0-1.5,0-3.2,0-3.5
		c0-0.4-0.1-0.6-0.4-0.7c-0.2-0.1-0.5-0.1-1-0.2C400.4,200,400.4,199.7,400.4,199.7z"/>
	<path class="st1" d="M413.5,199.7c0.3,0,1.3,0,2,0c0.8,0,1.5,0,1.9,0c0.1,0,0.1,0.4,0,0.4c-0.4,0.1-0.6,0.1-0.8,0.1
		c-0.4,0.1-0.5,0.3-0.5,0.8c0,1.6,0,3.7,0,4.6c0,0.7,0.1,1.3,0.3,1.6c0.3,0.9,1.2,1.6,2.8,1.6c1.3,0,2.6-0.4,2.8-2.9
		c0.1-1.2,0.1-3,0-4.6c0-0.8-0.2-1-0.7-1.1c-0.2-0.1-0.5-0.1-0.8-0.1c-0.1-0.1,0-0.4,0-0.4c0.3,0,1,0,1.9,0c0.7,0,1.4,0,1.7,0
		c0,0,0.1,0.4,0,0.4c-0.2,0.1-0.5,0.1-0.7,0.2c-0.5,0.1-0.6,0.4-0.6,1.2c-0.1,3.3,0,4.4-0.3,5.6c-0.5,2.2-2.2,2.8-3.9,2.8
		c-2.5,0-3.6-1.2-3.9-2.9c-0.1-1-0.1-5.1-0.1-5.9c0-0.4-0.1-0.7-0.4-0.8c-0.2-0.1-0.5-0.1-0.8-0.2
		C413.4,200.1,413.4,199.7,413.5,199.7z"/>
	<path class="st1" d="M426,199.7c0.4,0,1.3,0,1.8,0c1.2,0,2,0,2.7,0c1.9,0,2.9,1.1,2.9,2.5c0,1.3-0.9,2.1-1.8,2.6c0,0,0,0.1,0,0.1
		c0.6,0.9,1.8,2.7,2.6,3.5c0.7,0.7,0.9,0.8,1.8,0.9c0,0,0,0.4-0.1,0.4c-0.7,0-2,0-2.6-0.3c-0.2-0.1-0.5-0.3-0.8-0.6
		c-0.6-0.7-1.6-2.3-2.2-3.2c-0.1-0.2-0.3-0.2-0.4-0.2c-0.2,0-0.9,0-1.1,0c0,0-0.1,0.1-0.1,0.1c0,0.9,0,2.4,0,2.9
		c0,0.5,0.1,0.7,0.5,0.8c0.2,0,0.5,0.1,0.9,0.1c0.1,0.1,0,0.4,0,0.5c-0.3,0-1.1,0-2.1,0c-1,0-1.7,0-2,0c-0.1-0.1-0.1-0.4,0-0.5
		c0.4,0,0.6-0.1,0.8-0.1c0.4-0.1,0.5-0.3,0.5-0.9c0-0.4,0-2.5,0-3.4c0-1.6,0-3.2,0-3.7c0-0.4-0.1-0.6-0.5-0.7
		c-0.2,0-0.5-0.1-0.9-0.1C425.9,200,425.9,199.7,426,199.7z M428.9,200.3c0,0-0.1,0.2-0.1,0.2c0,0.5,0,2.7,0,4c0,0,0,0.1,0.1,0.1
		c1.1,0,1.8,0,2.1-0.1c0.5-0.2,1-0.8,1-1.9c0-1.5-0.8-2.4-2.5-2.4C429.3,200.2,429,200.2,428.9,200.3z"/>
	<path class="st1" d="M444.4,200.3c-0.5-0.3-1.2-0.4-2-0.4c-2.3,0-3.6,1.7-3.6,4.4c0,2.6,1.4,4.7,4.3,4.7c0.7,0,1.4-0.2,1.8-0.5
		c0.4-0.3,0.8-0.9,1.2-1.6c0.1,0,0.4,0.1,0.4,0.3c-0.2,0.7-0.8,1.9-1.2,2.2c-0.5,0.2-1.5,0.4-2.4,0.4c-3.6,0-5.5-1.9-5.5-5.3
		c0-1.7,0.8-3.5,2.5-4.4c0.8-0.5,1.9-0.7,3.2-0.7s2.4,0.3,3.1,0.3c-0.1,0.6-0.2,1.7-0.3,2.5c-0.1,0.1-0.5,0.1-0.5,0
		C445.2,201,445,200.6,444.4,200.3z"/>
	<path class="st1" d="M448.6,199.7c0.4,0,1.2,0,2,0c1.1,0,1.5,0,2,0c0,0.1,0,0.4,0,0.4c-0.3,0-0.6,0.1-0.8,0.1
		c-0.3,0.1-0.4,0.2-0.4,0.7c0,0.6,0,1.4,0,3c0,0.1,0,0.1,0.1,0.2c0.1,0,0.4,0,2.7,0c1.8,0,2.4,0,2.5,0c0,0,0.1-0.1,0.1-0.1
		c0-0.8,0-2.6,0-3.2c0-0.3-0.1-0.4-0.3-0.5c-0.2-0.1-0.5-0.1-0.9-0.2c-0.1-0.1-0.1-0.4,0-0.5c0.4,0,1.2,0.1,2,0.1c0.8,0,1.7,0,2,0
		c0,0.1,0.1,0.4,0,0.4c-0.4,0-0.6,0.1-0.8,0.2c-0.4,0.1-0.4,0.3-0.4,0.9c0,0.6,0,1.5,0,3.4c0,1.4,0,3.1,0,3.7c0,0.4,0.1,0.6,0.4,0.7
		c0.2,0.1,0.5,0.1,1,0.2c0,0.1,0,0.4-0.1,0.5c-0.5,0-1.3,0-2.1,0c-0.8,0-1.6,0-2,0c-0.1-0.1-0.1-0.4,0-0.5c0.4,0,0.7-0.1,0.9-0.2
		c0.3-0.1,0.4-0.2,0.4-0.7c0-0.5,0-2.2,0-3.2c0,0,0-0.1-0.1-0.1c-0.3,0-1.7,0-2.5,0c-1.2,0-2.6,0-2.7,0c0,0,0,0.1,0,0.1
		c0,0.9,0,2.7,0,3.1c0,0.5,0.1,0.8,0.5,0.9c0.2,0.1,0.5,0.1,1,0.2c0.1,0.1,0,0.4-0.1,0.5c-0.3,0-1.1,0-2.1,0c-0.9,0-1.8,0-2.1,0
		c-0.1-0.1-0.1-0.4,0-0.5c0.4,0,0.6-0.1,0.9-0.1c0.5-0.1,0.5-0.4,0.6-1.2c0-0.5,0-1.9,0-3.3c0-1.5,0-3.2,0-3.5
		c0-0.4-0.1-0.6-0.4-0.7c-0.2-0.1-0.5-0.1-1-0.2C448.5,200,448.5,199.7,448.6,199.7z"/>
</g>
<g>
	<path class="st1" d="M284.5,57.9c-0.1,0.4-0.5,1.2-1,1.6c-0.3,0.2-0.5,0.3-0.8,0.3c-1.1,0-2.1-0.1-2.5-0.1c-0.1,0-0.3,0.1-0.3,0.2
		c-0.3,0.5-0.7,1.4-0.8,1.9c0,0.1,0,0.3,0.1,0.3c1.1,0.6,3.2,1.6,4.3,2.4c1.3,1,1.9,1.9,1.9,3.4c0,3-3,4.9-5.5,4.9
		c-1.6,0-2.6-0.6-3.1-1.1c-0.2-0.2-0.3-0.5-0.3-0.7c0-0.3,0.2-1,0.4-1.2c0,0,0.3-0.1,0.3-0.1c0.7,1.1,1.9,2.2,3.7,2.2
		c1.6,0,2.7-1.1,2.7-2.6c0-1.4-0.4-2.2-2-3.3c-1.3-0.9-3.2-1.7-3.8-2.1c-0.1-0.1-0.1-0.6,0-0.7c0.4-1.4,1.7-4.3,2.2-4.9
		c0.1-0.1,0.3-0.3,0.5-0.3c0.5,0,1.8,0.1,2.6,0.1c0.6,0,0.8-0.1,1.2-0.4C284.3,57.6,284.5,57.8,284.5,57.9z"/>
	<path class="st1" d="M299.2,72c-0.7,0-2.1-0.1-3.5-0.1c-1.7,0-2.9,0.1-3.5,0.1c-0.1-0.1-0.1-0.6,0-0.7c0.7-0.1,1.3-0.1,1.7-0.2
		c0.7-0.1,0.9-0.6,0.9-1.7c0.1-1.8,0.1-6.8,0.1-10.7c0-0.1-0.1-0.2-0.2-0.2c-0.4,0-2.1,0-3,0c-0.4,0-0.7,0.2-1,0.7
		c-0.3,0.4-0.6,1.3-0.9,2.2c-0.1,0.1-0.7-0.1-0.7-0.2c0.2-1,0.4-2.9,0.5-3.9c0,0,0.2-0.1,0.3-0.1c0.4,0.2,1,0.4,1.9,0.4h8.7
		c1.1,0,1.6,0,2.3-0.4c0.1,0,0.2,0.1,0.2,0.1c-0.2,0.8-0.4,2.7-0.5,4c-0.1,0.1-0.7,0.1-0.7,0c-0.1-0.8-0.2-1.6-0.4-2.1
		c-0.2-0.5-0.5-0.7-0.9-0.7c-1.1,0-2.7,0-3.3,0c-0.1,0-0.1,0.1-0.1,0.2c0,3.4,0,9.9,0.1,11.1c0.1,0.8,0.3,1.1,0.8,1.2
		c0.4,0.1,0.8,0.2,1.6,0.3C299.4,71.4,299.3,72,299.2,72z"/>
	<path class="st1" d="M306,57.5c0.6,0,1.7,0.1,3,0.1c1.6,0,2.3-0.1,2.9-0.1c0.1,0.1,0.1,0.6,0,0.7c-0.4,0.1-0.9,0.1-1.1,0.2
		c-0.5,0.1-0.6,0.3-0.7,1.1c0,0.9,0,2.1,0,4.4c0,0.1,0,0.2,0.1,0.2c0.2,0,0.6,0,4,0c2.6,0,3.5,0,3.7,0c0.1,0,0.1-0.1,0.1-0.1
		c0-1.2,0-3.9,0-4.7c0-0.4-0.1-0.7-0.5-0.8c-0.4-0.1-0.8-0.2-1.4-0.3c-0.1-0.1-0.1-0.6,0-0.7c0.5,0,1.7,0.1,2.9,0.1
		c1.2,0,2.5-0.1,2.9-0.1c0.1,0.1,0.1,0.6,0,0.7c-0.5,0.1-0.9,0.1-1.2,0.2c-0.5,0.2-0.6,0.4-0.7,1.3c0,0.8,0,2.2,0,5c0,2,0,4.6,0,5.4
		c0.1,0.7,0.2,0.9,0.7,1.1c0.3,0.1,0.8,0.2,1.5,0.3c0.1,0.1,0,0.6-0.1,0.7c-0.7,0-1.9-0.1-3.1-0.1c-1.2,0-2.4,0-3,0.1
		c-0.1-0.1-0.1-0.6,0-0.7c0.6-0.1,1-0.1,1.3-0.2c0.4-0.1,0.6-0.4,0.6-1.1c0-0.7,0-3.2,0-4.7c0-0.1-0.1-0.2-0.1-0.2
		c-0.4,0-2.4,0-3.7,0c-1.8,0-3.7,0-4,0c0,0-0.1,0.1-0.1,0.1c0,1.3,0,4,0,4.5c0,0.8,0.1,1.1,0.7,1.3c0.4,0.1,0.7,0.2,1.4,0.3
		c0.1,0.1,0,0.6-0.1,0.7c-0.4,0-1.5-0.1-3-0.1c-1.4,0-2.6,0.1-3.1,0.1c-0.1-0.1-0.1-0.6,0-0.7c0.6-0.1,0.9-0.1,1.3-0.2
		c0.7-0.2,0.7-0.6,0.8-1.7c0-0.8,0-2.8,0-4.8c0-2.3,0-4.7,0-5.2c0-0.7-0.2-0.9-0.7-1c-0.4-0.1-0.8-0.2-1.4-0.3
		C305.8,58,305.9,57.6,306,57.5z"/>
	<path class="st1" d="M331.6,57.5c0.6,0,1.8,0.1,3.1,0.1h4.6c0.9,0,2.1,0,2.6-0.1c0,0,0.1,0.1,0.1,0.1c-0.2,0.7-0.4,2.3-0.4,3.2
		c-0.1,0.1-0.7,0.1-0.7,0c-0.1-0.7-0.2-1.1-0.3-1.4c-0.2-0.6-0.4-0.8-1.2-0.9c-0.4,0-3.3,0-3.6,0c-0.2,0-0.3,0.3-0.3,0.4
		c0,1.3,0,3.9,0,5c0,0.1,0,0.2,0.1,0.2c0.9,0,2.7,0,3.6,0c0.5,0,0.7-0.3,0.8-0.7c0.1-0.3,0.2-0.6,0.3-0.9c0.1-0.1,0.7,0,0.8,0.1
		c-0.1,0.5-0.2,1.4-0.2,2.2c0,0.9,0,1.5,0,2.1c-0.1,0.1-0.7,0.1-0.8,0c-0.1-0.5-0.1-0.7-0.2-1c-0.1-0.3-0.3-0.6-0.8-0.7
		c-0.7-0.1-2.6-0.1-3.5,0c0,0-0.1,0.1-0.1,0.2c0,1.1,0,3.6,0,4.7c0,0.5,0.3,0.8,0.5,0.9c0.5,0.1,2.5,0.1,3.5,0.1
		c1,0,1.3-0.2,1.7-0.8c0.4-0.4,0.9-1.4,1.2-2.1c0.1,0,0.6,0.1,0.7,0.3c-0.1,0.7-0.6,2.5-1,3.2c-0.1,0.3-0.3,0.4-1.4,0.4
		c-2,0-3.6-0.1-6.1-0.1c-1.6,0-2.7,0.1-3.7,0.1c-0.1-0.1-0.1-0.6,0-0.7c0.7-0.1,1.4-0.1,1.8-0.2c0.6-0.1,0.7-0.4,0.8-1.3
		c0-0.4,0-3,0-5.7c0-2.1,0-4.2,0-4.6c0-0.8-0.1-1.1-0.7-1.2c-0.3-0.1-0.7-0.2-1.2-0.2C331.4,58,331.5,57.6,331.6,57.5z"/>
	<path class="st1" d="M351.2,65.5c0-0.1,0-0.2,0.1-0.2c0.2,0,0.6,0.1,0.9,0.1c0.7,0,1.2-0.1,1.6-0.4c1.1-0.6,1.4-1.7,1.4-3
		c0-2.2-1.1-3.7-3.7-3.7c-0.2,0-0.8,0-1,0.1c-0.1,0-0.2,0.2-0.2,0.3c0,0.5,0,1.8,0,5.5c0,2.7,0,4.4,0,5.6c0.1,0.8,0.2,1,0.9,1.2
		c0.3,0.1,0.8,0.1,1.4,0.2c0.1,0.1,0,0.6,0,0.7c-0.7,0-2.3-0.1-3.2-0.1c-1.1,0-2.5,0.1-3.1,0.1c-0.1-0.1-0.1-0.6,0-0.7
		c0.5-0.1,1-0.1,1.2-0.2c0.6-0.2,0.7-0.4,0.7-1.4c0-0.8,0.1-2.7,0.1-5.2c0-2.7,0-4.3,0-5c0-0.8-0.2-1.1-0.8-1.2
		c-0.3-0.1-0.7-0.1-1.1-0.2c-0.1-0.1,0-0.6,0-0.7c0.4,0,1.7,0.1,2.8,0.1c1.4,0,2.4,0,3.8,0c0.8,0,2.2,0.2,3.1,0.9
		c0.8,0.6,1.4,1.6,1.4,3.2c0,2.2-1.3,3.5-2.5,4.1c-0.8,0.4-1.7,0.6-2.5,0.6c-0.4,0-0.7,0-1-0.1C351.3,66,351.2,65.6,351.2,65.5z"/>
	<path class="st1" d="M360.7,57.5c0.5,0,1.8,0.1,3,0.1s2.3-0.1,2.9-0.1c0.1,0.1,0.1,0.5,0,0.7c-0.5,0.1-0.9,0.1-1.2,0.2
		c-0.5,0.1-0.6,0.4-0.7,1.2c-0.1,1,0,2.9,0,5c0,2.3,0,4.6,0,5.4c0,0.7,0.1,1.1,0.8,1.2c0.3,0.1,0.8,0.2,1.4,0.2c0.1,0.1,0,0.6,0,0.7
		c-0.6,0-1.9-0.1-3-0.1c-1.3,0-2.5,0.1-3.3,0.1c-0.1-0.1-0.1-0.6,0-0.7c0.5,0,0.9-0.1,1.2-0.2c0.7-0.1,0.8-0.5,0.8-1
		c0.1-0.7,0.1-3.1,0.1-6.1c0-1.9,0-3.4-0.1-4.5c0-0.6-0.1-0.9-0.6-1.1c-0.4-0.1-0.8-0.2-1.4-0.3C360.6,58,360.7,57.5,360.7,57.5z"/>
	<path class="st1" d="M372.7,70.9c0.6,0.4,1.4,0.6,2.3,0.6c1.2,0,2.5-0.7,2.5-2.5c0-1.5-1-2.3-3.1-3.5c-2.1-1.2-3.5-2.3-3.5-4.4
		c0-2.5,2.1-4,4.6-4c1.6,0,2.6,0.3,3.6,0.4c-0.2,0.8-0.3,2.1-0.4,3.2c-0.1,0.1-0.6,0.1-0.7,0c-0.1-1.4-0.4-2-0.9-2.4
		c-0.5-0.4-1.2-0.5-1.9-0.5c-1.6,0-2.4,1.2-2.5,2.4c0,1.3,0.6,2,1.6,2.7c0.9,0.6,2.1,1.2,2.9,1.6c1.2,0.8,2.2,1.8,2.2,3.5
		c0,2.3-1.9,4.3-5.2,4.3c-1.4,0-2.8-0.4-3.4-0.7c-0.2-0.3-0.6-2.7-0.7-3.5c0-0.1,0.6-0.3,0.7-0.2C371.4,69.4,371.9,70.3,372.7,70.9z
		"/>
	<path class="st1" d="M394,58.5c-0.8-0.4-1.8-0.5-2.9-0.5c-3.4,0-5.3,2.5-5.3,6.5c0,3.7,2.1,6.9,6.2,6.9c1,0,2-0.3,2.6-0.8
		c0.6-0.5,1.1-1.3,1.8-2.3c0.1,0,0.5,0.2,0.6,0.4c-0.2,1-1.2,2.8-1.8,3.2c-0.7,0.2-2.2,0.6-3.6,0.6c-5.2,0-8.1-2.9-8.1-7.7
		c0-2.5,1.1-5.1,3.7-6.4c1.2-0.7,2.8-1.1,4.7-1.1s3.6,0.4,4.6,0.5c-0.1,0.8-0.4,2.5-0.4,3.6c-0.1,0.1-0.7,0.2-0.7,0
		C395.2,59.4,394.9,58.9,394,58.5z"/>
	<path class="st1" d="M402.6,70.2c-1.4-1.5-2-3.5-2-5.6c0-1.7,0.5-3.2,1.5-4.5c1.3-1.8,3.8-3,6.2-3c4.8,0,7.2,3.5,7.2,7.3
		c0,2.1-0.5,3.5-1.4,4.9c-1.4,2-3.8,3.1-6.2,3.1C405.6,72.4,403.8,71.5,402.6,70.2z M411.2,70.5c1.4-1.2,2-3.1,2-5.3
		c0-2.5-0.8-5-2.7-6.2c-0.8-0.6-1.8-0.9-3.1-0.9c-0.8,0-1.5,0.2-2.1,0.5c-1.7,1-2.5,3.1-2.5,5.5c0,2.5,0.9,5.1,3,6.5
		c0.8,0.5,1.7,0.8,2.9,0.8C409.7,71.3,410.6,71,411.2,70.5z"/>
	<path class="st1" d="M424.1,65.5c0-0.1,0-0.2,0.1-0.2c0.2,0,0.6,0.1,0.9,0.1c0.7,0,1.2-0.1,1.6-0.4c1.1-0.6,1.4-1.7,1.4-3
		c0-2.2-1.1-3.7-3.7-3.7c-0.2,0-0.8,0-1,0.1c-0.1,0-0.2,0.2-0.2,0.3c0,0.5,0,1.8,0,5.5c0,2.7,0,4.4,0,5.6c0.1,0.8,0.2,1,0.9,1.2
		c0.3,0.1,0.8,0.1,1.4,0.2c0.1,0.1,0,0.6,0,0.7c-0.7,0-2.3-0.1-3.2-0.1c-1.1,0-2.5,0.1-3.1,0.1c-0.1-0.1-0.1-0.6,0-0.7
		c0.5-0.1,1-0.1,1.2-0.2c0.6-0.2,0.7-0.4,0.7-1.4c0-0.8,0.1-2.7,0.1-5.2c0-2.7,0-4.3,0-5c0-0.8-0.2-1.1-0.8-1.2
		c-0.3-0.1-0.7-0.1-1.1-0.2c-0.1-0.1,0-0.6,0-0.7c0.4,0,1.7,0.1,2.8,0.1c1.4,0,2.4,0,3.8,0c0.8,0,2.2,0.2,3.1,0.9
		c0.8,0.6,1.4,1.6,1.4,3.2c0,2.2-1.3,3.5-2.5,4.1c-0.8,0.4-1.7,0.6-2.5,0.6c-0.4,0-0.7,0-1-0.1C424.3,66,424.1,65.6,424.1,65.5z"/>
	<path class="st1" d="M433.9,69.1c1.2-2.8,3.4-8.8,3.9-10.3c0.2-0.5,0.4-1,0.4-1.3c0.1,0,0.4,0,0.8,0c0.5,0,0.7,0,0.8,0
		c0.1,0.4,0.2,0.8,0.4,1.2c0.5,1.3,3.1,8.7,3.9,10.7c0.7,1.6,0.8,1.7,2.5,1.9c0.1,0.1,0,0.6,0,0.7c-0.6,0-1.8-0.1-2.9-0.1
		c-1.1,0-2.6,0-3.1,0.1c-0.1-0.1-0.1-0.6,0-0.7c0.5-0.1,0.9-0.1,1.3-0.3c0.3-0.1,0.3-0.4,0.3-0.6c-0.3-1-1-3-1.4-4
		c0-0.1-0.2-0.2-0.2-0.2c-0.3,0-1.1,0-2.2,0c-1.5,0-1.7,0-1.9,0c-0.1,0-0.2,0.1-0.2,0.2c-0.5,1.3-1.2,3.2-1.3,3.8
		c0,0.4,0,0.7,0.7,0.8c0.3,0.1,0.7,0.1,1.1,0.2c0.1,0.1,0,0.6,0,0.7c-0.5,0-1.7-0.1-3-0.1c-1.3,0-2.1,0.1-2.5,0.1
		c-0.1-0.1-0.1-0.6,0-0.7C432.9,71.1,433.2,70.9,433.9,69.1z M438.4,60c-0.4,1.2-1.4,3.8-1.8,5.1c0,0.1,0,0.1,0.1,0.2
		c0.2,0,1,0,1.9,0c0.6,0,1.3,0,1.6,0c0,0,0.1-0.1,0.1-0.2c-0.5-1.4-1.4-4-1.7-5.1C438.5,60,438.4,59.9,438.4,60z"/>
	<path class="st1" d="M448.7,57.5c0.7,0,1.4,0.1,3,0.1c1.6,0,2.4-0.1,2.9-0.1c0.1,0.1,0.1,0.6,0,0.7c-0.6,0.1-0.9,0.1-1.2,0.2
		c-0.6,0.1-0.6,0.4-0.6,0.9c0,0.8,0,2.9-0.1,5.1c0,2.9,0,4.8,0.1,5.8c0,0.4,0.3,0.6,0.4,0.7c0.6,0.2,2.9,0.2,3.9,0.2
		c0.5,0,0.9-0.2,1.4-0.9c0.4-0.6,1-1.6,1.4-2.6c0.2,0,0.6,0.1,0.7,0.3c-0.2,0.9-0.8,3.2-1.2,3.9c-0.1,0.2-0.3,0.3-1,0.3
		c-1.5,0-5.5-0.1-6.7-0.1c-1.1,0-2.9,0.1-3.3,0.1c-0.1-0.1-0.1-0.6,0-0.7c0.7-0.1,1.1-0.1,1.5-0.2c0.5-0.1,0.7-0.4,0.7-1
		c0-0.6,0.1-2.9,0.1-6c0-2.5,0-3.9,0-4.5c0-1-0.1-1.2-0.7-1.4c-0.3-0.1-0.9-0.2-1.3-0.2C448.6,58,448.6,57.5,448.7,57.5z"/>
</g>
<g>
	<path class="st2" d="M135,73.7c-4.8,7.6-11,13.9-17.1,13.9c-3.5,0-7.9-3.5-7.9-5.8c0-4.6,10.3-6.5,19.4-9.1
		c1.6-2.5,2.6-4.4,2.6-4.4s-1.6,0.6-4,0.6c-6.3,0-12.7-5.6-12.7-11.5c0-11.5,15.2-28.6,25.1-28.6c4.5,0,8.9,4.5,8.9,8.2
		c0,4.3-5.6,12-7.8,12c-0.9,0-2.7-1.4-2.7-2.8c0-0.9,1.3-2.9,2.1-4.2c1.3-2,1.7-2.9,2.8-2.9c0.7,0,1.5,0.9,1.5,0.9s0.9-1.9,0.9-3.7
		c0-1.8-1.3-3.3-3.2-3.3c-9.2,0-20.2,16.3-20.2,25.9c0,2.5,1.4,6.6,4.8,6.6c2.9,0,6.3-3.1,8.1-5.7c2.4-3.4,3.5-5.6,4.2-5.6
		c0.7,0,4.1,2.4,4.1,3.4c0,1-1.9,3-6.7,11.9c5.5-3.1,9.8-7.7,11.5-10.1c0.9-1.3,1.2-1.7,1.4-1.7c0.4,0,1.3,1.3,1.3,2.1
		s-0.2,1.4-1.3,2.9C148.3,65.4,142.2,70.7,135,73.7z M126.8,76.5c-6.6,2.1-12.6,4.1-12.6,6.1c0,1.1,1,1.8,2.3,1.8
		C119.9,84.4,123.8,80.4,126.8,76.5z"/>
	<path class="st2" d="M166.3,59.7c0.9-1.3,1.2-1.7,1.4-1.7c0.4,0,1.3,1.3,1.3,2.1s-0.2,1.4-1.3,2.9c-2,2.7-5.7,7.6-9.3,7.6
		c-3,0-6.4-2.7-6.4-6.7c0-4.4,2.9-9.2,4.7-13.8c0.7-1.8,1.2-2.8,2-2.8c1.4,0,4.6,1.2,4.6,2.4c0,1.1-0.6,1.9-1.7,4.1
		c-3.9,8-4.6,9.7-4.6,12c0,1.4,0.6,2.1,1.5,2.1C160.2,67.6,164.1,62.7,166.3,59.7z M168.6,39c0,1.7-1.8,4.6-3.7,4.6
		c-1.9,0-3.2-1.3-3.2-3.1c0-1.8,2.1-4.3,3.6-4.3C167,36.2,168.6,37.3,168.6,39z"/>
	<path class="st2" d="M192.5,59.7c0.9-1.3,1.2-1.7,1.4-1.7c0.4,0,1.3,1.3,1.3,2.1s-0.3,1.3-1.4,2.9c-2,2.7-5.5,5-11,5
		c-0.9,0-1.7-0.1-2.5-0.3c-2.3,2.1-3.9,2.9-4.9,2.9c-1.6,0-6.1-1.9-6.1-5.7c0-3.9,5.3-14.1,5.3-16.4c0-0.5,0.3-0.8,1.2-0.8
		c1.2,0,3.8,2,3.8,4.1s-4.7,12.1-4.7,14.1c0,0.9,0.3,1.2,0.6,1.2c0.1,0,0.6-0.3,1.3-1.1c-0.2-0.2-0.2-0.3-0.2-0.5
		c0-1.3,1.2-2.7,2.4-2.7c0.1,0,0.3,0.1,0.4,0.1c0.6-0.7,1.2-1.6,1.8-2.6c2.9-4.5,4.9-8.3,4.9-11.1c0-1.6-0.4-2.2-0.4-2.8
		c0-0.4,0.3-0.7,0.8-0.7c1.6,0,4.2,2.7,4.2,6.1c0,3.8-2.9,8.2-6.7,12.3l-0.9,0.9h0.3C187.7,64.9,190.3,62.7,192.5,59.7z"/>
	<path class="st2" d="M196.1,61.8c0-5.6,6.6-14.1,10.5-14.1c2.6,0,6.6,2.4,6.6,4.7c0,1.8-1.1,5.4-3.9,8.1c-2.2,2.2-7.4,2.2-7.4,2.2
		s-0.1,0.6-0.1,1.2c0,2.1,1.7,3.6,3.5,3.6c2.6,0,3.9-1.3,4.6-1.3c0.5,0,1.2,0.6,1.2,1.3c0,0.7-2.7,2.8-6.4,2.8
		C200.1,70.5,196.1,67.4,196.1,61.8z M209.5,52.9c0-0.3-0.3-0.5-0.7-0.5c-1.2,0-6.4,6.5-6.4,7.9C204.5,60.2,209.5,55.9,209.5,52.9z"
		/>
</g>
</svg>
