<?xml version="1.0" encoding="utf-8"?>
<!-- Generator: Adobe Illustrator 25.2.3, SVG Export Plug-In . SVG Version: 6.00 Build 0)  -->
<svg version="1.1" id="Layer_1" xmlns="http://www.w3.org/2000/svg" xmlns:xlink="http://www.w3.org/1999/xlink" x="0px" y="0px"
	 viewBox="0 0 192 192" style="enable-background:new 0 0 192 192;" xml:space="preserve">
<style type="text/css">
	.st0{stroke:#000000;stroke-width:0;stroke-linecap:round;stroke-linejoin:round;}
</style>
<g>
	<path d="M188.1,98.5c-0.1-0.4-0.3-0.8-0.6-1.1c2.2-1.3,0.5-3.7,0.1-4.1c1.6-1.3-0.1-3.2-0.8-3.8c1.7-1.2-0.3-3.3-0.9-3.8
		c1.3-1.5-1.4-4-1.8-4.3c0.3-0.8,0.2-1.5-0.4-2.1c-0.3-0.4-0.8-0.8-1.4-1.1c1.5-1.7-1.5-3.6-2.1-4c0.8-1.5-1.9-3-2.9-3.4
		c0.9-1.5-2.1-3-3-3.4c0.3-1.4-2.3-2.8-3.6-3.4c0.3-1.8-3.2-3.1-3.9-3.3c0.1-1.6-3.2-2.6-4.3-2.9c0.2-1.6-3.4-2.6-4.4-2.8
		c-0.5-1.7-5-2.7-5.6-2.9c-0.5-0.7-1.3-1.3-2.4-1.6c-0.7-0.2-1.4-0.3-2.1-0.4c-0.4-1.9-4.8-2.4-5.6-2.5c-0.8-1.6-4.4-1.7-5.6-1.7
		c-0.7-1.5-4.6-1.7-5.7-1.7c-1.4-1.5-6.2-1.5-6.9-1.5c-0.9-0.6-1.9-0.9-3.1-1c-0.9-0.1-1.8,0-2.7,0.2c-1.5-1.7-5.8-1.2-6.6-1.1
		c-1.6-1.3-5.1-0.7-6.3-0.4c-1.5-1.3-5.3-0.6-6.3-0.4c-2.1-1.1-6.6-0.1-7.3,0.1c-1.1-0.4-2.3-0.5-3.5-0.3c-0.7,0.1-1.4,0.3-2,0.6
		c-2.3-1.3-6.1,0.1-6.9,0.3c-2.2-0.9-5.2,0.5-6.1,0.9c-2.1-0.9-5.3,0.6-6.1,1c-2.6-0.6-6.2,1.3-6.8,1.6c-1.3-0.1-2.4,0.1-3.4,0.5
		c-0.7,0.3-1.3,0.7-1.7,1.1c-2.7-0.4-5.2,1.4-5.7,1.9c-2.6-0.3-4.6,1.5-5.2,2.2c-2.5-0.4-4.7,1.7-5.2,2.3c-2.8,0-5.1,2.6-5.5,3
		c-1.2,0.2-2.2,0.6-2.9,1.2c-0.4,0.4-0.7,0.8-0.9,1.3c-3.2-0.1-4.6,2.6-4.9,3c-2.6,0.3-3.5,2.5-3.7,3.2c-2.6,0.2-3.4,2.6-3.6,3.2
		c-2.6,0.6-3.4,3.5-3.5,4c-1.1,0.4-1.8,1-2.1,1.7c-0.3,0.6-0.2,1.1-0.1,1.7c-3,0.6-2.9,3.4-2.9,3.9c-2.3,0.8-1.9,3-1.7,3.8
		c-2.3,0.7-1.8,3.2-1.6,3.8c-2.1,1.1-1.2,4-1.1,4.5c-0.8,0.6-1.1,1.3-1,2.1c0.1,0.5,0.3,0.9,0.6,1.3c-2.4,1.2-1,3.7-0.6,4.2
		c-1.8,1.2-0.1,3.3,0.5,3.9c-1.8,1.2,0,3.3,0.6,3.9c-1.4,1.5,1.1,4.1,1.5,4.4c-0.4,0.8-0.3,1.5,0.2,2.2c0.5,0.7,1.4,1.2,2.3,1.6
		L9,113.8c-1.6,1.6,1.3,3.6,2,4.1c-0.9,1.5,1.8,3,2.8,3.5c-1,1.5,2,3.1,2.9,3.5c-0.4,1.7,3.4,3.5,4,3.7c0.1,0.8,0.6,1.4,1.5,1.9
		c0.5,0.3,1.2,0.6,1.9,0.7c-0.5,1.9,3.2,3.1,4.1,3.4c0,1.6,3.5,2.5,4.6,2.7c-0.1,1.6,3.6,2.4,4.6,2.6c0.6,1.7,5.1,2.5,5.8,2.6
		c0.6,0.7,1.4,1.2,2.5,1.5c0.8,0.2,1.8,0.3,2.6,0.3c0.6,1.9,5,2.2,5.8,2.3c0.9,1.5,4.6,1.6,5.7,1.6c0.8,1.5,4.7,1.5,5.8,1.5
		c1.5,1.4,6.2,1.3,7,1.3c0.9,0.5,2,0.9,3.2,0.9c0.8,0,1.5,0,2.2-0.2c1.6,1.7,5.9,1.1,6.7,0.9c1.7,1.2,5.2,0.5,6.3,0.2
		c1.6,1.2,5.3,0.4,6.3,0.2c2.2,1,6.6-0.1,7.2-0.3c1.2,0.3,2.3,0.4,3.5,0.2c0.8-0.1,1.5-0.4,2.1-0.7c2.4,0.8,5.6-0.4,6.3-0.7
		c2.3,0.8,5.2-0.6,6.1-1.1c2.2,0.8,5.2-0.7,6-1.2c2.7,0.5,6.1-1.5,6.6-1.8c1.3,0,2.4-0.1,3.4-0.6c0.6-0.3,1.1-0.6,1.5-1
		c2.9,0.6,5.5-1.5,6-1.9c2.6,0.2,4.5-1.6,5-2.3c2.5,0.3,4.5-1.8,5-2.4c2.8-0.1,4.9-2.7,5.2-3.1c1.2-0.2,2.2-0.6,2.8-1.3
		c0.5-0.5,0.8-1,0.9-1.6c3.1,0,4.4-2.7,4.6-3.1c2.6-0.3,3.3-2.5,3.4-3.2c2.5-0.3,3.2-2.6,3.4-3.3c2.6-0.7,3.1-3.6,3.1-4
		c1-0.5,1.7-1.1,2-1.8c0.2-0.5,0.2-0.9,0.1-1.4c3-0.7,2.7-3.4,2.6-3.9c2.2-0.9,1.7-3.1,1.4-3.8c2.2-0.8,1.6-3.2,1.3-3.8
		c2-1.2,0.9-4,0.7-4.4C188,99.9,188.3,99.2,188.1,98.5z M187.4,91.9c0,0.4-0.2,0.7-0.6,1c-0.8-0.4-3.5-1.8-3.5-3.6
		c0-0.3,0.1-0.5,0.2-0.8c1,0.6,2.1,1,2.4,1.1C186.2,89.8,187.4,90.9,187.4,91.9z M186.6,88.2c0,0.3-0.2,0.5-0.5,0.7
		c-1-0.4-4-1.6-4-3.5c0-0.3,0.1-0.6,0.3-0.9c1.3,0.8,2.5,1.2,2.8,1.3C185.4,86.1,186.6,87.2,186.6,88.2z M183.8,81.9
		c0.7,0.7,1.6,1.8,1.6,2.7c0,0.2-0.1,0.4-0.2,0.5c-1.1-0.3-4.2-1.5-4.6-4.2c1.4,0.6,2.8,0.9,2.8,0.9L183.8,81.9z M183,79.4
		c0.3,0.3,0.4,0.7,0.4,1.1c0,0.2-0.1,0.5-0.2,0.7c-1.2-0.3-4.5-1.2-4.5-3.6c0,0,0-0.1,0-0.1C179.8,77.6,182,78.2,183,79.4z
		 M179.8,74.6L179.8,74.6c0.7,0.4,2,1.4,2,2.4c0,0.2-0.1,0.3-0.2,0.5c-1.1-0.3-5.3-1.3-5.3-3.8c1.6,0.6,3.1,0.8,3.1,0.8L179.8,74.6z
		 M179.5,73.5c0,0.2-0.1,0.3-0.2,0.5c-1.1-0.2-5.4-1.2-5.6-3.5c1.3,0.4,2.5,0.5,2.9,0.6C177,71.2,179.5,72.3,179.5,73.5z M176.6,70
		c0,0.1-0.1,0.2-0.1,0.3c-1.4-0.2-5.7-1-6.1-3.4c1.6,0.5,2.9,0.6,3.4,0.7C174.2,67.8,176.6,69,176.6,70z M170.3,64.3
		c1.3,0.6,3.2,1.7,3.2,2.7c-1.1-0.1-5.1-0.8-7-3.2C168.4,64.3,170.1,64.3,170.3,64.3z M166.4,61.2l0.4,0l0,0c1,0.4,3.1,1.3,3.1,2.4
		c0,0,0,0.1,0,0.1c-1.4-0.1-5.7-0.5-6.8-2.8C164.8,61.2,166.4,61.2,166.4,61.2z M166,60.4c0,0,0,0.1,0,0.1c-1.2,0-5.7-0.3-6.9-2.4
		c1.4,0.1,2.6,0.1,3,0C162.6,58.3,166,59.1,166,60.4z M161.7,57.5C161.7,57.5,161.7,57.6,161.7,57.5c-1.4,0.1-6.1,0.2-7.4-2.1
		c1.7,0.2,3,0,3.5,0C158.4,55.5,161.7,56.4,161.7,57.5z M152.6,52.8l0.4-0.1c1.5,0.4,3.8,1.2,4.2,2.1c-1.4,0.1-5,0.2-7.7-1.8
		C151.2,53.1,152.6,52.8,152.6,52.8z M149.8,50.9c0.9,0.3,1.5,0.8,1.9,1.4c-1.3,0.2-4.9,0.6-7.2-1.5C145.6,50.7,148,50.4,149.8,50.9
		z M142.4,48.3l0.3-0.1l0,0c1.1,0.1,3.6,0.6,4.2,1.7c-1.2,0.2-5.5,0.8-7.9-1.2C140.9,48.6,142.4,48.3,142.4,48.3z M136.6,46.4
		c0.5,0,4.3,0.1,4.9,1.4c-1.4,0.3-5.5,0.9-7.8-0.8C135.2,46.8,136.3,46.5,136.6,46.4z M135.8,46c-1.4,0.4-5.6,1.3-8-0.5
		c1.7-0.2,2.9-0.6,3.3-0.8C131.7,44.7,135.3,44.8,135.8,46z M124.8,43.4l0.3-0.2c1.6,0,4.2,0.3,5.1,1.1c-1.2,0.4-4.6,1.2-8.2,0
		C123.6,44,124.7,43.4,124.8,43.4z M121.1,42.2c1,0.1,1.8,0.4,2.6,0.9c-1.2,0.5-4.4,1.5-7.5,0.2C117.1,42.9,119.1,42.1,121.1,42.2z
		 M112.3,41.4l0.3-0.2l0,0c1.1-0.1,3.7-0.2,4.9,0.7c-1.2,0.5-4.9,1.8-8,0.6C111.1,42.1,112.2,41.4,112.3,41.4z M105.8,40.9
		c0.5-0.1,4.1-0.9,5.4,0.3c-1.1,0.5-4.7,2-7.8,0.9C104.7,41.6,105.5,41,105.8,40.9z M99.6,40.4c0.6-0.1,4-0.8,5.2,0.1
		c-0.9,0.6-4.5,2.5-7.8,1.3C98.4,41.3,99.3,40.7,99.6,40.4z M93,40.6l0.2-0.2c1.5-0.3,4.1-0.6,5.4-0.1c-0.8,0.6-3.5,2.2-7.7,1.8
		C92.2,41.3,92.9,40.6,93,40.6z M88.9,40.2c0.9-0.1,1.9,0,2.8,0.3c-0.8,0.7-3.2,2.3-7,1.7C85.4,41.7,86.9,40.5,88.9,40.2z
		 M80.5,41.2l0.2-0.2l0,0c1-0.3,3.4-1,5-0.4c-0.8,0.7-3.5,2.8-7.2,2.3C79.7,42,80.5,41.2,80.5,41.2z M74.1,42
		c0.4-0.2,3.3-1.7,5.2-0.9c-0.7,0.7-3.2,2.9-6.8,2.5C73.4,42.9,74,42.3,74.1,42z M68.1,43c0.5-0.2,3.3-1.6,4.9-1
		c-0.5,0.7-2.7,3.3-6.7,2.8C67.5,44,68,43.2,68.1,43z M62,44.2c1.3-0.6,3.5-1.5,5-1.2c-0.4,0.7-2,2.8-6.3,3.3
		c0.9-0.9,1.2-1.8,1.2-1.8L62,44.2z M56.5,46.1l0-0.1c0.4-0.3,0.8-0.7,1.4-0.9c0.8-0.3,1.8-0.4,2.9-0.3c-0.3,0.8-1.7,2.8-5.3,3.1
		C56.3,46.9,56.5,46.1,56.5,46.1z M50.9,48l0-0.2l0,0c0.7-0.5,2.4-1.6,4.2-1.5c-0.8,1-1,1.9-1.1,2l0,0C53.2,49,51.9,49.8,50,50
		C50.7,49,50.9,48.1,50.9,48z M45.4,50.2c0.2-0.3,2.2-2.4,4.4-2c-0.3,0.8-1.5,3.4-5,3.8C45.3,51.1,45.4,50.4,45.4,50.2z M40.3,52.3
		c0.3-0.3,2.2-2.3,4.1-2c-0.1,0.9-0.9,3.7-4.6,4.1C40.3,53.4,40.3,52.6,40.3,52.3z M35.4,55.1l-0.1-0.3c0.8-0.9,2.4-2.1,4-2.3
		c0,0.8-0.5,3.1-4,4.5C35.6,56,35.4,55.1,35.4,55.1z M31.9,56.5c0.6-0.5,1.4-0.8,2.5-0.9c0,0.1,0,0.3,0,0.4c0,1-0.6,2.8-3.5,3.7
		c0-0.2-0.1-0.5-0.1-0.8C30.9,58.2,31.1,57.2,31.9,56.5z M29.8,58c0,0.2,0.1,0.4,0.1,0.7c0,1.2-0.5,3.1-3.1,4c0.1-1.1-0.2-2-0.2-2.1
		l-0.1-0.2l0,0C26.8,59.7,27.9,58.2,29.8,58z M25.6,61c0.1,0.2,0.1,0.6,0.1,1.1c0,1.2-0.5,2.8-2.7,3.6c-0.1-0.9-0.4-1.6-0.5-1.9
		C22.7,63.5,23.3,61.2,25.6,61z M21.7,64.2c0.1,0.3,0.4,0.9,0.4,1.8c0,1.1-0.5,2.4-2.5,3.1C19.6,68,19.1,67.2,19,67
		C19.1,66.6,19.8,64.4,21.7,64.2z M18.2,67.5c0.2,0.3,0.5,0.9,0.5,1.8c0,0.9-0.4,2.1-1.8,3.2c-0.3-1.1-1-1.8-1-1.8l-0.2-0.2
		C16,69.4,16.8,67.9,18.2,67.5z M13.4,72.6c0.3-0.6,0.9-1,1.8-1.4c0.3,0.4,0.8,1.2,0.8,2.1c0,0.8-0.5,1.7-1.8,2.5
		c-0.4-0.5-1-1.4-1-2.4C13.3,73.2,13.3,72.9,13.4,72.6z M12.4,74.9c0.4,0.5,1.1,1.5,1.1,2.7c0,0.8-0.4,1.6-1.4,2.3
		c-0.5-1.1-1.3-1.9-1.3-1.9l-0.2-0.2l-0.1,0C10.5,77.1,10.7,75.4,12.4,74.9z M10.1,78.5c0.4,0.5,1.3,1.7,1.3,2.9
		c0,0.7-0.3,1.4-1.1,2C9.7,82.6,9,82,8.8,81.8c0-0.1-0.2-0.6-0.2-1.2C8.6,79.8,8.9,78.9,10.1,78.5z M8.2,82.4
		c0.6,0.5,1.8,1.8,1.8,3.1c0,0.6-0.3,1.3-1.1,1.9c-0.6-1-1.5-1.7-1.8-1.9c0-0.2-0.2-0.7-0.2-1.2C7,83.5,7.3,82.7,8.2,82.4z
		 M6.7,86.2c0.7,0.5,2,1.7,2,3.4c0,0.5-0.2,1-0.5,1.6c-0.9-0.9-1.9-1.5-2-1.5l-0.3-0.2c-0.1-0.4-0.2-0.9-0.2-1.3
		C5.7,87.3,6,86.6,6.7,86.2z M6,90.3c0.7,0.5,2.3,1.6,2.3,3.1c0,0.5-0.3,1-0.7,1.5c-0.9-0.5-2.4-1.6-2.6-2.8c0-0.1,0-0.1,0-0.2
		C5,91.3,5.4,90.8,6,90.3z M5,94.1c0.8,0.5,2.9,1.9,2.9,3.6c0,0.4-0.1,0.8-0.4,1.2c-1.1-0.9-2.3-1.5-2.3-1.5l-0.3-0.1l0,0
		c-0.2-0.4-0.6-1.1-0.6-1.8C4.3,94.9,4.5,94.5,5,94.1z M4.3,99.1c0-0.4,0.2-0.7,0.7-1c0.8,0.4,3.2,1.9,3.2,3.6c0,0.3-0.1,0.6-0.3,1
		c-1-0.7-2-1.1-2.3-1.2C5.3,101.2,4.3,100.1,4.3,99.1z M4.8,102.9c0-0.3,0.2-0.6,0.6-0.8c1,0.4,3.7,1.7,3.7,3.5c0,0.3-0.1,0.7-0.3,1
		c-1.2-0.8-2.4-1.2-2.7-1.4C5.8,105,4.8,103.8,4.8,102.9z M7.1,109.2c-0.6-0.7-1.4-1.8-1.4-2.7c0-0.2,0.2-0.4,0.3-0.6
		c1.1,0.4,4.1,1.7,4.2,4.4c-1.3-0.7-2.7-1-2.7-1L7.1,109.2z M7.7,111.9c-0.2-0.3-0.4-0.7-0.4-1c0-0.3,0.1-0.5,0.3-0.8
		c1.1,0.3,4.2,1.4,4.2,3.6c0,0.1,0,0.2,0,0.3C10.7,113.7,8.5,113,7.7,111.9z M11.5,117.3L11.5,117.3c-0.7-0.4-2-1.4-2-2.4
		c0-0.2,0.1-0.3,0.2-0.5c1.1,0.3,5.2,1.4,5.2,3.8c0,0,0,0,0,0c-1.6-0.6-3.1-0.9-3.1-0.9L11.5,117.3z M11.8,118.5
		c0-0.2,0.1-0.3,0.2-0.5c1.1,0.2,5.3,1.3,5.4,3.5c-1.3-0.4-2.5-0.5-2.9-0.6C14.1,120.8,11.8,119.7,11.8,118.5z M14.5,122
		c0-0.1,0.1-0.2,0.2-0.3c1.4,0.2,5.9,1,6,3.4c-1.5-0.5-2.9-0.6-3.3-0.6C16.8,124.2,14.5,123,14.5,122z M21,127.8l-0.4,0
		c-1.3-0.6-3.1-1.8-3.1-2.7c0,0,0,0,0,0c1.1,0.1,4.8,0.6,6.6,3.1C22.5,127.8,21,127.8,21,127.8z M22.7,130.1c-0.7-0.4-1.1-1-1.1-1.6
		c1.3,0,4.9,0.4,6.1,2.7C26.5,131.1,24.2,130.9,22.7,130.1z M28.5,133.9l-0.4,0l0,0c-1-0.3-3.3-1.2-3.3-2.4c0,0,0,0,0,0
		c1.2,0,5.7,0.3,7,2.5C30.1,133.8,28.6,133.9,28.5,133.9z M33.1,136.7c-0.5-0.1-4.1-0.8-4.1-2.2c0,0,0,0,0-0.1
		c1.3,0,5.7,0.1,7.1,2.2C34.7,136.6,33.5,136.7,33.1,136.7z M33.6,137.3c1.2-0.1,6-0.4,7.5,1.9c-1.7-0.1-3,0.1-3.5,0.1
		C37,139.2,33.6,138.5,33.6,137.3z M43,141.7l-0.4,0.1c-1.5-0.3-3.8-1-4.3-1.9c1.3-0.2,4.9-0.3,7.8,1.5
		C44.4,141.4,43,141.7,43,141.7z M45.9,143.5c-0.9-0.2-1.5-0.7-2-1.3c1.2-0.2,4.8-0.7,7.3,1.2C50.1,143.6,47.8,144,45.9,143.5z
		 M54,145.9l-0.3,0.1l0,0c-1.1-0.1-3.7-0.5-4.3-1.6c1.4-0.3,5.5-0.8,7.9,0.9C55.4,145.5,54,145.8,54,145.9z M59.9,147.6
		c-0.5,0-4.3,0.1-5-1.3c1.4-0.3,5.4-1,7.8,0.6C61.3,147.1,60.2,147.4,59.9,147.6z M60.7,148c1.3-0.4,5.5-1.5,8,0.2
		c-1.6,0.3-2.8,0.7-3.2,0.8C64.9,149.1,61.3,149.1,60.7,148z M71.9,150.2l-0.3,0.2c-1.6,0-4.2-0.1-5.2-0.9c1.2-0.4,4.5-1.3,8.2-0.3
		C73,149.6,71.9,150.2,71.9,150.2z M75.6,151.2c-1,0-1.8-0.3-2.6-0.8c1.1-0.5,4.3-1.6,7.5-0.4C79.6,150.5,77.6,151.3,75.6,151.2z
		 M84.1,151.9l-0.3,0.2l0,0c-1.1,0.1-3.7,0.3-4.9-0.5c1.2-0.5,4.7-2,7.9-0.8C85.2,151.2,84.1,151.9,84.1,151.9z M90.6,152.2
		c-0.5,0.1-4,1-5.4-0.1c1-0.5,4.5-2.1,7.7-1.1C91.6,151.5,90.8,152,90.6,152.2z M96.7,152.4c-0.6,0.1-3.9,0.9-5.2,0
		c0.9-0.6,4.2-2.6,7.7-1.5C97.9,151.6,97,152.2,96.7,152.4z M103.4,152.1l-0.2,0.2c-1.5,0.3-4,0.7-5.3,0.2c0.8-0.6,3.4-2.2,7.5-1.9
		C104.1,151.3,103.4,152.1,103.4,152.1z M109.2,151.6l-0.1,0.1c-0.5,0.3-1.1,0.5-1.7,0.6c-0.9,0.2-1.9,0-2.9-0.2
		c0.7-0.7,2.9-2.3,6.4-2C109.9,150.9,109.3,151.6,109.2,151.6z M115.5,150.9l-0.2,0.2l0,0c-0.9,0.3-3,1-4.6,0.6
		c1.2-0.8,1.8-1.6,1.9-1.6l0,0c1.2-0.6,2.8-1.1,4.7-0.9C116.2,150,115.5,150.8,115.5,150.9z M121.8,149.8c-0.4,0.2-3.2,1.8-5.1,1
		c0.6-0.7,2.9-2.9,6.5-2.7C122.4,148.9,121.9,149.6,121.8,149.8z M127.7,148.7c-0.4,0.2-3.2,1.7-4.8,1.1c0.4-0.7,2.4-3.4,6.4-3
		C128.2,147.7,127.8,148.5,127.7,148.7z M133.7,147l-0.1,0.2c-1.2,0.7-3.3,1.6-4.9,1.4c0.3-0.7,1.7-2.8,5.9-3.5
		C133.9,146.1,133.7,147,133.7,147z M137.6,146.3c-0.8,0.4-1.8,0.5-2.8,0.4c0.3-0.8,1.5-3,5.3-3.3
		C139.9,144.1,139.2,145.6,137.6,146.3z M144.7,143.6c-0.7,0.5-2.5,1.8-4.3,1.6c0.3-0.8,1.5-3.4,5.2-3.8c-0.7,1-0.8,2-0.8,2
		L144.7,143.6L144.7,143.6z M150,141.1c-0.2,0.3-2,2.4-4.2,2.1c0.2-0.8,1.2-3.4,4.6-3.9C150.1,140.1,150,140.8,150,141.1z
		 M154.9,138.8c-0.3,0.3-2,2.3-3.9,2.1c0-0.8,0.5-3.7,4.3-4.2C154.9,137.7,154.9,138.5,154.9,138.8z M155.9,138.5c0,0,0,0,0-0.1
		c0-0.9,0.4-3,3.7-4.4c-0.2,1.1,0.1,1.9,0.1,1.9l0.1,0.2C159,137,157.5,138.3,155.9,138.5z M163,134.4c-0.5,0.5-1.4,0.8-2.4,1
		c0-0.2-0.1-0.4-0.1-0.7c0-1.1,0.6-2.6,3.2-3.5c0.1,0.3,0.1,0.6,0.1,1.1C163.8,133,163.6,133.8,163,134.4z M165,132.5
		c-0.1-0.2-0.1-0.6-0.1-1c0-1.2,0.5-2.8,2.8-3.7c-0.1,1.1,0.3,2.1,0.3,2.1l0.1,0.2h0C167.8,130.8,166.8,132.3,165,132.5z
		 M167.8,127.3l-0.1-0.2c-2.4,0.7-3.3,2-3.6,3.2l-0.2,0.1c-2.4,0.6-3.5,1.7-4,2.7l0,0c-2.3,0.8-3.6,1.9-4.2,3l0-0.1
		c-2.7,0.2-4.1,1.4-4.9,2.6c-2.5,0.2-4,1.3-4.9,2.4l0-0.2c-2.4,0.2-3.9,1.1-4.9,2l-0.3,0c-2.6,0.1-4.2,0.8-5.2,1.7l0,0
		c-2.7,0.3-4.4,1.1-5.6,1.9l0-0.1c-2.7-0.4-4.7,0.4-6,1.4c-2.5-0.3-4.5,0.3-5.9,1.2l0.1-0.2c-2.5-0.4-4.6,0.2-6.1,1
		c-2.3-0.4-4.1,0-5.5,0.5l0,0c-2.6-0.3-4.7,0-6.3,0.6l0.1-0.1c-2.3-0.9-4.6-0.6-6.4,0c-2.1-0.9-4.4-0.6-6.2-0.2l0.2-0.2
		c-2-0.8-4.1-0.8-5.9-0.4l-0.2-0.1c-2-1-4.1-1-5.7-0.8l0,0c-2.3-0.9-4.5-1-6.3-0.8l0.1,0c-1.6-1.4-4-1.5-6-1.3
		c-1.5-1.3-3.8-1.5-5.7-1.5l0.3-0.1c-1.5-1.3-3.8-1.7-5.8-1.7l-0.1-0.1c-1.4-1.3-3.2-1.8-4.9-2l0,0c-1.6-1.3-3.6-1.8-5.4-2.1l0.1,0
		c-0.8-1.6-2.9-2.3-4.9-2.5c-0.7-1.5-2.7-2.2-4.6-2.6l0.3-0.1c-0.7-1.4-2.3-2.2-4-2.7l-0.1-0.2c-0.5-1.5-2-2.4-3.5-2.9l0,0
		c-0.8-1.6-2.4-2.5-3.9-3.1l0.1,0c0.2-1.7-1.5-2.8-3.2-3.4c0.1-1.6-1.3-2.7-2.9-3.4l0.3,0c0.2-1.8-1.5-3.1-3.3-3.8l0.1-0.2
		c0.4-1.6-0.4-2.7-1.6-3.5h0c0.2-1.7-0.7-2.9-1.8-3.8l0.2,0c1.2-1.6,0.3-2.9-0.9-3.9c1.1-1.4,0.4-2.8-0.6-3.9l0.3,0.1
		c1.1-1.3,0.7-2.6-0.1-3.7l0.1-0.1C9.6,94.2,9.4,93,8.8,92l0,0c1.1-1.5,0.9-2.9,0.4-4L9.4,88c2-1.2,1.9-2.7,1.3-3.9
		c1.8-1.1,2-2.5,1.6-3.7l0.2,0.1c1.9-1.1,2.2-2.6,1.9-3.8l0.2-0.1c2-1,2.5-2.3,2.5-3.3l0,0c1.8-1.2,2.5-2.5,2.6-3.6l0.1,0.1
		c2.5-0.7,3.3-2.1,3.4-3.4c2.3-0.7,3.2-2,3.5-3.2l0.1,0.2c2.2-0.6,3.3-1.7,3.7-2.9l0.2-0.1c2.4-0.5,3.6-1.6,4.2-2.6l0,0
		c2.4-0.7,3.7-1.8,4.5-2.9l0,0.1c2.8-0.1,4.3-1.3,5.1-2.5c2.6-0.1,4.1-1.1,5.1-2.2l0,0.2c2.6-0.1,4.3-1.1,5.3-2.1
		c2.4-0.1,3.9-0.7,5-1.5l0,0c2.7-0.2,4.5-0.9,5.8-1.7l0,0.1c2.7,0.5,4.7-0.3,6.1-1.2c2.5,0.4,4.5-0.2,6-1l-0.1,0.2
		c2.3,0.4,4.3,0,5.8-0.7l0.2,0.1c2.4,0.6,4.4,0.3,5.9-0.3l0,0c2.6,0.4,4.7,0.1,6.4-0.4L96,42.2c2.2,1,4.6,0.7,6.4,0.2
		c2.1,0.9,4.4,0.8,6.2,0.3l-0.2,0.2c2.1,1,4.4,0.9,6.3,0.5l0.2,0.1c1.9,1,4,1.2,5.7,1l0,0c2.2,0.9,4.4,1.1,6.2,1l-0.1,0
		c1.5,1.4,3.9,1.7,5.9,1.5c1.4,1.3,3.7,1.6,5.6,1.6l-0.3,0.1c1.3,1.3,3.3,1.7,5.1,1.8l0.1,0.1c1.2,1.4,3.1,2,4.8,2.1l0,0
		c1.5,1.3,3.5,2,5.3,2.3l-0.1,0c0.7,1.7,2.7,2.4,4.7,2.7c0.6,1.5,2.5,2.3,4.4,2.8l-0.3,0c0.5,1.3,1.8,2.1,3.3,2.6l-0.1,0
		c0.9,1.6,2.6,2.6,4.2,3.2c0,1.7,1.6,2.8,3.4,3.4h0c-0.1,1.6,1.4,2.7,3,3.4l-0.3,0c-0.1,1.5,1,2.6,2.4,3.3l0,0.2
		c-0.3,1.6,0.6,2.7,1.8,3.4h0c0,1.7,1,2.9,2.1,3.7l-0.2,0c-1.1,1.6-0.1,2.9,1.2,3.9c-0.9,1.3-0.3,2.5,0.6,3.5
		c-1,1.4-0.6,2.7,0.3,3.7l0,0c-1.2,1.4-0.9,2.6-0.2,3.6l0,0c-0.9,1.5-0.7,2.9-0.1,3.9l-0.1-0.1c-1.9,1.2-1.7,2.7-1,3.9
		c-1.7,1.2-1.7,2.6-1.3,3.7l-0.2-0.1c-1.7,1.1-1.9,2.4-1.7,3.5l-0.2,0.1c-1.9,1.1-2.3,2.3-2.2,3.4l0,0c-1.7,1.2-2.3,2.5-2.3,3.7
		l-0.1-0.1c-2.5,0.8-3.1,2.2-3.1,3.4C168.8,124.8,168,126.1,167.8,127.3z M168.9,129.4c-0.1-0.3-0.2-0.7-0.2-1.4
		c0-1.1,0.5-2.5,2.4-3.3c0.1,0.9,0.5,1.6,0.6,1.8C171.7,126.9,171.2,129.2,168.9,129.4z M172.6,126.2c-0.2-0.4-0.5-1.2-0.5-2
		c0-1,0.5-2.1,2.3-2.8c0.1,1,0.6,1.8,0.8,2.1C175,123.8,174.4,126,172.6,126.2z M175.9,122.9c-0.2-0.4-0.6-1-0.6-2
		c0-0.9,0.4-1.9,1.6-2.9c0.4,1,1.1,1.8,1.2,1.8l0.2,0.2C177.9,120.9,177.2,122.4,175.9,122.9z M180.2,117.7
		c-0.2,0.6-0.8,1.1-1.7,1.4c-0.4-0.4-1-1.3-1-2.3c0-0.8,0.5-1.6,1.6-2.3c0.5,0.5,1.2,1.5,1.2,2.5
		C180.3,117.2,180.3,117.4,180.2,117.7z M181.2,115.7c-0.4-0.5-1.3-1.6-1.3-2.8c0-0.7,0.3-1.5,1.2-2.1c0.6,1.1,1.4,1.9,1.5,1.9
		l0.2,0.2l0,0c0,0.1,0,0.2,0,0.3C182.9,113.9,182.6,115.2,181.2,115.7z M183.1,112c-0.5-0.5-1.5-1.7-1.5-3c0-0.6,0.3-1.3,1-1.8
		c0.6,0.8,1.4,1.4,1.6,1.6c0.1,0.1,0.3,0.8,0.3,1.5C184.5,110.9,184.1,111.6,183.1,112z M184.7,108.2c-0.6-0.5-2.1-1.8-2.1-3.2
		c0-0.6,0.3-1.2,1-1.7c0.7,1,1.6,1.6,1.9,1.8c0.1,0.2,0.3,0.8,0.3,1.5C185.8,107.2,185.5,107.9,184.7,108.2z M186,104.4
		c-0.7-0.5-2.3-1.8-2.3-3.5c0-0.4,0.1-0.9,0.3-1.3c0.9,0.9,2.1,1.4,2.1,1.4l0.3,0.2c0.2,0.5,0.3,1.1,0.3,1.6
		C186.8,103.4,186.5,104,186,104.4z M186.3,100.2c-0.8-0.5-2.5-1.6-2.5-3.1c0-0.4,0.3-0.8,0.5-1.3c0.7,0.6,1.4,1.1,1.9,1.3
		c0.4,0.4,0.8,0.9,0.9,1.4c0,0.1,0,0.2,0,0.3C187.1,99.3,186.7,99.8,186.3,100.2z M187,96.7c-0.7-0.6-1.5-1.1-2.1-1.4
		c-0.6-0.6-1.1-1.4-1.1-2.2c0-0.3,0.1-0.7,0.3-1c1.2,0.9,2.5,1.5,2.5,1.5l0.3,0.1l0,0c0.3,0.4,0.7,1.2,0.7,1.9
		C187.6,96,187.4,96.4,187,96.7z"/>
	<path d="M60,130.5c0.1-0.1,0.2-0.2,0.3-0.3c0.9-0.9,2-1.9,3.2-3c0,0,0,0,0,0c0.3-0.3,0.6-0.6,0.9-0.9l0,0c1.8-1.7,3.9-3.7,6.1-5.7
		c0,0,0.1-0.1,0.1-0.1l0,0c8.5-7.9,18.7-17.5,24.6-23.1c0.2-0.1,0.3-0.3,0.4-0.4c2.6-2.4,4.2-3.9,4.3-4.1c0.2,0.2,2.1,1.8,4.7,4.1h0
		c0.4,0.4,0.9,0.8,1.4,1.2l0,0c6.4,5.5,15.5,13.4,15.5,13.4l6.6-6.3c0,0-0.4-0.3-1.1-0.9l-4.7,4.5l6.6-6.3c0,0-4.8-4.1-9.8-8.5h-1.1
		v-0.9c-0.5-0.4-0.9-0.8-1.4-1.2v0c0,0,0,0,0,0c-3.4-3-6.7-5.7-8.3-7.2c1.2-1.1,2.9-2.6,4.8-4.3l0,0c0,0,0,0,0,0
		c2.5-2.3,5.3-4.8,7.9-7.1l0,0c0.3-0.3,0.7-0.6,1-0.9c0,0,0,0,0,0c2.1-1.9,3.9-3.5,5-4.5c0.1-0.1,0.1-0.1,0.2-0.2
		c0.1-0.1,0.2-0.2,0.3-0.3c0,0,0.1-0.1,0.1-0.1c0.3-0.2,0.4-0.4,0.4-0.4l-1.2-0.9c-0.1,0.1-0.2,0.2-0.3,0.3h0c0,0-0.1,0.1-0.1,0.1
		c-3.2,2.9-8.8,8-13.2,11.9c0,0,0,0,0,0c-0.2,0.2-0.4,0.4-0.7,0.6h0c-2.3,2.1-4.1,3.7-4.9,4.4c0.8-0.8,2.7-2.4,4.9-4.4h0
		c0.3-0.2,0.5-0.5,0.8-0.7c0,0-0.1,0.1-0.1,0.1c4.2-3.7,9.4-8.5,12.7-11.4c0.1-0.1,0.1-0.1,0.2-0.2c0.2-0.1,0.3-0.3,0.5-0.4h0
		c1.4-1.3,2.3-2,2.3-2l-0.9-0.7c0,0,0,0,0,0l-1.3-1c0,0,0,0,0,0l-1.9-1.5c0,0,0,0,0,0l-0.1-0.1l-3.3-2.6l-0.3,0.3c0,0,0,0,0,0
		l-0.1,0.1c0,0-9.9,9-16.1,14.7c-0.4,0.3-0.8,0.7-1.1,1c0,0,0,0,0,0c-2.1,1.9-3.6,3.3-3.8,3.5c-0.2-0.1-1.6-1.3-3.6-3v0c0,0,0,0,0,0
		c0,0,0,0,0,0c-0.2-0.2-0.4-0.4-0.7-0.6c-0.4-0.3-0.9-0.7-1.3-1.1c0,0,0,0,0,0c-2.5-2-5.4-4.5-8.1-6.7v0c-0.1-0.1-0.1-0.1-0.2-0.2
		c-1.4-1.2-2.8-2.3-4-3.3l0,0c-0.1-0.1-0.1-0.1-0.2-0.2c0,0-0.1-0.1-0.1-0.1c-1.6-1.4-2.9-2.4-3.4-2.8c-0.1-0.1-0.2-0.1-0.2-0.2
		c0,0-0.1-0.1-0.1-0.1L71.9,65c0,0,0.5,0.4,1.2,1l-2,1.6c0,0,0.5,0.4,1.2,1.1c0,0,0,0,0,0c0.6,0.5,1.4,1.2,2.2,1.9
		c5.1,4.4,14.2,12.3,17.3,15.1c0.4-0.4,0.7-0.7,1-0.9c-2.1,2-7.7,7.2-14.1,13.1c0,0-0.1,0-0.1,0.1h0c-0.9,0.8-1.7,1.6-2.6,2.4
		c-0.1,0.1-0.3,0.3-0.4,0.4c0,0,0,0,0,0c-3.8,3.5-7.6,7.1-11.2,10.5c0,0,0,0,0,0c-0.3,0.3-0.6,0.6-0.9,0.9l0,0
		c-2.7,2.5-5.2,4.9-7.3,6.8l0,0c-0.3,0.3-0.6,0.6-0.9,0.8c0,0,0,0,0,0c-3.1,2.9-5.1,4.8-5.1,4.8l2.3,1.9h0l5.1,4.2l-5.1-4.2h0
		l-1.2-1c0,0-0.1,0.1-0.1,0.1l0,0c-1.1,1.1-1.8,1.7-1.8,1.7l7.5,6.1c0,0,1.2-1.1,3.1-2.9l0,0C59.9,130.6,59.9,130.5,60,130.5z
		 M107.9,84.3c-0.3-0.2-0.4-0.4-0.5-0.4C107.5,84,107.6,84.1,107.9,84.3z M89.5,80.4c0.1,0,0.1,0.1,0.2,0.1
		C89.7,80.5,89.6,80.4,89.5,80.4z M91.9,82.4c0.5,0.5,1,0.8,1.3,1.1c0.1,0.1,0.3,0.2,0.4,0.3c-0.1-0.1-0.2-0.2-0.4-0.3
		C92.8,83.3,92.4,82.9,91.9,82.4z M93.8,84.1c-0.1,0-0.3,0.2-0.6,0.6C93.5,84.3,93.7,84.1,93.8,84.1z M57.5,129.4
		c-0.6-0.5-5-4.1-5.8-4.7C52.6,123.9,95.4,84,95.4,84s-20.9-18.2-21.8-19c0.8-0.6,4.3-3.5,4.8-3.9c0.7,0.6,22,18.2,22,18.2l0.4-0.3
		c0,0,20.3-18.6,20.9-19.2c0.6,0.5,5,4,5.8,4.6c-0.9,0.8-21.7,19.5-21.7,19.5s20.9,18,21.7,18.7c-0.7,0.6-4.4,4.2-5,4.8
		c-0.7-0.6-21.6-18.7-21.6-18.7S58.2,128.8,57.5,129.4z"/>
	<path d="M126.5,66.7C126.5,66.8,126.4,66.8,126.5,66.7c-0.1,0.1-0.1,0.1-0.1,0.1c0,0-0.1,0.1-0.1,0.1
		C126.3,66.9,126.4,66.8,126.5,66.7z"/>
	<path class="st0" d="M89.5,80.4c0.1,0,0.1,0.1,0.2,0.1"/>
	<path class="st0" d="M93.8,84.1c-0.1,0-0.3,0.2-0.6,0.6"/>
	<path d="M91.9,82.4c0.5,0.5,1,0.8,1.3,1.1C92.8,83.3,92.4,82.9,91.9,82.4z"/>
	<path d="M93.2,83.5c0.1,0.1,0.3,0.2,0.4,0.3C93.4,83.8,93.3,83.7,93.2,83.5z"/>
	<path d="M40,100.6l-1.1,0.6l4.1,3.5l1.3-1.4l-1.3-1.2l5.2-4l0,0l1.6-1.2h0l3.6-2.7v2.7v1.2V112h1.7V98.1v-1.2v-3.2l6.2,3.7l1,0.6
		l0.2,0.1l0.1,0.1l-1.2,1.4l1.5,1l2.7-2.5h0l1.3-1.2l0,0l0.1-0.1l-1.2-0.9l-1.1,1.2l-3.2-1.9v0l-0.1,0l-5.2-3l10.3-7.9l1.1,0.5
		l1.3-1.5l-3.6-1.8c0,0,0,0,0,0L64.4,81l-0.5,0.5l-0.7,0.7l1.3,0.7l-9.5,7.9V76l8.8-2.3l-0.8,2l8.4-5.1l0,0l0,0l0,0l0,0l-8.8-0.4
		l1.5,1.8l-9,2.1v-0.2v-3h2.5l-2.2-5l-0.1-0.3L55,65h0l-0.6-1.4L53.2,66l0,0L53,66.4l-2.1,4.5h2.5v3.5l-10.2,2.4l-0.9-0.6
		c0,0,0,0,0,0l-1-0.7c0,0,0,0,0,0l-0.1-0.1L31,78.3l3.2,1.6l-2.8,3.9l5-1.3l0.5-0.1l1-0.3c0,0,0,0,0,0l3.7-0.9l1.6-2.1l9.6-2.5
		c0,0,0,0,0,0l0.6-0.2v1.4v12.8l-5.9-3.4l0.8-1.1L45.9,84c-0.9,0-3.8,2.3-4.6,2.9s0.1,0.8,0.6,1.1c0.5,0.3,3.7,0.1,3.7,0.1l7.3,4.3
		l-6.9,5.7c0,0,0,0,0,0l-0.4,0.3l-3.1,2.6L40,100.6z M45.6,87.1c-1,0.2-1.5,0.2-1.6-0.2s0.4-1.6,0.4-1.6S46.7,86.9,45.6,87.1z"/>
	<polygon points="38.4,88.9 37.2,85.7 36.4,85.7 35.1,89 34.1,85.7 32.9,85.7 34.4,90.2 35.2,90.2 36.5,87 37.7,90.2 38.5,90.2 
		40.2,85.7 39.5,85.7 	"/>
	<path d="M38.8,108.2c0.4-0.3,0.6-0.6,0.6-1.1c0-0.2,0-0.4-0.1-0.6c-0.1-0.2-0.2-0.3-0.4-0.4l-1.2-0.6c-0.1-0.1-0.2-0.2-0.3-0.3
		c-0.1-0.1-0.1-0.2-0.1-0.3c0-0.1,0.1-0.3,0.3-0.4c0.2-0.1,0.4-0.2,0.5-0.2c0.2,0,0.4,0,0.5,0.1c0.2,0.1,0.3,0.2,0.4,0.4
		c0,0,0.1,0,0.1,0l0.2-0.6c0,0-0.1-0.1-0.1-0.1c0,0-0.1,0-0.1,0c-0.2-0.1-0.3-0.1-0.5-0.1c-0.2,0-0.4-0.1-0.5-0.1
		c-0.5,0-0.8,0.1-1.2,0.4c-0.3,0.2-0.5,0.6-0.5,0.9c0,0.2,0.1,0.4,0.2,0.6c0.1,0.2,0.3,0.4,0.5,0.5l1.2,0.6c0.1,0.1,0.2,0.1,0.3,0.2
		c0.1,0.1,0.1,0.2,0.1,0.3c0,0.2-0.1,0.3-0.3,0.5c-0.2,0.1-0.4,0.2-0.6,0.2c-0.2,0-0.5-0.1-0.7-0.2c-0.2-0.1-0.3-0.3-0.4-0.5l-0.2,0
		l-0.1,0.3c0.1,0.2,0.2,0.4,0.3,0.6c0.3,0.1,0.6,0.1,0.9,0.1C38,108.5,38.4,108.4,38.8,108.2z"/>
	<polygon points="66.8,103.9 69.7,103.9 69.7,103.4 68,103.4 68,101.8 69.7,101.8 69.7,101.3 68,101.3 68,100 69.7,100 69.7,99.5 
		66.8,99.5 	"/>
	<polygon points="69.8,77.7 73.1,80.9 73.7,80.9 73.7,76.4 73.1,76.4 73.1,79.5 69.9,76.4 69.2,76.4 69.2,80.9 69.8,80.9 	"/>
	<rect x="125.9" y="78.9" width="1.5" height="0.7"/>
	<rect x="125.9" y="80.6" width="1.5" height="0.7"/>
	<rect x="125.9" y="82.2" width="1.5" height="0.7"/>
	<rect x="125.9" y="83.7" width="1.5" height="0.7"/>
	<rect x="125.9" y="85.2" width="1.5" height="0.7"/>
	<rect x="125.9" y="87" width="1.5" height="0.7"/>
	<rect x="138.6" y="77.9" width="1.4" height="1.1"/>
	<rect x="138.6" y="79.9" width="1.4" height="1.1"/>
	<rect x="138.6" y="81.8" width="1.4" height="1.1"/>
	<rect x="138.6" y="83.8" width="1.4" height="1.1"/>
	<rect x="138.6" y="85.7" width="1.4" height="1.1"/>
	<rect x="138.6" y="87.7" width="1.4" height="0.9"/>
	<rect x="136.4" y="72.4" width="0.8" height="0.8"/>
	<rect x="136.4" y="70.4" width="0.8" height="0.8"/>
	<rect x="136.4" y="68.4" width="0.8" height="0.8"/>
	<rect x="138.6" y="72.4" width="0.8" height="0.8"/>
	<rect x="138.6" y="70.4" width="0.8" height="0.8"/>
	<rect x="138.6" y="68.4" width="0.8" height="0.8"/>
	<rect x="140.6" y="72.4" width="0.8" height="0.8"/>
	<rect x="140.6" y="70.4" width="0.8" height="0.8"/>
	<rect x="140.6" y="68.4" width="0.8" height="0.8"/>
	<rect x="136.4" y="66.3" width="0.8" height="0.8"/>
	<polygon points="119.3,92.9 118.2,92.9 118.2,93.2 118.2,94.2 119.3,94.2 119.3,94.2 	"/>
	<path d="M133.7,73.7v14.9h-2.8v-9.5c0,0-3.5-2-3.8-2.2c0-0.4,0-3.9,0-3.9H123c0,0,0,0.2,0,0.5c0,0.6,0,1.5,0,2.1c0,0.1,0,0.2,0,0.2
		c-0.5,0-1.8,0-1.8,0v2.9h-5.1l-0.9,0.5v3.3c0,0,1.2,1.2,1.5,1.4c0,0.3,0,5.5,0,5.5h30.2v1.2h-30.1h-0.3v0.8c0,0,0.2,0,0.4,0
		c3.8,0,32.9,0,33.7,0c0,0.6,0,4,0,5.5c0,0.4,0,0.7,0,0.7h0.8v-0.7v-6.3h-3.6V78.7h1.7c0,0.7,0,4.1,0,4.1h4.8h0.4V82
		c0,0-0.4,0-0.9,0c-1.1,0-3,0-3.5,0c0-0.7,0-4.1,0-4.1h-5.4v-1.7c0,0-0.1,0-0.3,0v-4.5v-1.5v-3.9c0,0-3.6,0-4.2,0c0-0.4,0-1.5,0-1.5
		h-4h-2.4v0.1V72V73.7z M120,88.6h-2.5c0-0.7,0-5,0-5s-1.2-1.2-1.5-1.4v-2.5c0.1-0.1,0.2-0.1,0.3-0.1h3.6V88.6z M123.3,88.6h-2.5
		v-9.1h2.5C123.3,80.2,123.3,88.6,123.3,88.6z M130.1,88.6h-6v-9.9H122v-2.1c0.5,0,1.8,0,1.8,0s0-2.2,0-2.8h2.5c0,0.6,0,3.6,0,3.6
		s3.5,2,3.8,2.2V88.6z M144.7,78.7c0,0,1,0,2.1,0v9.9h-2.1V78.7z M134.6,65.6h4.8c0,0.4,0,1.5,0,1.5s3.6,0,4.2,0v9.1h-2
		c0-0.4,0-1.3,0-1.3h-4.9c0,0,0,1.2,0,1.7h-2.2V65.6z M134.6,77.4h3c0,0,0-1.2,0-1.7h3.2c0,0.4,0,1.3,0,1.3s2.5,0,3.1,0v11.6H140
		h-1.4h-4V77.4z"/>
	<rect x="121.3" y="92.9" width="1.1" height="1.2"/>
	<rect x="138" y="92.9" width="1.1" height="1.2"/>
	<rect x="141.2" y="92.9" width="1.1" height="1.2"/>
	<rect x="132.6" y="92.9" width="1.1" height="1.2"/>
	<rect x="135.7" y="92.9" width="1.1" height="1.2"/>
	<rect x="144.1" y="92.9" width="1.1" height="1.2"/>
	<rect x="147.6" y="92.9" width="1.1" height="1.2"/>
	<polygon points="153.1,84.8 153.1,96.9 153.1,97.6 154.8,97.6 154.8,96.9 154.8,84.8 	"/>
	<rect x="129.9" y="92.9" width="1.1" height="1.2"/>
	<rect x="126.9" y="92.9" width="1.1" height="1.2"/>
	<rect x="124.2" y="92.9" width="1.1" height="1.2"/>
	<path d="M62.5,98.1L62.5,98.1L62.3,98l-1-0.6L60,96.6c0,0.1,0,0.2,0,0.3h-4.9v1.2h4.8c-0.1,5.2,1.3,9.9,3.5,14.2l0,0
		c0.3-0.3,0.6-0.6,0.9-0.9c0,0,0,0,0,0c-2.1-4-3.3-8.5-3.2-13.3H62.5z"/>
	<path d="M80,96.9h-3.2c0-8.3,1.8-15.1,4.2-20.6c-0.3-0.3-0.7-0.6-1-0.9c-2.5,5.7-4.4,12.8-4.4,21.5h-8.7l0,0l-1.3,1.2h0h10
		c0,1,0.1,1.9,0.1,2.8c0,0,0,0,0,0c0.1-0.1,0.3-0.3,0.4-0.4c0,0,0,0,0.1-0.1c0.2-0.2,0.4-0.4,0.7-0.6c0-0.6,0-1.1-0.1-1.7h1.9h0
		c0,0,0.1,0,0.1-0.1c0.2-0.2,0.4-0.3,0.6-0.5C79.5,97.3,79.8,97.1,80,96.9z"/>
	<path d="M61.5,88c-0.6,2.1-1,4.2-1.3,6.5l0.9,0.5l0.2,0.1l0.1,0v0c0.3-3,0.9-5.9,1.8-8.5L61.5,88z"/>
	<polygon points="64.3,96.9 64.6,97.1 64.8,96.9 	"/>
	<polygon points="49.9,96.9 49.9,96.9 48.3,98.1 48.3,98.1 53.4,98.1 53.4,96.9 	"/>
	<path d="M126.2,67C126.2,67,126.2,67,126.2,67c0.1-0.1,0.1-0.1,0.2-0.2C126.3,66.9,126.2,66.9,126.2,67c-0.1,0.1-0.2,0.2-0.3,0.2
		C126,67.2,126.1,67.1,126.2,67z"/>
	<path d="M116.3,91.4v-0.8h0.3c-0.4-4-1.3-7.7-2.4-11c-0.3,0.3-0.7,0.6-1,0.9c0,0,0,0,0,0c0,0,0,0,0,0l0,0c1,3.2,1.8,6.6,2.1,10.3
		c0.4,0.4,0.9,0.7,1.3,1.1c0,0,0,0,0.1,0.1c0,0,0,0,0,0v0c0-0.2,0-0.4-0.1-0.6C116.5,91.4,116.3,91.4,116.3,91.4z"/>
	<path d="M46.1,99.8l-1,0.8c1,6.6,4.5,13.4,10.1,19.4c0,0,0,0,0,0c0.3-0.3,0.6-0.6,0.9-0.8l0,0c-5.6-6-9.1-12.9-9.9-19.4L46.1,99.8z
		"/>
	<path d="M123,73.5c-0.3-0.3-0.5-0.6-0.8-0.9c0,0,0,0,0,0c-0.3,0.3-0.7,0.6-1,0.9l0,0c0.6,0.7,1.2,1.4,1.8,2.1
		C123,75,123,74.1,123,73.5z"/>
	<path d="M133.7,73.7V72c-1.8-1.7-3.7-3.3-5.7-4.7c-0.1,0-0.1,0.1-0.2,0.2c0,0-0.1,0.1-0.1,0.1c-0.1,0.1-0.2,0.2-0.3,0.3
		c-0.1,0.1-0.1,0.1-0.2,0.2c0,0,0,0-0.1,0.1C129.5,69.8,131.7,71.7,133.7,73.7z"/>
	<path d="M62.7,84.5l1.9-1.6l-1-0.6C63.2,83,62.9,83.7,62.7,84.5z"/>
	<path d="M120.9,71.7c0.1-0.1,0.2-0.2,0.3-0.3c-0.3,0.3-0.7,0.6-1,0.9C120.4,72.2,120.7,71.9,120.9,71.7z"/>
	<path d="M35.8,83.7h1.4c0.3-0.5,0.5-1,0.8-1.5c0,0,0,0,0,0l-1,0.3l-0.5,0.1l-0.2,0C36.1,82.9,35.9,83.3,35.8,83.7z"/>
	<path d="M41.4,75.5C41.4,75.5,41.4,75.5,41.4,75.5l1,0.7c0,0,0,0,0,0c2.7-3,6.1-5.8,9.9-8.2l0.8-1.6l0.2-0.4l0,0
		C48.6,68.8,44.6,72,41.4,75.5z"/>
	<path d="M130.9,59.1L130.9,59.1l-1.6-0.5c-10.1-3-21.6-4.6-33.7-4.6c-40.9,0-74.2,19.1-74.2,42.5c0,14.8,13.3,27.9,33.5,35.5
		l-1.2-1l-1.9-1.6c-16.9-7.2-28.1-18.5-29-31.3h9.9c0.6,10.8,7.5,20.5,18.4,27.7l0,0c0,0,0.1-0.1,0.1-0.1l1.2,1h0h0h0l-2.3-1.9
		c0,0,0.2-0.2,0.7-0.6c-6.4-4.4-11.3-9.8-14.2-15.7c-0.1-0.2-0.2-0.4-0.3-0.6c-1.4-3.1-2.2-6.3-2.4-9.7h11c0,0.3,0.1,0.7,0.1,1
		l0.3-0.3l0.4-0.4l0.4-0.3c0,0,0,0,0,0c0,0,0,0,0,0h0.1l1.5-1.2h-1.6c0-0.1,0-0.2,0-0.3c0-2.5,0.4-5,1.2-7.6l-1-0.6l-0.1,0
		c-0.9,2.8-1.4,5.6-1.4,8.3c0,0.1,0,0.2,0,0.3h-11c0-0.1,0-0.2,0-0.3c0-1.7,0.2-3.4,0.5-5.1h-1.3c-0.3,1.7-0.5,3.3-0.5,5.1
		c0,0.1,0,0.2,0,0.3h-9.9c0-0.1,0-0.3,0-0.4c0-15.4,14.9-28.8,37-36c0.2,0.4,0.6,1,1.1,1.6C58.8,63,56.8,64,55,65h0l0.3,0.6l0.1,0.3
		l0.1,0.2c1.9-1.1,4-2.1,6.1-3c0.7,0.8,1.7,1.8,2.8,2.8c-2.7,1.9-5.3,3.9-7.6,6.3c-0.6,0.6-1.1,1.2-1.7,1.7v0.2l2-0.5
		c0.2-0.2,0.4-0.4,0.6-0.6c2.4-2.4,5-4.5,7.8-6.3c1.6,1.2,3.7,2.5,6.2,3.7c0,0.1-0.1,0.1-0.1,0.2l0,0l0,0l0,0l0,0
		c-2.9,3.1-5.5,6.7-7.5,11l0.5-0.5l0.9,0.5c0,0,0,0,0,0c2-4.1,4.6-7.6,7.5-10.6c1,0.4,2.2,0.9,3.3,1.2c-0.6-0.5-1.1-0.9-1.6-1.4
		c-0.9-0.8-1.7-1.4-2.2-1.9c0,0,0,0,0,0c-2.1-1-3.9-2.1-5.4-3.1c3.3-2.1,6.8-3.8,10.5-5.1l1-0.8c0,0,0,0,0.1,0.1
		c0,0,0.1,0.1,0.2,0.2c0,0,0,0,0.1,0c0,0,0,0,0,0c3.9-1.3,7.9-2.2,12-2.5c-2.9,1.1-6.1,2.6-9.4,4.7c0.2,0.2,0.4,0.4,0.7,0.6
		c0,0,0.1,0.1,0.1,0.1c0.1,0.1,0.1,0.1,0.2,0.2l0,0c3.8-2.4,7.6-4,10.7-5c-1.8,1.5-4.6,4-7.4,7.7c0.2,0.2,0.5,0.4,0.7,0.6
		c0.1,0.1,0.1,0.1,0.2,0.2v0c3.8-5,7.6-7.9,8.9-8.8v15.5c-0.3,0-0.5,0-0.8,0c0,0,0,0,0,0c0.5,0.4,0.9,0.7,1.3,1.1
		c0.2,0.2,0.5,0.4,0.7,0.5c0,0,0,0,0,0c0,0,0,0,0,0c0,0,0,0,0,0v0v-0.1c2.7,0,5.2-0.2,7.4-0.4c0,0,0,0,0,0c0.3-0.3,0.7-0.7,1.1-1
		c0.3-0.3,0.6-0.6,0.9-0.9c-2.8,0.4-5.9,0.6-9.5,0.6V57.4c0.8,0,1.7,0.1,2.5,0.1c1.2,1.1,5.6,5.5,9.6,12.7c0.3-0.3,0.6-0.6,0.9-0.9
		c-2.7-4.8-5.6-8.4-7.6-10.5c2.9,1.5,6.9,4,11.1,7.3c0.3-0.3,0.7-0.6,1-0.9c-4-3.1-7.9-5.5-10.9-7.1c4.7,0.8,9.4,2.3,13.9,4.3
		c0.3-0.3,0.7-0.6,1-0.9c-5.3-2.5-10.9-4.2-16.5-4.9c6.5,0.4,12.8,1.5,18.5,3.1c0.1-0.1,0.1-0.1,0.2-0.2c0.5-0.5,0.8-0.7,0.8-0.7
		l0.1-0.1c0,0,0,0,0,0c-6.8-2-14.2-3.2-21.9-3.5c10.5,0.3,20.5,1.9,29.4,4.5c-0.2,0.4-0.4,0.8-0.7,1.3c-1.8-0.7-3.8-1.4-5.7-2
		l2.3,1.8l0.3,0.3l0.1,0.1c0,0,0,0,0,0c0.8,0.3,1.6,0.6,2.3,0.9c-0.1,0.2-0.3,0.4-0.5,0.6c0,0,0,0,0,0l1.3,1c0,0,0,0,0,0
		c0.3-0.4,0.5-0.7,0.7-1c1.6,0.7,3.2,1.4,4.8,2.2v-0.1h2.4c-2.1-1.1-4.3-2.2-6.6-3.2c0.3-0.5,0.6-1,0.8-1.4
		c22.7,7,38.2,20.7,38.2,36.3c0,0.1,0,0.3,0,0.4H159c0-0.1,0-0.2,0-0.3c0-10-5.5-19.3-14.6-26.4v1.5c3.8,3.1,6.9,6.6,9.2,10.4
		c0.5,0,0.9,0,0.9,0v0.8h-0.4c2.4,4.3,3.7,8.9,3.7,13.7c0,0.1,0,0.2,0,0.3h-3v0.7h-1.7v-0.7h-1.9v0.7h-0.8c0,0,0-0.3,0-0.7h-2V97
		h-19.8v-0.1h-6.1c0.5,0.4,1,0.8,1.4,1.2h6.9c-0.9,9.9-7.2,18.5-13.8,25.1c-1.8-0.7-3.7-1.4-5.9-2c2.1-4.1,3.9-9,4.9-14.5l0,0
		c-0.3-0.3-0.7-0.6-1.1-0.9c-1,5.9-2.9,10.9-5,15.2c-3.8-1-8.2-1.6-13.2-1.6V98.1h9.5l0,0c-0.5-0.4-0.9-0.8-1.4-1.2h0h-8.1V96
		c-0.3,0.3-0.6,0.6-0.9,0.9c-0.1,0.1-0.3,0.3-0.4,0.4c-0.3,0.3-0.5,0.5-0.8,0.8h1v21.1c-5.1,0-9.7,0.7-13.8,1.7
		c-1.1-2.4-2.1-5.1-2.9-8.1l-1,1c0.8,2.7,1.7,5.2,2.7,7.5c-2.4,0.7-4.7,1.5-6.7,2.3c-1.1-1-2.1-2-3.1-3.2l0,0c0,0-0.1,0.1-0.1,0.1
		c0,0-0.1,0.1-0.1,0.1c-0.2,0.2-0.4,0.4-0.6,0.6c0.9,1,1.8,1.9,2.8,2.8c-2.4,1.1-4.6,2.2-6.4,3.3c-0.6-0.4-1.2-0.7-1.8-1.1l0,0
		c-0.3,0.3-0.6,0.6-0.9,0.9c0,0,0,0,0,0c0.5,0.3,1,0.7,1.5,1c-1.2,0.8-2.2,1.5-3,2.1c-0.4-0.2-0.8-0.3-1.2-0.5
		c-0.2,0.2-0.3,0.3-0.5,0.4c-0.1,0.1-0.2,0.2-0.3,0.3c0,0-0.1,0.1-0.1,0.1l0,0c0.4,0.2,0.7,0.3,1.1,0.5c-0.7,0.6-1.2,1-1.5,1.3
		c-0.4-0.1-0.7-0.2-1.1-0.4c0,0-0.1,0.1-0.1,0.1c-0.2,0.2-0.5,0.4-0.7,0.6c-0.1,0.1-0.1,0.1-0.2,0.2c11.2,3.9,24.3,6.1,38.2,6.1
		c40.9,0,74.2-19.1,74.2-42.5C169.8,80.3,154.1,66.3,130.9,59.1z M65.9,64.9c-1.1-0.9-2-1.7-2.7-2.5c7.2-2.9,15.4-4.9,24.2-5.7
		C79.8,57.9,72.4,60.7,65.9,64.9z M62.4,61.5c-0.5-0.6-0.8-1.1-1.1-1.4c9.5-2.9,20.3-4.6,31.7-4.8C81.8,55.5,71.3,57.8,62.4,61.5z
		 M95,55.2c0.2,0,0.4,0,0.6,0c0,0,0.1,0,0.1,0C95.5,55.2,95.3,55.2,95,55.2z M61.3,132.9c0.4-0.3,0.8-0.7,1.4-1.1
		c6.6,2.7,13.9,4.5,21.7,5.5C76.1,136.6,68.4,135.1,61.3,132.9z M63.8,131c0.8-0.6,1.7-1.2,2.8-1.9c5.6,3.4,11.8,5.8,18.3,7.1
		C77.3,135.3,70.1,133.5,63.8,131z M67.8,128.4c1.7-1,3.8-2.1,6.1-3.1c5.1,4.7,10.5,8.1,13.9,10.1C80.7,134.4,73.9,132,67.8,128.4z
		 M75.1,124.8c1.9-0.7,3.9-1.4,6.1-2c3,6,6.5,10.1,9,12.6C87.2,133.8,81,130.1,75.1,124.8z M95.5,136c-1,0-1.9,0-2.9-0.1
		c-2.2-2-6.6-6.3-10.2-13.5c3.9-1,8.3-1.6,13-1.6V136z M157.7,98.1c-0.8,13.7-12.2,25.6-28.9,32.5c-0.8-0.8-1.9-1.7-3.1-2.6
		c3.1-2,6-4.4,8.7-7c7.3-7.2,11.6-15.4,12-22.9H157.7z M132.1,98.1h13.1c-0.4,7.2-4.6,15.1-11.6,22.1c-2.7,2.7-5.7,5-8.9,7.1
		c-1.8-1.2-3.9-2.4-6.4-3.6C124.9,117,131.2,108.2,132.1,98.1z M98.7,135.9c-0.7,0-1.3,0.1-2,0.1v-15.1c4.7,0.1,8.8,0.6,12.4,1.5
		C105.3,129.4,100.8,134,98.7,135.9z M100.6,135.7c2.4-2.4,6.3-6.8,9.7-13.1c1.9,0.5,3.7,1.1,5.4,1.8
		C109.2,130.6,102.5,134.6,100.6,135.7C100.6,135.7,100.6,135.7,100.6,135.7z M116.9,124.9c2.4,1,4.4,2.2,6.1,3.3
		c-6,3.6-12.7,6-19.5,7.1C106.7,133.4,111.9,129.7,116.9,124.9z M124.2,129c1.1,0.8,2.1,1.6,2.9,2.3c-6.7,2.6-14.2,4.3-22.2,5.1
		C111.6,135.2,118.2,132.6,124.2,129z M108.8,137.1c6.9-0.9,13.4-2.6,19.3-4.9c0.4,0.4,0.7,0.7,1,1
		C122.7,135,115.9,136.4,108.8,137.1z M130.7,132.7c-0.3-0.3-0.6-0.7-1-1.2c17-7.1,28.5-19.4,29.3-33.4h9.5
		C167.5,113,152.5,125.9,130.7,132.7z"/>
	<path d="M48.3,86.1l-0.8,1.1l0.4,0.2c1.2-3.2,3.1-6.5,5.6-9.6v-1.4l-0.6,0.2c0,0,0,0,0,0c-2.2,2.8-4,5.7-5.4,8.7L48.3,86.1z"/>
	<path d="M113.6,78.3c-0.3,0.2-0.5,0.5-0.8,0.7h0h0h0c0.2-0.2,0.4-0.4,0.7-0.6c0,0,0,0,0,0C113.5,78.4,113.5,78.4,113.6,78.3
		C113.5,78.4,113.6,78.4,113.6,78.3z"/>
	<path d="M126.8,66.4c-0.1,0.1-0.3,0.3-0.5,0.4c0,0,0,0,0.1-0.1c0,0,0,0,0,0c0.1-0.1,0.1-0.1,0.2-0.2
		C126.7,66.5,126.8,66.5,126.8,66.4L126.8,66.4L126.8,66.4L126.8,66.4z"/>
	<path d="M19.2,104.7c-0.1-0.2-0.3-0.4-0.5-0.6l-0.8,0.1c0,0.1,0,0.1,0,0.1c0.3,0.2,0.5,0.3,0.6,0.5c0.2,0.2,0.3,0.4,0.4,0.6
		c0.2,0.5,0,1-0.4,1.5c-0.4,0.5-1,0.8-1.6,1c-0.7,0.2-1.4,0.2-2,0.1c-0.6-0.2-1-0.5-1.2-0.9c-0.1-0.2-0.1-0.5,0-0.7
		c0.1-0.2,0.2-0.5,0.4-0.7l0-0.1l-1,0.1c-0.1,0.3-0.1,0.6-0.1,0.8c0,0.3,0,0.5,0.1,0.7c0.2,0.7,0.7,1.3,1.4,1.6
		c0.8,0.4,1.7,0.4,2.6,0.1c1.1-0.3,1.8-0.9,2.2-1.7c0.2-0.6,0.3-1.2,0.1-1.8C19.4,105.1,19.3,104.9,19.2,104.7z"/>
	<polygon points="18.4,101.1 15.4,101.4 15.1,99.2 18.2,98.9 18,97.8 11.8,98.4 11.9,99.6 14.4,99.3 14.6,101.5 12.1,101.8 
		12.2,102.9 18.5,102.3 	"/>
	<path d="M18.2,94.7l-2.9-0.3l0-0.1l3-1l0.1-1.3l-3.3,1.2c-0.1-0.3-0.3-0.6-0.5-0.9c-0.3-0.3-0.6-0.4-1-0.4c-0.4,0-0.8,0-1.1,0.2
		c-0.3,0.2-0.5,0.5-0.5,0.8l-0.2,2.2l6.3,0.6L18.2,94.7z M14.9,94.4l-2.5-0.2l0-0.3c0-0.2,0.2-0.4,0.4-0.5c0.2-0.1,0.5-0.2,0.8-0.1
		c0.4,0,0.7,0.2,1,0.4c0.2,0.2,0.3,0.5,0.3,0.7C14.9,94.3,14.9,94.4,14.9,94.4z"/>
	<polygon points="19.2,89.3 13.1,87.8 12.7,89 18.9,90.5 	"/>
	<path d="M19,84.1c-0.3-0.1-0.5-0.2-0.8-0.2c-0.3,0-0.5,0-0.7,0.2l-1.2,0.8c-0.1,0.1-0.3,0.1-0.5,0.2c-0.2,0-0.3,0-0.5-0.1
		c-0.2-0.1-0.3-0.2-0.4-0.4c-0.1-0.2-0.1-0.4,0-0.6c0.1-0.2,0.2-0.3,0.4-0.4c0.2-0.1,0.4-0.1,0.7-0.1c0,0,0.1-0.1,0.1-0.1l-0.7-0.5
		c-0.1,0-0.1,0-0.1,0c0,0-0.1,0-0.1,0.1c-0.1,0.1-0.3,0.2-0.4,0.4c-0.1,0.2-0.2,0.3-0.3,0.5c-0.2,0.4-0.2,0.8,0,1.2
		c0.2,0.4,0.6,0.7,1.1,0.9c0.3,0.1,0.6,0.2,0.9,0.2c0.3,0,0.6-0.1,0.8-0.2l1.2-0.8c0.1-0.1,0.3-0.1,0.4-0.1c0.1,0,0.3,0,0.5,0.1
		c0.2,0.1,0.4,0.3,0.5,0.5c0.1,0.2,0.1,0.5,0.1,0.6c-0.1,0.2-0.2,0.4-0.5,0.5c-0.2,0.1-0.5,0.1-0.8,0.1L18.5,87l1,0.6
		c0.4-0.3,0.6-0.6,0.8-1c0.2-0.5,0.2-0.9,0-1.3C20.1,84.7,19.7,84.4,19,84.1z"/>
	<polygon points="22.6,81.4 17.8,78.8 18.4,77.7 17.8,77.3 15.9,80.6 16.5,80.9 17.2,79.8 22,82.5 	"/>
	<polygon points="25,78 19.8,74.4 19.1,75.4 24.2,79 	"/>
	<path d="M26.4,76.2l-1-1.6l1.2-1.3l1.7,0.8l0.8-0.9c-1.1-0.5-1.8-0.8-2.1-0.9c-0.6-0.3-1.3-0.6-2.1-0.9c-0.7-0.3-1.4-0.6-2-0.9
		L22.6,71l3.4,5.7L26.4,76.2z M24,72.2l2,0.9l-0.9,1L24,72.2z"/>
	<polygon points="30.8,71.6 27.8,68.4 33.3,69.5 33.7,69.1 29.6,64.5 29.1,64.9 32,68 26.7,66.9 26.2,67.4 30.3,72 	"/>
	<polygon points="38.7,65.6 36.8,62 40.3,64.6 40.6,64.5 39.8,60.1 42.2,63.5 43.3,62.8 39.4,57.9 38.9,58.2 39.7,62.8 35.9,60 
		35.4,60.3 38.1,65.9 	"/>
	<polygon points="47.5,60.7 47.2,60.1 45.7,60.9 44.6,58.9 46.1,58.1 45.8,57.6 44.3,58.3 43.5,56.7 45,55.9 44.6,55.3 42.1,56.5 
		44.9,62 	"/>
	<polygon points="47.8,54.6 50.1,59.6 51.2,59.1 49,54.1 50.2,53.6 49.8,53 46.3,54.5 46.6,55.1 	"/>
	<polygon points="55.1,57.6 54.1,54.8 56.2,54 57.3,56.8 58.4,56.4 56.2,50.6 55.1,51 56,53.3 53.8,54.1 53,51.8 51.9,52.2 54,58 	
		"/>
	<path d="M60.8,54.9c0.7,0.4,1.4,0.6,2.1,0.4c0.7-0.2,1.3-0.7,1.7-1.5c0.4-0.8,0.4-1.6,0.2-2.4c-0.3-0.9-0.8-1.5-1.5-2
		c-0.7-0.4-1.4-0.5-2.2-0.3c-0.7,0.2-1.2,0.7-1.6,1.4c-0.4,0.8-0.4,1.5-0.2,2.4C59.6,53.7,60.1,54.4,60.8,54.9z M60.3,50.7
		c0.1-0.6,0.4-1,0.9-1.1c0.5-0.1,1,0,1.4,0.4c0.4,0.4,0.7,1,0.9,1.6c0.2,0.7,0.3,1.3,0.1,1.9c-0.1,0.7-0.5,1.1-1,1.2
		c-0.5,0.1-1,0-1.4-0.6c-0.4-0.4-0.6-1-0.9-1.7C60.3,51.8,60.2,51.2,60.3,50.7z"/>
	<path d="M70.2,53.3c0.6-0.1,1.1-0.6,1.3-1.4c0.2-0.7,0.3-1.5,0.1-2.3c-0.2-0.7-0.5-1.4-1-1.8c-0.5-0.5-1.1-0.7-1.7-0.5l-2.7,0.6
		l1.3,6L70.2,53.3z M68.5,47.9c0.5-0.1,0.9,0.1,1.3,0.5c0.4,0.4,0.6,0.9,0.8,1.6c0.1,0.7,0.2,1.2,0.1,1.8c-0.1,0.6-0.4,1-0.9,1.1
		l-1.1,0.2l-1.1-5L68.5,47.9z"/>
	<polygon points="75.6,52.3 74.5,46.2 73.3,46.4 74.4,52.5 	"/>
	<path d="M77.9,49l1.3,0.6c0.1,0.1,0.2,0.2,0.3,0.3c0.1,0.1,0.1,0.3,0.1,0.4c0,0.3,0,0.5-0.2,0.7c-0.2,0.2-0.3,0.3-0.5,0.4
		c-0.2,0-0.5,0-0.7-0.2c-0.2-0.1-0.4-0.4-0.5-0.6l-0.2,0l0,1.2c0.4,0.2,0.9,0.2,1.3,0.2c0.5-0.1,0.9-0.3,1.2-0.6
		c0.3-0.4,0.4-0.9,0.3-1.6c0-0.3-0.1-0.5-0.2-0.7c-0.1-0.3-0.3-0.4-0.5-0.5l-1.3-0.6c-0.1-0.1-0.3-0.2-0.4-0.3
		c-0.1-0.1-0.2-0.3-0.2-0.5c0-0.2,0-0.4,0.2-0.6c0.1-0.2,0.3-0.3,0.5-0.3c0.2,0,0.4,0,0.5,0.1c0.2,0.1,0.3,0.3,0.4,0.5
		c0,0,0.1,0,0.1,0l0.1-0.9c0,0-0.1-0.1-0.1-0.1c0,0-0.1,0-0.1,0c-0.2-0.1-0.3-0.1-0.5-0.1c-0.2,0-0.4,0-0.5,0
		c-0.4,0.1-0.8,0.3-1.1,0.6C77,46.6,76.9,47,77,47.6c0,0.3,0.1,0.6,0.3,0.9C77.4,48.7,77.6,48.9,77.9,49z"/>
	<polygon points="83,45.9 83.5,51.3 84.7,51.2 84.2,45.8 85.5,45.7 85.4,45 81.6,45.3 81.6,46 	"/>
	<polygon points="94.3,50.7 94.3,50.1 92.6,50.1 92.5,47.8 94.2,47.8 94.2,47.2 92.5,47.2 92.4,45.3 94.2,45.3 94.1,44.6 91.3,44.6 
		91.4,50.8 	"/>
	<path d="M97.4,48.1l0.6,0c0.5,0,0.9-0.2,1.2-0.5c0.3-0.4,0.5-0.8,0.5-1.3c0-0.5-0.1-0.8-0.3-1.1c-0.2-0.3-0.5-0.5-0.9-0.5l-2.2,0
		l-0.1,6.2l1.2,0L97.4,48.1z M97.5,45.1c0.4,0,0.6,0.1,0.8,0.2c0.2,0.2,0.3,0.5,0.3,1c0,0.5-0.1,0.8-0.3,1c-0.2,0.2-0.5,0.3-0.8,0.3
		L97.5,45.1z"/>
	<polygon points="103.1,44.8 101.9,44.7 101.6,50.9 102.8,50.9 	"/>
	<path d="M107.4,50.9c0.4-0.3,0.6-0.8,0.7-1.5c0-0.3,0-0.5-0.1-0.8c-0.1-0.3-0.2-0.5-0.4-0.6l-1.2-0.9c-0.1-0.1-0.2-0.2-0.3-0.4
		c-0.1-0.2-0.1-0.3-0.1-0.5c0-0.2,0.1-0.4,0.3-0.5c0.2-0.1,0.4-0.2,0.6-0.2c0.2,0,0.3,0.1,0.5,0.2c0.1,0.1,0.3,0.3,0.3,0.6
		c0,0,0.1,0,0.1,0l0.3-0.8c0-0.1-0.1-0.1-0.1-0.1c0,0-0.1-0.1-0.1-0.1c-0.2-0.1-0.3-0.2-0.5-0.2c-0.2-0.1-0.4-0.1-0.5-0.1
		c-0.5,0-0.9,0.1-1.2,0.4c-0.4,0.3-0.6,0.7-0.6,1.3c0,0.3,0,0.6,0.1,0.9c0.1,0.3,0.3,0.5,0.5,0.7l1.1,0.9c0.1,0.1,0.2,0.2,0.2,0.3
		c0,0.1,0.1,0.3,0,0.5c0,0.3-0.1,0.5-0.3,0.6c-0.2,0.2-0.4,0.3-0.6,0.2c-0.2,0-0.4-0.1-0.6-0.3c-0.2-0.2-0.3-0.4-0.3-0.7l-0.2,0
		l-0.3,1.1c0.4,0.3,0.8,0.4,1.2,0.4C106.6,51.3,107,51.2,107.4,50.9z"/>
	<path d="M112.2,51.9c0.3,0,0.6,0,0.8,0c0.3,0,0.5-0.1,0.7-0.2l0.3-0.8c-0.1,0-0.1,0-0.1,0c-0.3,0.2-0.5,0.3-0.7,0.4
		c-0.3,0.1-0.5,0.1-0.7,0.1c-0.5-0.1-0.9-0.4-1.2-1c-0.3-0.6-0.4-1.2-0.3-1.9c0.1-0.7,0.3-1.3,0.8-1.8c0.4-0.5,0.9-0.7,1.4-0.6
		c0.2,0,0.5,0.1,0.6,0.3c0.2,0.2,0.3,0.4,0.5,0.7l0.1,0l0.3-0.9c-0.3-0.2-0.5-0.3-0.8-0.4c-0.2-0.1-0.5-0.2-0.7-0.2
		c-0.8-0.1-1.5,0.1-2.1,0.6c-0.7,0.5-1.1,1.3-1.2,2.3c-0.1,1.1,0.1,2,0.7,2.6C111,51.5,111.6,51.8,112.2,51.9z"/>
	<path d="M118.3,52.9c0.8,0.1,1.5-0.1,2.2-0.6c0.7-0.5,1.1-1.3,1.3-2.1c0.2-0.9,0-1.7-0.5-2.4c-0.4-0.7-1.1-1.1-1.8-1.2
		c-0.7-0.1-1.4,0.1-2.1,0.6c-0.7,0.5-1.1,1.2-1.2,2c-0.2,0.9-0.1,1.7,0.4,2.5C117,52.3,117.5,52.7,118.3,52.9z M117.3,49.3
		c0.1-0.7,0.4-1.3,0.7-1.7c0.4-0.5,0.8-0.7,1.4-0.6c0.5,0.1,0.9,0.4,1.1,1c0.2,0.5,0.2,1.2,0.1,1.9c-0.1,0.7-0.4,1.3-0.8,1.8
		c-0.4,0.6-0.9,0.8-1.4,0.7c-0.5-0.1-0.9-0.5-1-1.1C117.2,50.7,117.2,50.1,117.3,49.3z"/>
	<path d="M124.8,51.3l0.6,0.1c0.5,0.1,0.9,0,1.3-0.2c0.4-0.3,0.7-0.7,0.8-1.2c0.1-0.4,0.1-0.8-0.1-1.2c-0.2-0.4-0.4-0.6-0.8-0.7
		l-2.1-0.5l-1.5,6l1.2,0.3L124.8,51.3z M125.5,48.4c0.4,0.1,0.6,0.2,0.7,0.4c0.2,0.2,0.2,0.6,0.1,1c-0.1,0.4-0.3,0.8-0.6,0.9
		c-0.2,0.2-0.5,0.2-0.8,0.1L125.5,48.4z"/>
	<path d="M129.3,53.4l1.7,0.5l0,1.9l1.2,0.4c0-1.2-0.1-1.9-0.1-2.2c0-0.7,0-1.4,0-2.2c0-0.7,0-1.5,0-2.2l-0.6-0.2l-3.9,5.4l0.7,0.2
		L129.3,53.4z M131,51.1l0,2.1l-1.3-0.4L131,51.1z"/>
	<polygon points="136.9,57 135.3,56.4 137.2,51.3 136.1,50.9 133.9,56.7 136.6,57.6 	"/>
	<path d="M143.8,60.8c0.3,0.1,0.5,0.2,0.8,0.3c0.2,0.1,0.5,0.1,0.8,0l0.5-0.6c0,0-0.1-0.1-0.1-0.1c-0.3,0.1-0.6,0.1-0.8,0.1
		c-0.3,0-0.5,0-0.7-0.1c-0.5-0.2-0.7-0.6-0.8-1.3c-0.1-0.6,0-1.2,0.3-1.9c0.3-0.6,0.7-1.1,1.3-1.5c0.6-0.3,1.1-0.4,1.5-0.2
		c0.2,0.1,0.4,0.3,0.5,0.5c0.1,0.2,0.2,0.5,0.2,0.8l0.1,0l0.6-0.8c-0.2-0.2-0.4-0.5-0.6-0.6c-0.2-0.2-0.4-0.3-0.6-0.4
		c-0.7-0.3-1.5-0.4-2.2-0.1c-0.8,0.3-1.4,0.9-1.9,1.8c-0.5,1-0.6,1.9-0.2,2.7C142.8,60.1,143.2,60.5,143.8,60.8z"/>
	<polygon points="148.1,62.8 149.6,60.2 151.6,61.3 150.1,63.9 151.1,64.5 154.2,59.2 153.2,58.6 152,60.7 150,59.6 151.3,57.5 
		150.2,56.9 147.1,62.2 	"/>
	<path d="M153.8,65.9c0.2,0.5,0.5,0.9,1,1.3c0.5,0.3,1,0.4,1.6,0.3c0.6-0.1,1.1-0.5,1.5-1l2.4-3.2l-0.5-0.4l-2.6,3.5
		c-0.2,0.3-0.6,0.5-1,0.6c-0.4,0.1-0.7,0-1-0.2c0,0-0.1,0-0.1-0.1c-0.3-0.2-0.4-0.5-0.4-0.8c0-0.4,0.1-0.7,0.4-1.1l2.5-3.4l-0.9-0.6
		l-2.8,3.8C153.7,64.9,153.6,65.3,153.8,65.9z"/>
	<path d="M159.3,70.4l1.9-2.1l0,0l-0.9,3l1,0.9l0.9-3.3c0.3,0.1,0.7,0.1,1,0.1c0.4-0.1,0.7-0.2,0.9-0.5c0.3-0.3,0.4-0.6,0.5-1
		c0-0.4-0.1-0.7-0.3-0.9l-1.7-1.5l-4.2,4.6L159.3,70.4z M163.1,66.1l0.3,0.2c0.2,0.1,0.2,0.4,0.2,0.6c0,0.3-0.1,0.5-0.3,0.7
		c-0.3,0.3-0.6,0.5-0.9,0.5c-0.3,0.1-0.6,0-0.8-0.2c0,0-0.1-0.1-0.1-0.1L163.1,66.1z"/>
	<path d="M163.4,73.5c0,0.6,0.3,1.2,0.7,1.7c0.2,0.2,0.4,0.4,0.6,0.5c0.2,0.1,0.4,0.3,0.7,0.3l0.7-0.4c0-0.1,0-0.1-0.1-0.1
		c-0.3,0-0.6-0.1-0.8-0.2c-0.3-0.1-0.5-0.2-0.6-0.4c-0.3-0.4-0.4-0.9-0.2-1.5c0.2-0.6,0.5-1.1,1.1-1.6c0.5-0.5,1.1-0.8,1.8-0.9
		c0.6-0.1,1.1,0,1.5,0.4c0.2,0.2,0.3,0.4,0.3,0.6c0,0.2,0,0.5-0.1,0.8l0.1,0.1l0.8-0.5c-0.1-0.3-0.2-0.6-0.3-0.8
		c-0.1-0.2-0.3-0.4-0.4-0.6c-0.5-0.6-1.2-0.9-2-0.9c-0.9,0-1.7,0.3-2.4,1C163.7,71.8,163.3,72.6,163.4,73.5z"/>
	<polygon points="167.1,78.7 169.7,77 170.9,78.9 168.4,80.5 169,81.5 174.3,78.1 173.6,77.1 171.5,78.5 170.3,76.6 172.4,75.3 
		171.7,74.3 166.5,77.7 	"/>
	<path d="M173.8,94.7l6,0.1l0.1-0.1c-0.4-0.7-0.8-1.4-1.1-2.2l-0.5,0.3l0.4,0.8l-5-0.1L173.8,94.7z"/>
	<path d="M178.3,97c-0.3,0-0.5,0-0.8,0.1c-0.3,0.1-0.4,0.3-0.6,0.5c-0.1-0.3-0.3-0.6-0.6-0.9c-0.3-0.2-0.6-0.4-0.9-0.4
		c-0.5-0.1-0.9,0.1-1.3,0.4c-0.4,0.3-0.6,0.7-0.7,1.2c-0.1,0.5,0,0.9,0.2,1.3c0.3,0.4,0.7,0.7,1.2,0.7c0.4,0.1,0.7,0,1.1-0.1
		c0.3-0.1,0.5-0.4,0.7-0.6c0.1,0.3,0.2,0.5,0.4,0.7c0.2,0.2,0.5,0.3,0.8,0.3c0.5,0.1,0.8-0.1,1.1-0.4c0.3-0.3,0.4-0.6,0.5-1
		c0.1-0.4,0-0.8-0.3-1.1C179,97.2,178.7,97,178.3,97z M176,98.8c-0.3,0.1-0.6,0.1-0.9,0c-0.4-0.1-0.7-0.2-1-0.3
		c-0.3-0.2-0.4-0.3-0.4-0.6c0-0.2,0.2-0.4,0.5-0.4c0.3-0.1,0.7-0.1,1.1,0c0.3,0,0.6,0.1,0.8,0.3c0.2,0.2,0.3,0.3,0.3,0.5
		C176.5,98.5,176.3,98.7,176,98.8z M178.8,99.1c-0.2,0.1-0.4,0.1-0.7,0.1c-0.3,0-0.6-0.1-0.8-0.3c-0.2-0.1-0.3-0.3-0.3-0.5
		c0-0.2,0.2-0.3,0.4-0.4c0.2-0.1,0.5-0.1,0.8-0.1c0.3,0,0.5,0.1,0.7,0.3c0.2,0.1,0.3,0.3,0.2,0.5C179.1,98.9,179,99,178.8,99.1z"/>
	<path d="M177.2,104.3L177.2,104.3c-0.7-0.6-1.3-1.2-2-1.8c-0.7-0.6-1.3-1.2-1.9-1.8l0,0l-0.3,0.9c0.9,0.6,1.7,1.2,2.5,1.9
		c0.8,0.7,1.6,1.3,2.3,2.1l0.2,0l1-3.3l-1.1-0.3L177.2,104.3z"/>
	<path d="M175.2,105.6c-0.9-0.3-1.7-0.3-2.3-0.2c-0.7,0.1-1.1,0.5-1.3,1.1c-0.2,0.5,0,1.1,0.6,1.6c0.5,0.4,1.2,0.8,2,1
		c0.7,0.2,1.4,0.2,2,0.1c0.7-0.2,1.1-0.5,1.3-1c0.2-0.5,0-1-0.5-1.5C176.5,106.2,175.9,105.9,175.2,105.6z M177.1,108.1
		c-0.1,0.2-0.2,0.4-0.5,0.4c-0.3,0.1-0.7,0-1.4-0.2c-0.1,0-0.3-0.1-0.4-0.1c-0.1,0-0.2-0.1-0.3-0.1c-0.6-0.2-1-0.3-1.3-0.4
		c-0.9-0.3-1.3-0.7-1.2-1.1c0.1-0.3,0.5-0.5,1.1-0.4c0.3,0,0.9,0.2,1.8,0.4l0.5,0.1c0.6,0.2,1.1,0.3,1.3,0.5
		C177,107.5,177.2,107.7,177.1,108.1z"/>
	<path d="M45.1,130.2c-0.2-0.2-0.4-0.4-0.6-0.5c-0.7-0.4-1.4-0.6-2.2-0.4c-0.8,0.2-1.5,0.7-2.1,1.5c-0.6,0.9-0.8,1.8-0.5,2.6
		c0.2,0.6,0.6,1.1,1.2,1.4c0.3,0.2,0.5,0.3,0.8,0.4c0.2,0.1,0.5,0.1,0.8,0.2l0.6-0.5c0-0.1-0.1-0.1-0.1-0.1c-0.3,0-0.6,0-0.8,0
		c-0.3,0-0.5-0.1-0.7-0.2c-0.4-0.3-0.7-0.7-0.7-1.4c0-0.6,0.2-1.2,0.6-1.8c0.4-0.6,0.9-1,1.5-1.2c0.6-0.2,1.1-0.2,1.5,0
		c0.2,0.1,0.4,0.3,0.5,0.5c0.1,0.2,0.2,0.5,0.1,0.8l0.1,0.1l0.7-0.7C45.5,130.6,45.3,130.4,45.1,130.2z"/>
	<path d="M49.8,132.5c-0.7-0.3-1.4-0.3-2.2,0c-0.8,0.3-1.4,0.8-1.7,1.6c-0.4,0.8-0.5,1.6-0.3,2.4c0.2,0.8,0.7,1.3,1.4,1.7
		c0.7,0.3,1.5,0.4,2.3,0c0.8-0.3,1.4-0.9,1.8-1.6c0.4-0.8,0.5-1.6,0.2-2.4C51,133.4,50.5,132.8,49.8,132.5z M49.9,136
		c-0.3,0.6-0.7,1.1-1.2,1.5c-0.6,0.4-1.1,0.5-1.6,0.2c-0.5-0.2-0.7-0.7-0.7-1.4c0-0.5,0.2-1.1,0.5-1.8c0.3-0.6,0.7-1.1,1.1-1.4
		c0.5-0.4,1-0.4,1.5-0.2c0.5,0.2,0.7,0.7,0.8,1.3C50.4,134.8,50.3,135.3,49.9,136z"/>
	<polygon points="56.6,139.9 55,134.9 54.3,134.6 52.1,140.3 52.7,140.5 54.2,136.5 55.8,141.6 56.4,141.9 58.6,136.2 58,136 	"/>
	<polygon points="63.6,142 61.6,137.2 60.9,137 59.2,142.8 59.8,142.9 61,138.9 63,143.8 63.7,144 65.4,138.3 64.8,138.1 	"/>
	<polygon points="66.4,144.7 69.2,145.3 69.4,144.6 67.7,144.3 68.2,142.1 69.9,142.5 70,141.9 68.3,141.5 68.7,139.8 70.4,140.1 
		70.6,139.4 67.7,138.8 	"/>
	<path d="M75.1,140.1c-0.8-0.1-1.6,0-2.2,0.5c-0.7,0.5-1.1,1.2-1.3,2.2c-0.2,1.1,0,1.9,0.6,2.6c0.4,0.5,1,0.8,1.7,0.9
		c0.3,0,0.6,0.1,0.8,0.1c0.3,0,0.5-0.1,0.8-0.2l0.3-0.7c-0.1,0-0.1,0-0.1,0c-0.3,0.2-0.5,0.3-0.7,0.3c-0.3,0.1-0.5,0.1-0.7,0.1
		c-0.5-0.1-0.9-0.4-1.2-1c-0.3-0.6-0.3-1.2-0.2-1.8c0.1-0.7,0.4-1.2,0.8-1.7c0.4-0.5,0.9-0.6,1.4-0.6c0.2,0,0.5,0.1,0.7,0.3
		c0.2,0.2,0.3,0.4,0.5,0.7l0.1,0l0.3-0.9c-0.3-0.2-0.5-0.3-0.8-0.4C75.6,140.2,75.4,140.1,75.1,140.1z"/>
	<polygon points="78.1,141.4 79.5,141.5 78.9,146.8 80.1,146.9 80.7,141.7 82,141.8 82.1,141.1 78.2,140.7 	"/>
	<polygon points="83.5,147.2 84.8,147.3 85.2,141.3 83.9,141.2 	"/>
	<path d="M90,141.4c-0.7,0-1.4,0.3-2,0.9c-0.6,0.6-0.9,1.3-0.9,2.1c0,0.9,0.3,1.7,0.8,2.3c0.5,0.6,1.2,0.9,2,0.9
		c0.8,0,1.5-0.3,2.1-0.9c0.6-0.6,0.9-1.4,0.9-2.2c0-0.9-0.3-1.6-0.9-2.2C91.5,141.7,90.8,141.4,90,141.4z M91.2,146.3
		c-0.3,0.6-0.8,0.9-1.3,0.9c-0.6,0-1-0.3-1.2-0.9c-0.2-0.5-0.3-1.1-0.3-1.8c0-0.7,0.2-1.3,0.4-1.7c0.3-0.5,0.7-0.8,1.3-0.8
		c0.5,0,1,0.3,1.3,0.8c0.3,0.5,0.4,1.1,0.4,1.8C91.7,145.2,91.5,145.8,91.2,146.3z"/>
	<polygon points="99.1,141.4 99.2,145.5 95.8,141.5 95.1,141.5 95.3,147.5 95.8,147.5 95.7,143.3 99.2,147.4 99.9,147.4 99.7,141.4 
			"/>
	<path d="M105.2,143c-0.3-0.7-0.6-1.3-0.8-2l-0.6,0l-1.7,6.2l0.7-0.1l0.4-1.8l1.8-0.1l0.7,1.7l1.3-0.1c-0.5-1-0.8-1.7-0.9-2
		C105.8,144.4,105.5,143.7,105.2,143z M103.3,144.8l0.6-2l0.8,1.9L103.3,144.8z"/>
	<polygon points="110.1,145.9 109.5,140.6 108.3,140.7 109,146.7 112,146.4 111.9,145.7 	"/>
	<polygon points="121.3,138.8 120.4,143.2 117.8,139.5 117.2,139.6 117.7,145.6 118.3,145.5 117.9,141.5 120.3,145.1 120.6,145 
		121.5,140.8 122.6,144.7 123.8,144.4 122,138.7 	"/>
	<path d="M127.9,139.3c-0.4-0.6-0.8-1.2-1.2-1.8l-0.6,0.1l-0.5,6.4l0.7-0.2l0.1-1.8l1.7-0.4l1,1.6l1.2-0.3c-0.6-0.9-1.1-1.5-1.2-1.8
		C128.8,140.5,128.4,139.9,127.9,139.3z M126.4,141.4l0.2-2.1l1.2,1.8L126.4,141.4z"/>
	<path d="M134.3,137.9c0.1-0.3,0.1-0.7,0-1c-0.1-0.4-0.3-0.7-0.7-0.9c-0.3-0.2-0.6-0.3-1-0.2l-2.2,0.7l1.9,5.7l1.1-0.3l-0.9-2.6
		l0.1,0l2.2,2.2l1.3-0.4l-2.5-2.3C134,138.5,134.2,138.2,134.3,137.9z M133.3,138.3c-0.1,0.3-0.3,0.5-0.6,0.6c-0.1,0-0.1,0-0.2,0
		l-0.7-2.2l0.4-0.1c0.2-0.1,0.4,0,0.7,0.1c0.2,0.2,0.4,0.4,0.5,0.6C133.4,137.7,133.4,138,133.3,138.3z"/>
	<path d="M138.8,136.3c0.2-1,0.5-2,0.9-2.9l0-0.1l-0.8,0.3l-0.8,3.3l-1-2.6l-1.1,0.4l2.2,5.6l1.1-0.4l-1-2.5l2.5,2l1.2-0.5l0-0.1
		L138.8,136.3z"/>
	<polygon points="144.7,137 143.7,135 145.3,134.3 145,133.7 143.4,134.4 142.7,132.8 144.3,132.1 144,131.4 141.3,132.6 
		143.8,138.1 146.5,136.9 146.2,136.3 	"/>
	<path d="M149.7,131.3c0.1-0.4,0-0.7-0.2-1c-0.2-0.3-0.5-0.6-0.8-0.7c-0.4-0.1-0.7-0.1-1,0l-2,1.1l2.9,5.3l1-0.5l-1.3-2.4l0,0
		l2.6,1.8l1.2-0.6l-2.9-1.8C149.5,131.9,149.6,131.6,149.7,131.3z M148.3,132.5c-0.1,0-0.1,0.1-0.1,0.1l-1.1-2.1l0.3-0.2
		c0.2-0.1,0.4-0.1,0.7,0c0.2,0.1,0.4,0.3,0.6,0.5c0.2,0.3,0.3,0.7,0.2,1C148.7,132.1,148.5,132.4,148.3,132.5z"/>
</g>
</svg>
