<?xml version="1.0" encoding="utf-8"?>
<!-- Generator: Adobe Illustrator 25.2.3, SVG Export Plug-In . SVG Version: 6.00 Build 0)  -->
<svg version="1.1" id="Layer_1" xmlns="http://www.w3.org/2000/svg" xmlns:xlink="http://www.w3.org/1999/xlink" x="0px" y="0px"
	 viewBox="0 0 400 400" style="enable-background:new 0 0 400 400;" xml:space="preserve">
<style type="text/css">
	.st0{fill:#7C287D;stroke:#7C287D;stroke-width:3;stroke-linecap:round;stroke-linejoin:round;stroke-miterlimit:10;}
	.st1{fill:none;stroke:#7C287D;stroke-width:3;stroke-linecap:round;stroke-linejoin:round;stroke-miterlimit:10;}
</style>
<polygon class="st0" points="97.5,207.5 87.3,211.7 84.4,209.7 92.2,204.7 78.8,194.2 75.4,205.1 71.4,206.7 64.4,151.3 65.8,50.3 
	136.8,42.1 153.4,112.2 165.5,133 158.5,148.7 163.2,155.7 163.2,169.5 166.2,176 89.8,182.4 89.8,191.1 97.5,194.7 "/>
<polygon class="st1" points="273.8,184.8 288.1,214.1 288.2,214.3 311.6,241.1 306.7,248.1 317.4,263.6 332.5,293.3 334.2,321.2 
	336.6,324.7 336.6,330.4 331.7,332.4 335.1,345.8 328.9,353.2 320.3,353.5 317.2,357.8 312.6,358.2 309.8,345.1 298.5,333.9 
	289.1,333.7 287.4,323.1 276.7,313.4 275.7,318.1 272.7,318 265,302.2 253.7,286.9 260.9,277.8 259.3,270 249.1,270.2 250,275.8 
	249.5,276.3 246.7,271.6 246.1,263.8 249,259.3 247.5,239.9 241.9,229.3 230.9,228.2 220,215.3 204.7,203.8 191.4,202.3 
	191.4,210.9 184.1,209.4 176.5,218.5 166.3,221.5 163.6,218.3 150,207.2 126.7,201.3 100.9,206.2 99.9,206.6 99.9,193.2 92.2,189.6 
	92.2,184.6 167,178.3 167.3,178.2 171.7,185.9 250.3,182.1 253.4,188.6 257.8,188.2 257.8,177.8 256.1,171.7 270.7,171.5 "/>
</svg>
